titillium_regular-upright.sfdir
StartChar: exclam
Encoding: 33 33 145
Width: 231
Flags: MW
HStem: 0 111<78 154 78 154>
VStem: 79 73
LayerCount: 2
Back
Fore
SplineSet
80 230 m 1
 78 700 l 1
 154 700 l 1
 150 230 l 1
 80 230 l 1
78 0 m 1
 78 111 l 1
 154 111 l 1
 154 0 l 1
 78 0 l 1
EndSplineSet
EndChar
StartChar: quotedbl
Encoding: 34 34 228
Width: 346
Flags: MW
HStem: 466 228<65 131 65 65 215 215 215 281>
VStem: 63.5 68.5 213.5 68.5
LayerCount: 2
Back
Fore
SplineSet
131 466 m 1
 65 466 l 1
 62 694 l 1
 133 694 l 1
 131 466 l 1
281 466 m 1
 215 466 l 1
 212 694 l 1
 283 694 l 1
 281 466 l 1
EndSplineSet
EndChar
StartChar: numbersign
Encoding: 35 35 150
Width: 560
Flags: MW
HStem: 0 21G<135 203 135 135 357 425 357 357> 180 64<24 135 24 135 203 357 425 536> 422 64<24 135 24 135 203 357 425 536>
VStem: 135 68<0 180 0 180 244 422 486 666> 357 68<0 180 0 180 244 422 486 666>
LayerCount: 2
Back
Fore
SplineSet
536 180 m 1
 425 180 l 1
 425 0 l 1
 357 0 l 1
 357 180 l 1
 203 180 l 1
 203 0 l 1
 135 0 l 1
 135 180 l 1
 24 180 l 1
 24 244 l 1
 135 244 l 1
 135 422 l 1
 24 422 l 1
 24 486 l 1
 135 486 l 1
 135 666 l 1
 203 666 l 1
 203 486 l 1
 357 486 l 1
 357 666 l 1
 425 666 l 1
 425 486 l 1
 536 486 l 1
 536 422 l 1
 425 422 l 1
 425 244 l 1
 536 244 l 1
 536 180 l 1
357 244 m 1
 357 422 l 1
 203 422 l 1
 203 244 l 1
 357 244 l 1
EndSplineSet
EndChar
StartChar: dollar
Encoding: 36 36 144
Width: 560
Flags: MW
HStem: -10 21G<254 254> -10 64<254 280> -6 21G<200 200> 604 65<244.5 287.5 219 288 219 297> 664 21G<360 360>
VStem: 82 75<459 533.5 459 549.5> 404 74<142 219.5>
LayerCount: 2
Back
Fore
SplineSet
461 649 m 1x4e
 457 591 l 1
 457 591 403 597 350 601 c 1
 314 369 l 1
 423 340 478 304 478 192 c 0
 478 59 415 -11 280 -11 c 0
 272 -11 263 -11 254 -10 c 1x4e
 237 -119 l 1
 183 -119 l 1
 200 -6 l 1x2e
 143 -1 91 8 91 8 c 1
 95 68 l 1
 95 68 154 61 210 57 c 1
 251 311 l 1
 141 340 82 380 82 486 c 0
 82 613 154 669 284 669 c 0
 291 669 299 669 307 668 c 1x96
 325 781 l 1
 379 781 l 1
 360 664 l 1
 414 658 461 649 461 649 c 1x4e
404 185 m 0
 404 254 370 280 303 299 c 1
 264 54 l 1
 280 54 l 2
 365 54 404 99 404 185 c 0
157 494 m 0
 157 424 189 402 262 382 c 1
 297 604 l 1
 288 604 l 2x56
 201 604 157 573 157 494 c 0
EndSplineSet
EndChar
StartChar: percent
Encoding: 37 37 252
Width: 560
Flags: MW
HStem: -9 21G<213 213> 0 51<402 439 402 453.5> 228 52<402 439> 473 177<120.5 157.5> 694 21G<398 398> 702 21G<105 172.5>
VStem: 89 100<534.5 592.5 533.5 593> 311 60<112 171 112 190> 470 60<111.5 170.5>
LayerCount: 2
Back
Fore
SplineSet
139 650 m 0x7780
 176 650 189 622 189 563 c 0
 189 504 176 473 139 473 c 0
 102 473 89 505 89 564 c 0
 89 622 102 650 139 650 c 0x7780
159 6 m 1xbb80
 344 709 l 1
 398 694 l 1
 213 -9 l 1
 159 6 l 1xbb80
29 564 m 0
 29 467 72 422 139 422 c 0
 206 422 249 467 249 563 c 0
 249 660 206 702 139 702 c 0x7780
 71 702 29 660 29 564 c 0
311 142 m 0x7780
 311 238 352 280 420 280 c 0
 488 280 530 238 530 141 c 0
 530 45 487 0 420 0 c 0
 353 0 311 45 311 142 c 0x7780
371 142 m 0
 371 82 384 51 420 51 c 0
 458 51 470 82 470 141 c 0
 470 200 458 228 420 228 c 0
 384 228 371 200 371 142 c 0
EndSplineSet
EndChar
StartChar: ampersand
Encoding: 38 38 247
Width: 636
Flags: MW
HStem: -10 66<205.5 290 205.5 301> 638 64<262 320.5>
VStem: 33 78<160 231 160 239> 129 78<519.5 571 511 599.5> 377 78<514 574.5> 479 69<343 343>
LayerCount: 2
Back
Fore
SplineSet
290 702 m 0
 397 702 455 656 455 549 c 0xe8
 455 479 433 413 311 359 c 1
 452 213 l 1
 467 251 476 304 479 343 c 1
 548 343 l 1
 546 290 527 209 503 162 c 1
 510 155 614 51 620 43 c 1
 620 43 573 -8 571 -8 c 2
 463 102 l 1
 412 24 349 -10 253 -10 c 0
 108 -10 33 66 33 204 c 0xec
 33 274 59 354 180 400 c 1
 139 453 129 491 129 548 c 0xf8
 129 651 186 702 290 702 c 0
255 56 m 0
 325 56 376 84 414 147 c 1
 222 351 l 1
 131 316 111 261 111 201 c 0
 111 119 156 56 255 56 c 0
207 544 m 0xf8
 207 478 220 455 271 403 c 1
 348 436 377 473 377 545 c 0
 377 604 351 638 290 638 c 0
 234 638 207 598 207 544 c 0xf8
EndSplineSet
EndChar
StartChar: parenright
Encoding: 41 41 231
Width: 248
Flags: MW
HStem: -118 872<33 104 33 104>
VStem: 124 77<236 422>
LayerCount: 2
Back
Fore
SplineSet
104 -118 m 1
 33 -118 l 1
 33 -118 124 143 124 329 c 0
 124 515 33 754 33 754 c 1
 104 754 l 1
 104 754 201 537 201 329 c 0
 201 121 104 -118 104 -118 c 1
EndSplineSet
Substitution2: "'case' Case-Sensitive Forms in Latin lookup 4 subtable" parenright.cap
EndChar
StartChar: asterisk
Encoding: 42 42 248
Width: 406
Flags: MW
HStem: 511 50<235 366 235 366 234 366>
VStem: 47 319<458 511>
LayerCount: 2
Back
Fore
SplineSet
366 511 m 1
 234 511 l 1
 275 386 l 1
 226 371 l 1
 185 497 l 1
 77 418 l 1
 47 458 l 1
 155 537 l 1
 49 614 l 1
 79 656 l 1
 186 578 l 1
 227 704 l 1
 276 688 l 1
 235 561 l 1
 366 561 l 1
 366 511 l 1
EndSplineSet
EndChar
StartChar: plus
Encoding: 43 43 253
Width: 560
Flags: MW
HStem: 217 68<55 244 55 244 314 505>
VStem: 244 70<20 217 20 217 285 480>
LayerCount: 2
Back
Fore
SplineSet
55 217 m 1
 55 285 l 1
 244 285 l 1
 244 480 l 1
 314 480 l 1
 314 285 l 1
 505 285 l 1
 505 217 l 1
 314 217 l 1
 314 20 l 1
 244 20 l 1
 244 217 l 1
 55 217 l 1
EndSplineSet
EndChar
StartChar: comma
Encoding: 44 44 232
Width: 208
Flags: MW
HStem: -130 241<72 94 34 152>
VStem: 34 118
LayerCount: 2
Back
Fore
SplineSet
94 -130 m 1
 34 -130 l 1
 72 111 l 1
 152 111 l 1
 94 -130 l 1
EndSplineSet
EndChar
StartChar: hyphen
Encoding: 45 45 233
Width: 376
Flags: MW
HStem: 233 69<63 314 63 314>
VStem: 63 251<233 302 233 302>
LayerCount: 2
Back
Fore
SplineSet
63 233 m 1
 63 302 l 1
 314 302 l 1
 314 233 l 1
 63 233 l 1
EndSplineSet
EndChar
StartChar: period
Encoding: 46 46 234
Width: 201
Flags: MW
HStem: 0 111<63 139 63 139>
VStem: 63 76<0 111 0 111>
LayerCount: 2
Back
Fore
SplineSet
63 0 m 1
 63 111 l 1
 139 111 l 1
 139 0 l 1
 63 0 l 1
EndSplineSet
EndChar
StartChar: slash
Encoding: 47 47 385
Width: 390
Flags: MW
HStem: -10 21G<98 98>
VStem: 29 333
LayerCount: 2
Back
Fore
SplineSet
98 -10 m 1
 29 15 l 1
 293 707 l 1
 362 682 l 1
 98 -10 l 1
EndSplineSet
Substitution2: "'frac' Diagonal Fractions in Latin lookup 3 subtable" fraction
EndChar
StartChar: zero
Encoding: 48 48 414
Width: 560
Flags: MW
HStem: -10 67<214 344.5 214 368.5> 604 67<228.5 332>
VStem: 46 78<249.5 429.5 249.5 458> 435 78<244 429>
LayerCount: 2
Back
Fore
SplineSet
279 671 m 0
 425 671 513 596 513 321 c 0
 513 120 457 -10 280 -10 c 0
 105 -10 46 118 46 320 c 0
 46 596 137 671 279 671 c 0
280 604 m 0
 177 604 124 540 124 319 c 0
 124 180 148 57 280 57 c 0
 409 57 435 168 435 320 c 0
 435 538 384 604 280 604 c 0
EndSplineSet
Substitution2: "'frac' Diagonal Fractions in Latin lookup 1 subtable" zerosuperior
EndChar
StartChar: one
Encoding: 49 49 415
Width: 560
Flags: MW
HStem: 0 21G<311 388 311 311>
VStem: 311 77<0 571 571 571>
LayerCount: 2
Back
Fore
SplineSet
110 521 m 1
 318 661 l 1
 388 661 l 1
 388 0 l 1
 311 0 l 1
 311 571 l 1
 146 461 l 1
 110 521 l 1
EndSplineSet
Substitution2: "'frac' Diagonal Fractions in Latin lookup 1 subtable" onesuperior
EndChar
StartChar: two
Encoding: 50 50 444
Width: 560
Flags: MW
HStem: 0 67<158 492 158 492> 604 67<226.5 303>
VStem: 397 78<447.5 529>
LayerCount: 2
Back
Fore
SplineSet
492 0 m 1
 69 0 l 1
 69 63 l 1
 266 268 l 2
 352 358 397 409 397 486 c 0
 397 572 347 604 259 604 c 0
 191 604 79 582 79 582 c 1
 73 643 l 1
 73 643 183 671 270 671 c 0
 394 671 475 622 475 494 c 0
 475 391 422 329 338 247 c 2
 158 67 l 1
 492 67 l 1
 492 0 l 1
EndSplineSet
Substitution2: "'frac' Diagonal Fractions in Latin lookup 1 subtable" twosuperior
EndChar
StartChar: three
Encoding: 51 51 416
Width: 560
Flags: MW
HStem: -10 67<230 317 220.5 348.5> 309 64 604 67<223 310.5>
VStem: 396 78<462.5 531.5> 412 78<143.5 231.5>
LayerCount: 2
Back
Fore
SplineSet
79 586 m 1xe8
 74 644 l 1
 74 644 180 671 266 671 c 0
 412 671 474 616 474 499 c 0xf0
 474 426 442 381 377 351 c 1
 444 327 490 296 490 189 c 0
 490 56 418 -10 279 -10 c 0
 181 -10 64 16 64 16 c 1
 73 75 l 1
 73 75 170 57 271 57 c 0
 363 57 412 101 412 186 c 0xe8
 412 277 353 306 279 309 c 2
 149 309 l 1
 149 371 l 1
 278 375 l 2
 328 376 396 419 396 491 c 0xf0
 396 572 358 604 263 604 c 0
 177 604 79 586 79 586 c 1xe8
EndSplineSet
Substitution2: "'frac' Diagonal Fractions in Latin lookup 1 subtable" threesuperior
EndChar
StartChar: four
Encoding: 52 52 445
Width: 560
Flags: MW
HStem: -2 192<124 358 124 434> 124 66<124 358 124 358 434 513>
VStem: 358 76<-2 124 -2 124 190 406>
LayerCount: 2
Back
Fore
SplineSet
358 -2 m 1xa0
 358 124 l 1
 47 124 l 1
 47 182 l 1
 244 661 l 1
 326 661 l 1
 124 190 l 1
 358 190 l 1
 358 406 l 1
 434 406 l 1
 434 190 l 1
 513 190 l 1
 513 124 l 1
 434 124 l 1x60
 434 -2 l 1
 358 -2 l 1xa0
EndSplineSet
Substitution2: "'frac' Diagonal Fractions in Latin lookup 1 subtable" foursuperior
EndChar
StartChar: five
Encoding: 53 53 446
Width: 560
Flags: MW
HStem: -9 67<232.5 317.5 228.5 344> 347 67<258.5 323> 593 68<159 473 159 159>
VStem: 86 64 422 78<164 265>
LayerCount: 2
Back
Fore
SplineSet
96 661 m 1
 473 661 l 1
 473 593 l 1
 159 593 l 1
 141 373 l 1
 141 373 223 414 294 414 c 0
 414 414 500 364 500 218 c 0
 500 64 410 -9 278 -9 c 0
 187 -9 66 21 66 21 c 1
 75 81 l 1
 75 81 182 58 275 58 c 0
 360 58 422 113 422 215 c 0
 422 315 362 347 284 347 c 0
 207 347 129 306 129 306 c 1
 76 317 l 1
 96 661 l 1
EndSplineSet
Substitution2: "'frac' Diagonal Fractions in Latin lookup 1 subtable" fivesuperior
EndChar
StartChar: six
Encoding: 54 54 213
Width: 560
Flags: MW
HStem: -10 67<238.5 338 238.5 362.5> 345 67<261.5 336> 604 67<254 345 234.5 347>
VStem: 54 78<221.5 294.5 221.5 370 221.5 445> 436 78<159.5 257>
LayerCount: 2
Back
Fore
SplineSet
486 651 m 1
 478 588 l 1
 478 588 386 604 308 604 c 0
 200 604 141 532 132 370 c 1
 132 370 227 412 296 412 c 0
 431 412 514 350 514 211 c 0
 514 64 433 -10 292 -10 c 0
 132 -10 54 105 54 307 c 0
 54 583 161 671 308 671 c 0
 382 671 486 651 486 651 c 1
290 345 m 0
 218 345 133 307 133 307 c 2
 132 303 132 297 132 292 c 0
 132 151 185 57 292 57 c 0
 384 57 436 108 436 211 c 0
 436 303 382 345 290 345 c 0
EndSplineSet
Substitution2: "'frac' Diagonal Fractions in Latin lookup 1 subtable" sixsuperior
EndChar
StartChar: seven
Encoding: 55 55 417
Width: 560
Flags: MW
HStem: 594 67<82 481 82 404>
VStem: 404 77<558 594 594 594>
LayerCount: 2
Back
Fore
SplineSet
82 594 m 1
 82 661 l 1
 481 661 l 1
 481 552 l 1
 231 -13 l 1
 160 10 l 1
 404 558 l 1
 404 594 l 1
 82 594 l 1
EndSplineSet
Substitution2: "'frac' Diagonal Fractions in Latin lookup 1 subtable" sevensuperior
EndChar
StartChar: eight
Encoding: 56 56 418
Width: 560
Flags: MW
HStem: -11 67<231 327 231 346.5> 308 65<225 326 225 326> 604 67<231 327.5>
VStem: 35 78<135.5 218 135.5 221.5> 46 78<460.5 530.5 460.5 557> 436 78<459.5 529.5> 446 78<138.5 225.5>
LayerCount: 2
Back
Fore
SplineSet
278 671 m 0xec
 418 671 514 615 514 499 c 0xf4
 514 414 479 379 403 345 c 1
 474 317 524 274 524 183 c 0
 524 38 415 -11 278 -11 c 0
 145 -11 35 35 35 172 c 0xf2
 35 271 86 312 150 345 c 1
 81 379 46 418 46 500 c 0
 46 614 138 671 278 671 c 0xec
278 56 m 0xf2
 376 56 446 90 446 187 c 0
 446 264 392 289 326 308 c 1
 225 308 l 1
 157 289 113 255 113 181 c 0
 113 90 184 56 278 56 c 0xf2
279 604 m 0xec
 183 604 124 570 124 491 c 0
 124 430 160 396 225 373 c 1
 326 373 l 1
 394 395 436 429 436 490 c 0
 436 569 376 604 279 604 c 0xec
EndSplineSet
Substitution2: "'frac' Diagonal Fractions in Latin lookup 1 subtable" eightsuperior
EndChar
StartChar: nine
Encoding: 57 57 214
Width: 560
Flags: MW
HStem: -10 21G -10 71<212 305.5 210 325.5> 249 69<220 290> 600 71<227.5 323.5>
VStem: 45 80<408.5 500.5 408.5 523.5> 426 78<350 350>
LayerCount: 2
Back
Fore
SplineSet
70 11 m 1xbc
 78 78 l 1
 78 78 171 61 249 61 c 0
 362 61 424 133 425 285 c 1
 425 285 323 249 257 249 c 0
 129 249 45 316 45 455 c 0
 45 592 142 671 270 671 c 0
 425 671 504 551 504 328 c 0
 504 72 402 -10 249 -10 c 0x7c
 175 -10 70 11 70 11 c 1xbc
263 318 m 0
 328 318 426 350 426 350 c 1
 425 502 377 600 270 600 c 0
 185 600 125 546 125 455 c 0
 125 362 177 318 263 318 c 0
EndSplineSet
Substitution2: "'frac' Diagonal Fractions in Latin lookup 1 subtable" ninesuperior
EndChar
StartChar: colon
Encoding: 58 58 235
Width: 201
Flags: MW
HStem: 0 111<63 139 63 139> 327 111<63 139 63 139>
VStem: 63 76<0 111 0 111 327 438>
LayerCount: 2
Back
Fore
SplineSet
63 327 m 1
 63 438 l 1
 139 438 l 1
 139 327 l 1
 63 327 l 1
63 0 m 1
 63 111 l 1
 139 111 l 1
 139 0 l 1
 63 0 l 1
EndSplineSet
EndChar
StartChar: semicolon
Encoding: 59 59 236
Width: 230
Flags: MW
HStem: 327 111<84 160 84 160>
VStem: 84 76<327 438 327 438>
LayerCount: 2
Back
Fore
SplineSet
44 -130 m 1
 104 -130 l 1
 162 111 l 1
 82 111 l 1
 44 -130 l 1
84 327 m 1
 84 438 l 1
 160 438 l 1
 160 327 l 1
 84 327 l 1
EndSplineSet
EndChar
StartChar: less
Encoding: 60 60 216
Width: 560
Flags: MW
HStem: 13 474<478 478>
VStem: 61 417<13 284 13 284>
LayerCount: 2
Back
Fore
SplineSet
478 409 m 1
 139 252 l 1
 478 92 l 1
 478 13 l 1
 61 218 l 1
 61 284 l 1
 478 487 l 1
 478 409 l 1
EndSplineSet
EndChar
StartChar: equal
Encoding: 61 61 237
Width: 560
Flags: MW
HStem: 124 69<64 496 64 496> 309 69<64 496 64 496>
VStem: 64 432<124 193 124 193 309 378 124 378>
LayerCount: 2
Back
Fore
SplineSet
64 309 m 1
 64 378 l 1
 496 378 l 1
 496 309 l 1
 64 309 l 1
64 124 m 1
 64 193 l 1
 496 193 l 1
 496 124 l 1
 64 124 l 1
EndSplineSet
EndChar
StartChar: greater
Encoding: 62 62 217
Width: 560
Flags: MW
HStem: 13 474<82 82>
VStem: 82 417<13 284 92 284 218 487 218 487>
LayerCount: 2
Back
Fore
SplineSet
421 252 m 1
 82 409 l 1
 82 487 l 1
 499 284 l 1
 499 218 l 1
 82 13 l 1
 82 92 l 1
 421 252 l 1
EndSplineSet
EndChar
StartChar: question
Encoding: 63 63 238
Width: 409
Flags: MW
HStem: 1 116<132 210 132 210> 634 68<156 220>
VStem: 132 78<1 117 1 117> 295 79<512.5 574>
LayerCount: 2
Back
Fore
SplineSet
374 534 m 0
 374 471 349 433 269 344 c 0
 232 303 210 272 210 236 c 2
 210 196 l 1
 138 196 l 1
 138 196 133 225 133 247 c 0
 133 302 159 332 216 397 c 0
 275 465 295 491 295 534 c 0
 295 614 260 634 180 634 c 0
 125 634 39 614 39 614 c 1
 30 675 l 1
 30 675 126 702 186 702 c 0
 313 702 374 659 374 534 c 0
132 1 m 1
 132 117 l 1
 210 117 l 1
 210 1 l 1
 132 1 l 1
EndSplineSet
EndChar
StartChar: at
Encoding: 64 64 151
Width: 921
Flags: MW
HStem: -203 64<337 490 337 493.5> -5 64<398 464.5 684.5 735.5> 441 64<411 478.5> 651 64<349.5 610>
VStem: 45 71<127 402.5 127 425> 263 77<189.5 300.5 189.5 319.5> 569 75<164 431 431 431> 813 70<195 400>
LayerCount: 2
Back
Fore
SplineSet
475 715 m 0
 783 715 883 573 883 265 c 0
 883 125 846 -5 707 -5 c 0
 633 -5 597 18 581 93 c 1
 566 67 504 -5 425 -5 c 0
 307 -5 263 85 263 240 c 0
 263 399 302 505 463 505 c 0
 520 505 644 488 644 488 c 1
 644 131 l 2
 644 81 662 59 707 59 c 0
 764 59 813 98 813 265 c 0
 813 535 745 651 475 651 c 0
 224 651 116 544 116 261 c 0
 116 -7 203 -139 471 -139 c 0
 509 -139 606 -129 606 -129 c 1
 608 -194 l 1
 608 -194 516 -203 471 -203 c 0
 159 -203 45 -51 45 261 c 0
 45 589 181 715 475 715 c 0
438 59 m 0
 514 59 569 164 569 164 c 1
 569 431 l 2
 567 431 491 441 466 441 c 0
 356 441 340 354 340 247 c 0
 340 132 358 59 438 59 c 0
EndSplineSet
EndChar
StartChar: B
Encoding: 66 66 28
Width: 570
Flags: MW
HStem: 0 67<153 311 311 312> 320 66<153 307 307 308 153 307> 625 67<153 306 153 153>
VStem: 77 76<67 320 67 386 386 625> 424 79<475.5 551> 443 80<155 239 127.5 242.5>
LayerCount: 2
Back
Fore
SplineSet
77 692 m 1xf4
 306 692 l 2
 428 692 503 642 503 519 c 0xf8
 503 429 470 384 415 359 c 1
 493 330 523 281 523 197 c 0
 523 58 450 0 312 0 c 2
 77 0 l 1
 77 692 l 1xf4
308 320 m 2
 153 320 l 1
 153 67 l 1
 311 67 l 2
 402 67 443 109 443 201 c 0xf4
 443 284 398 320 308 320 c 2
306 625 m 2
 153 625 l 1
 153 386 l 1
 307 386 l 2
 389 386 424 439 424 512 c 0xf8
 424 590 384 625 306 625 c 2
EndSplineSet
Position2: "'cpsp' Capital Spacing in Latin lookup 0 subtable" dx=5 dy=0 dh=10 dv=0
EndChar
StartChar: D
Encoding: 68 68 35
Width: 599
Flags: MW
HStem: 0 68<153 306 153 306> 624 68<153 306 153 153>
VStem: 77 76<68 624 68 692 68 692> 466 80<268.5 448.5>
LayerCount: 2
Back
Fore
SplineSet
306 0 m 2
 77 0 l 1
 77 692 l 1
 306 692 l 2
 489 692 546 589 546 359 c 0
 546 122 494 0 306 0 c 2
466 359 m 0
 466 538 438 624 306 624 c 2
 153 624 l 1
 153 68 l 1
 306 68 l 2
 438 68 466 178 466 359 c 0
EndSplineSet
Position2: "'cpsp' Capital Spacing in Latin lookup 0 subtable" dx=5 dy=0 dh=10 dv=0
EndChar
StartChar: F
Encoding: 70 70 48
Width: 487
Flags: MW
HStem: 0 21G<77 77 77 153> 284 67<153 409 153 409> 624 68<153 465 153 153>
VStem: 77 76<0 284 351 624>
LayerCount: 2
Back
Fore
SplineSet
77 0 m 1
 77 692 l 1
 465 692 l 1
 465 624 l 1
 153 624 l 1
 153 351 l 1
 409 351 l 1
 409 284 l 1
 153 284 l 1
 153 0 l 1
 77 0 l 1
EndSplineSet
Position2: "'cpsp' Capital Spacing in Latin lookup 0 subtable" dx=5 dy=0 dh=10 dv=0
EndChar
StartChar: H
Encoding: 72 72 54
Width: 620
Flags: MW
HStem: 0 21G<77 153 77 77 466 543 466 466> 316 67<153 466 153 466>
VStem: 77 76<0 316 0 383 383 692> 466 77<0 316 316 316 383 692 0 692>
LayerCount: 2
Back
Fore
SplineSet
466 0 m 1
 466 316 l 1
 153 316 l 1
 153 0 l 1
 77 0 l 1
 77 692 l 1
 153 692 l 1
 153 383 l 1
 466 383 l 1
 466 692 l 1
 543 692 l 1
 543 0 l 1
 466 0 l 1
EndSplineSet
Position2: "'cpsp' Capital Spacing in Latin lookup 0 subtable" dx=5 dy=0 dh=10 dv=0
EndChar
StartChar: I
Encoding: 73 73 57
Width: 230
Flags: MW
HStem: 0 21G<77 77 77 153>
VStem: 77 76<0 692 0 692>
LayerCount: 2
Back
Fore
SplineSet
77 0 m 1
 77 692 l 1
 153 692 l 1
 153 0 l 1
 77 0 l 1
EndSplineSet
Position2: "'cpsp' Capital Spacing in Latin lookup 0 subtable" dx=5 dy=0 dh=10 dv=0
EndChar
StartChar: J
Encoding: 74 74 67
Width: 268
Flags: MW
HStem: -70 68<17 65 17 96>
VStem: 118 77<44 692>
LayerCount: 2
Back
Fore
SplineSet
194 692 m 1
 195 114 l 2
 195 -26 175 -70 17 -70 c 1
 17 -2 l 1
 113 -2 118 28 118 120 c 2
 118 692 l 1
 194 692 l 1
EndSplineSet
Position2: "'cpsp' Capital Spacing in Latin lookup 0 subtable" dx=5 dy=0 dh=10 dv=0
EndChar
StartChar: K
Encoding: 75 75 69
Width: 525
Flags: MW
HStem: 0 21G<77 153 77 77 425 511 425 425> 306.5 67.5
VStem: 77 76<0 305 0 372 372 692>
LayerCount: 2
Back
Fore
SplineSet
425 0 m 1
 248 308 l 1
 153 305 l 1
 153 0 l 1
 77 0 l 1
 77 692 l 1
 153 692 l 1
 153 372 l 1
 247 376 l 1
 414 692 l 1
 500 692 l 1
 313 350 l 1
 511 0 l 1
 425 0 l 1
EndSplineSet
Position2: "'cpsp' Capital Spacing in Latin lookup 0 subtable" dx=5 dy=0 dh=10 dv=0
EndChar
StartChar: M
Encoding: 77 77 76
Width: 776
Flags: MW
HStem: 0 21G<77 77 77 149 626 626 626 699> 25 73<388 388 388 435 340 388> 624 68<149 164 149 149 612 626 612 612>
VStem: 77 72<0 624 0 692 0 692> 626 73<0 624 624 624>
LayerCount: 2
Back
Fore
SplineSet
77 0 m 1
 77 692 l 1
 212 692 l 1
 388 98 l 1x78
 565 692 l 1
 699 692 l 1
 699 0 l 1
 626 0 l 1xb8
 626 624 l 1
 612 624 l 1
 435 25 l 1
 340 25 l 1x78
 164 624 l 1
 149 624 l 1
 149 0 l 1
 77 0 l 1
EndSplineSet
Position2: "'cpsp' Capital Spacing in Latin lookup 0 subtable" dx=5 dy=0 dh=10 dv=0
EndChar
StartChar: P
Encoding: 80 80 94
Width: 548
Flags: MW
HStem: 0 21G<77 153 77 77> 228 69<153 292 292 296 153 292> 624 68<153 292 153 153>
VStem: 77 76<0 228 297 624> 436 80<406.5 528.5>
LayerCount: 2
Back
Fore
SplineSet
296 228 m 2
 153 228 l 1
 153 0 l 1
 77 0 l 1
 77 692 l 1
 296 692 l 2
 441 692 516 629 516 468 c 0
 516 299 435 228 296 228 c 2
153 297 m 1
 292 297 l 2
 386 297 436 343 436 470 c 0
 436 587 386 624 292 624 c 2
 153 624 l 1
 153 297 l 1
EndSplineSet
Position2: "'cpsp' Capital Spacing in Latin lookup 0 subtable" dx=5 dy=0 dh=10 dv=0
EndChar
StartChar: R
Encoding: 82 82 96
Width: 566
Flags: MW
HStem: 0 21G<77 153 77 77 447 530 447 447> 265 67<153 305 305 323 153 305> 625 67<153 305 153 153>
VStem: 77 76<0 265 0 332 332 625> 434 79<431.5 530>
LayerCount: 2
Back
Fore
SplineSet
447 0 m 1
 323 265 l 1
 153 265 l 1
 153 0 l 1
 77 0 l 1
 77 692 l 1
 305 692 l 2
 441 692 513 627 513 482 c 0
 513 355 463 303 398 280 c 1
 530 0 l 1
 447 0 l 1
434 482 m 0
 434 578 394 625 305 625 c 2
 153 625 l 1
 153 332 l 1
 305 332 l 2
 394 332 434 381 434 482 c 0
EndSplineSet
Position2: "'cpsp' Capital Spacing in Latin lookup 0 subtable" dx=5 dy=0 dh=10 dv=0
EndChar
StartChar: T
Encoding: 84 84 106
Width: 471
Flags: MW
HStem: 0 21G<199 276 199 199> 624 68<12 459 12 199 276 276 276 459>
VStem: 199 77<0 624 0 624>
LayerCount: 2
Back
Fore
SplineSet
12 624 m 1
 12 692 l 1
 459 692 l 1
 459 624 l 1
 276 624 l 1
 276 0 l 1
 199 0 l 1
 199 624 l 1
 12 624 l 1
EndSplineSet
Position2: "'cpsp' Capital Spacing in Latin lookup 0 subtable" dx=5 dy=0 dh=10 dv=0
EndChar
StartChar: V
Encoding: 86 86 121
Width: 543
Flags: MW
HStem: 0 68<250 294 250 352 191 294>
VStem: 22 498<692 692>
LayerCount: 2
Back
Fore
SplineSet
443 692 m 1
 520 692 l 1
 352 0 l 1
 191 0 l 1
 22 692 l 1
 99 692 l 1
 250 68 l 1
 294 68 l 1
 443 692 l 1
EndSplineSet
Position2: "'cpsp' Capital Spacing in Latin lookup 0 subtable" dx=5 dy=0 dh=10 dv=0
EndChar
StartChar: W
Encoding: 87 87 122
Width: 831
Flags: MW
HStem: 0 71<223 249 223 301 166 249 583 609>
VStem: 30 770<692 692>
LayerCount: 2
Back
Fore
SplineSet
30 692 m 1
 104 692 l 1
 223 71 l 1
 249 71 l 1
 373 682 l 1
 456 682 l 1
 583 71 l 1
 609 71 l 1
 725 692 l 1
 800 692 l 1
 666 0 l 1
 530 0 l 1
 414 583 l 1
 301 0 l 1
 166 0 l 1
 30 692 l 1
EndSplineSet
Position2: "'cpsp' Capital Spacing in Latin lookup 0 subtable" dx=5 dy=0 dh=10 dv=0
EndChar
StartChar: X
Encoding: 88 88 127
Width: 518
Flags: MW
HStem: 0 21G<16 99 16 16 418 502 418 418>
VStem: 16 486<0 0>
LayerCount: 2
Back
Fore
SplineSet
102 692 m 1
 259 403 l 1
 416 692 l 1
 499 692 l 1
 307 345 l 1
 502 0 l 1
 418 0 l 1
 260 289 l 1
 99 0 l 1
 16 0 l 1
 214 344 l 1
 18 692 l 1
 102 692 l 1
EndSplineSet
Position2: "'cpsp' Capital Spacing in Latin lookup 0 subtable" dx=5 dy=0 dh=10 dv=0
EndChar
StartChar: Z
Encoding: 90 90 133
Width: 495
Flags: MW
HStem: -1 68<125 455 125 455> 624 68<40 455 40 369>
VStem: 40 85<67 91 67 95 67 95> 369 86<599 624 624 624>
LayerCount: 2
Back
Fore
SplineSet
40 624 m 1
 40 692 l 1
 455 692 l 1
 455 596 l 1
 125 91 l 1
 125 67 l 1
 455 67 l 1
 455 -1 l 1
 40 -1 l 1
 40 95 l 1
 369 599 l 1
 369 624 l 1
 40 624 l 1
EndSplineSet
Position2: "'cpsp' Capital Spacing in Latin lookup 0 subtable" dx=5 dy=0 dh=10 dv=0
EndChar
StartChar: bracketleft
Encoding: 91 91 218
Width: 308
Flags: MW
HStem: -122 65<144 270 144 270> 682 65<144 270 144 144>
VStem: 72 72<-57 682 -57 747 -57 747>
LayerCount: 2
Back
Fore
SplineSet
72 747 m 1
 270 747 l 1
 270 682 l 1
 144 682 l 1
 144 -57 l 1
 270 -57 l 1
 270 -122 l 1
 72 -122 l 1
 72 747 l 1
EndSplineSet
Substitution2: "'case' Case-Sensitive Forms in Latin lookup 4 subtable" bracketleft.cap
EndChar
StartChar: backslash
Encoding: 92 92 219
Width: 451
Flags: MW
HStem: 693 21G<29 29>
VStem: 29 392
LayerCount: 2
Back
Fore
SplineSet
421 -16 m 1
 345 -24 l 1
 29 693 l 1
 106 701 l 1
 421 -16 l 1
EndSplineSet
EndChar
StartChar: bracketright
Encoding: 93 93 220
Width: 308
Flags: MW
HStem: -122 65<38 164 38 236 38 164> 682 65<38 164 38 236>
VStem: 164 72<-57 682 682 682>
LayerCount: 2
Back
Fore
SplineSet
236 -122 m 1
 38 -122 l 1
 38 -57 l 1
 164 -57 l 1
 164 682 l 1
 38 682 l 1
 38 747 l 1
 236 747 l 1
 236 -122 l 1
EndSplineSet
Substitution2: "'case' Case-Sensitive Forms in Latin lookup 4 subtable" bracketright.cap
EndChar
StartChar: asciicircum
Encoding: 94 94 254
Width: 560
Flags: MW
HStem: 319 341<53 306 53 306 238 497 238 417>
VStem: 53 444<319 319>
LayerCount: 2
Back
Fore
SplineSet
417 319 m 1
 273 586 l 1
 133 319 l 1
 53 319 l 1
 238 660 l 1
 306 660 l 1
 497 319 l 1
 417 319 l 1
EndSplineSet
EndChar
StartChar: underscore
Encoding: 95 95 239
Width: 627
Flags: MW
HStem: -152 73<90 538 90 538>
VStem: 90 448<-152 -79 -152 -79>
LayerCount: 2
Back
Fore
SplineSet
90 -79 m 1
 538 -79 l 1
 538 -152 l 1
 90 -152 l 1
 90 -79 l 1
EndSplineSet
EndChar
StartChar: grave
Encoding: 96 96 11
Width: 518
Flags: MW
HStem: 599 148
VStem: 121 229<653 685>
LayerCount: 2
Back
Fore
SplineSet
144 747 m 1
 350 653 l 1
 330 599 l 1
 121 685 l 1
 144 747 l 1
EndSplineSet
EndChar
StartChar: b
Encoding: 98 98 386
Width: 494
Flags: MW
HStem: -10 65<228 292 228 312.5> 445 65<245.5 310.5> 698 20G<66 141 141 141>
VStem: 66 75<62 374 440 718> 371 76<191.5 314>
LayerCount: 2
Back
Fore
SplineSet
284 510 m 0
 410 510 447 415 447 260 c 0
 447 74 388 -10 237 -10 c 0
 177 -10 66 1 66 1 c 1
 66 718 l 1
 141 718 l 1
 141 440 l 1
 141 440 207 510 284 510 c 0
240 55 m 0
 344 55 371 123 371 260 c 0
 371 368 350 445 271 445 c 0
 202 445 141 374 141 374 c 1
 141 62 l 1
 141 62 216 55 240 55 c 0
EndSplineSet
EndChar
StartChar: c
Encoding: 99 99 387
Width: 399
Flags: MW
HStem: -10 65<198 265.5> 444 66<204.5 266.5 173 274>
VStem: 46 77<194.5 320 194.5 344.5>
LayerCount: 2
Back
Fore
SplineSet
241 510 m 0
 292 510 362 495 362 495 c 1
 359 435 l 1
 359 435 292 444 256 444 c 0
 153 444 123 383 123 257 c 0
 123 132 140 55 256 55 c 0
 292 55 359 63 359 63 c 1
 362 4 l 1
 362 4 291 -10 240 -10 c 0
 82 -10 46 87 46 257 c 0
 46 432 105 510 241 510 c 0
EndSplineSet
EndChar
StartChar: f
Encoding: 102 102 389
Width: 310
Flags: MW
HStem: -222 21G<86 154 86 86> 435 65<29 86 29 86 161 292> 663 21G<200 240.5> 698 20G<301 301> 708 20G<168.5 229>
VStem: 86 75<0 435 0 435 0 435 500 542>
LayerCount: 2
Back
Fore
SplineSet
161 435 m 1xec
 161 0 l 1
 154 -222 l 1
 86 -222 l 1
 86 435 l 1
 29 435 l 1
 29 500 l 1
 86 500 l 1
 86 543 l 2
 86 677 124 728 213 728 c 0xec
 245 728 301 718 301 718 c 1xf4
 300 656 l 1
 300 656 255 663 226 663 c 0
 174 663 161 624 161 542 c 2
 161 500 l 1
 292 500 l 1
 292 435 l 1
 161 435 l 1xec
EndSplineSet
EndChar
StartChar: i
Encoding: 105 105 390
Width: 207
Flags: MW
HStem: 0 21G<66 66 66 141> 480 20G<66 141 141 141> 605 89<65 142 65 142>
VStem: 66 75<0 500 0 500>
LayerCount: 2
Back
Fore
SplineSet
66 0 m 1
 66 500 l 1
 141 500 l 1
 141 0 l 1
 66 0 l 1
65 605 m 1
 65 694 l 1
 142 694 l 1
 142 605 l 1
 65 605 l 1
EndSplineSet
EndChar
StartChar: j
Encoding: 106 106 391
Width: 207
Flags: MW
HStem: -235 21G<-17 -17> 480 20G<66 141 141 141> 605 90<66 142 66 142>
VStem: 66 75<0 500>
LayerCount: 2
Back
Fore
SplineSet
66 0 m 2
 66 500 l 1
 141 500 l 1
 141 0 l 2
 141 -132 128 -157 -17 -235 c 1
 -46 -177 l 1
 62 -111 66 -96 66 0 c 2
66 605 m 1
 66 695 l 1
 142 695 l 1
 142 605 l 1
 66 605 l 1
EndSplineSet
EndChar
StartChar: k
Encoding: 107 107 392
Width: 453
Flags: MW
HStem: 0 21G<66 141 66 66 350 350 350 434> 231 64.5 480 20G<347 431 431 431> 698 20G<66 141 141 141>
VStem: 66 75<0 229 294 718>
LayerCount: 2
Back
Fore
SplineSet
141 0 m 1
 66 0 l 1
 66 718 l 1
 141 718 l 1
 141 294 l 1
 205 297 l 1
 347 500 l 1
 431 500 l 1
 268 270 l 1
 434 0 l 1
 350 0 l 1
 206 233 l 1
 141 229 l 1
 141 0 l 1
EndSplineSet
EndChar
StartChar: m
Encoding: 109 109 394
Width: 778
Flags: MW
HStem: 0 21G<66 141 66 66 359 434 359 359 642 642 642 716> 445 65<244.5 300.5 521.5 582.5> 480 20G<66 140 140 140>
VStem: 66 75<0 352 0 425 0 500> 359 75<0 284 284 294> 642 74<0 290 290 300 0 343.5>
LayerCount: 2
Back
Fore
SplineSet
434 0 m 1xdc
 359 0 l 1
 359 284 l 2
 359 398 332 445 269 445 c 0
 206 445 141 352 141 352 c 1xdc
 141 0 l 1
 66 0 l 1
 66 500 l 1
 140 500 l 1xbc
 141 425 l 1
 141 425 205 510 284 510 c 0
 387 510 413 424 413 424 c 1
 413 424 480 510 563 510 c 0
 671 510 716 433 716 300 c 2
 716 0 l 1
 642 0 l 1
 642 290 l 2
 642 397 617 445 548 445 c 0
 482 445 430 366 430 366 c 1
 430 366 434 332 434 294 c 2
 434 0 l 1xdc
EndSplineSet
EndChar
StartChar: n
Encoding: 110 110 149
Width: 501
Flags: MW
HStem: 0 21G<66 141 66 66 365 365 365 439> 445 65<244 305> 480 20G<66 140 140 140>
VStem: 66 75<0 352> 365 74<0 290 290 311 0 343.5>
LayerCount: 2
Back
Fore
SplineSet
141 0 m 1xd8
 66 0 l 1
 66 500 l 1
 140 500 l 1xb8
 141 425 l 1
 141 425 202 510 286 510 c 0
 395 510 439 433 439 311 c 2
 439 0 l 1
 365 0 l 1
 365 290 l 2
 365 397 339 445 271 445 c 0
 204 445 141 352 141 352 c 1
 141 0 l 1xd8
EndSplineSet
EndChar
StartChar: p
Encoding: 112 112 395
Width: 492
Flags: MW
HStem: -222 21G<66 66 66 141> -10 65<224.5 292 219.5 322> 445 65<238.5 312.5> 480 20G<66 140 140 140>
VStem: 66 75<-222 3 -222 65 65 350> 370 76<191 308.5>
LayerCount: 2
Back
Fore
SplineSet
66 -222 m 1xec
 66 500 l 1
 140 500 l 1xdc
 141 426 l 1
 141 426 197 510 280 510 c 0
 410 510 446 412 446 256 c 0
 446 85 395 -10 249 -10 c 0
 200 -10 141 3 141 3 c 1
 141 -222 l 1
 66 -222 l 1xec
271 445 m 0xec
 198 445 141 350 141 350 c 1
 141 65 l 1
 141 65 197 55 242 55 c 0
 342 55 370 126 370 256 c 0
 370 361 354 445 271 445 c 0xec
EndSplineSet
EndChar
StartChar: q
Encoding: 113 113 396
Width: 492
Flags: MW
HStem: -10 65<183.5 254> 445 65<208.5 272.5>
VStem: 47 76<185 317.5 185 332.5> 352 74<-216 71 71 71 148 435 435 435>
LayerCount: 2
Back
Fore
SplineSet
209 -10 m 0
 81 -10 47 100 47 243 c 0
 47 422 101 510 250 510 c 0
 303 510 426 493 426 493 c 1
 426 -216 l 1
 352 -216 l 1
 352 71 l 1
 352 71 299 -10 209 -10 c 0
258 445 m 0
 159 445 123 392 123 243 c 0
 123 127 142 55 225 55 c 0
 293 55 352 148 352 148 c 1
 352 435 l 1
 352 435 287 445 258 445 c 0
EndSplineSet
EndChar
StartChar: t
Encoding: 116 116 398
Width: 324
Flags: MW
HStem: -10 65<205 237> 435 65<25 90 25 90 164 305>
VStem: 90 74<141 145 145 435 500 648>
LayerCount: 2
Back
Fore
SplineSet
305 435 m 1
 164 435 l 1
 164 145 l 2
 164 89 181 55 229 55 c 0
 259 55 308 61 308 61 c 1
 312 2 l 1
 312 2 254 -10 220 -10 c 0
 119 -10 90 46 90 141 c 2
 90 435 l 1
 25 435 l 1
 25 500 l 1
 90 500 l 1
 90 648 l 1
 164 648 l 1
 164 500 l 1
 305 500 l 1
 305 435 l 1
EndSplineSet
EndChar
StartChar: v
Encoding: 118 118 400
Width: 447
Flags: MW
HStem: 0 64<208 239 208 292 155 239> 480 20G<22 98 98 98 349 425 425 425>
VStem: 22 403<500 500>
LayerCount: 2
Back
Fore
SplineSet
22 500 m 1
 98 500 l 1
 208 64 l 1
 239 64 l 1
 349 500 l 1
 425 500 l 1
 292 0 l 1
 155 0 l 1
 22 500 l 1
EndSplineSet
EndChar
StartChar: x
Encoding: 120 120 402
Width: 417
Flags: MW
HStem: 0 21G<21 97 21 21 319 396 319 319> 480 20G<21 99 99 99 320 396 396 396>
VStem: 21 375<0 0>
LayerCount: 2
Back
Fore
SplineSet
21 500 m 1
 99 500 l 1
 210 303 l 1
 320 500 l 1
 396 500 l 1
 250 249 l 1
 396 0 l 1
 319 0 l 1
 208 194 l 1
 97 0 l 1
 21 0 l 1
 167 248 l 1
 21 500 l 1
EndSplineSet
EndChar
StartChar: z
Encoding: 122 122 404
Width: 421
Flags: MW
HStem: 0 65<122 383 122 383> 435 65<38 383 38 299>
VStem: 38 345<0 64 64 64 437 500>
LayerCount: 2
Back
Fore
SplineSet
38 435 m 1
 38 500 l 1
 383 500 l 1
 383 437 l 1
 122 65 l 1
 383 65 l 1
 383 0 l 1
 38 0 l 1
 38 64 l 1
 299 435 l 1
 38 435 l 1
EndSplineSet
EndChar
StartChar: braceleft
Encoding: 123 123 240
Width: 332
Flags: MW
HStem: -127 68<293 294> 685 68<293 294>
VStem: 111 75<2 53.5 2 53.5 572.5 615.5> 118 75<161.5 210.5 411.5 459>
LayerCount: 2
Back
Fore
SplineSet
193 177 m 0xe0
 193 146 186 71 186 36 c 0
 186 -32 233 -58 294 -59 c 1
 293 -127 l 1
 191 -125 111 -84 111 37 c 0xe0
 111 70 118 141 118 172 c 0
 118 249 59 266 24 279 c 1
 24 342 l 1
 62 350 118 378 118 445 c 0xd0
 118 482 111 542 111 576 c 0
 111 699 165 751 293 753 c 1
 294 685 l 1
 206 683 186 651 186 580 c 0xe0
 186 565 193 468 193 450 c 0
 193 365 166 335 104 312 c 1xd0
 164 290 193 248 193 177 c 0xe0
EndSplineSet
Substitution2: "'case' Case-Sensitive Forms in Latin lookup 4 subtable" braceleft.cap
EndChar
StartChar: bar
Encoding: 124 124 221
Width: 217
Flags: MW
HStem: -222 21G<71 71 71 146> 698 20G<71 146 146 146>
VStem: 71 75<-222 718 -222 718>
LayerCount: 2
Back
Fore
SplineSet
71 -222 m 1
 71 718 l 1
 146 718 l 1
 146 -222 l 1
 71 -222 l 1
EndSplineSet
EndChar
StartChar: braceright
Encoding: 125 125 241
Width: 332
Flags: MW
HStem: -128 68<38 39> 684 68<38 39>
VStem: 139 75<166 213.5 161.5 217.5 414.5 463.5> 146 75<9.5 52.5 571.5 623>
LayerCount: 2
Back
Fore
SplineSet
139 448 m 0xd0
 139 479 146 554 146 589 c 0
 146 657 99 683 38 684 c 1
 39 752 l 1
 141 750 221 709 221 588 c 0xd0
 221 555 214 484 214 453 c 0
 214 376 273 359 308 346 c 1
 308 283 l 1
 270 275 214 247 214 180 c 0xe0
 214 143 221 83 221 49 c 0
 221 -74 167 -126 39 -128 c 1
 38 -60 l 1
 126 -58 146 -26 146 45 c 0xd0
 146 60 139 157 139 175 c 0
 139 260 166 290 228 313 c 1xe0
 168 335 139 377 139 448 c 0xd0
EndSplineSet
Substitution2: "'case' Case-Sensitive Forms in Latin lookup 4 subtable" braceright.cap
EndChar
StartChar: asciitilde
Encoding: 126 126 211
Width: 560
Flags: MW
HStem: 195 69<359.5 400.5 359.5 409> 257 68<161.5 202.5>
VStem: 66 428<249 272>
LayerCount: 2
Back
Fore
SplineSet
484 310 m 1xa0
 494 249 l 1
 494 249 436 195 382 195 c 0xa0
 326 195 223 257 182 257 c 0
 141 257 77 210 77 210 c 1
 66 272 l 1
 66 272 129 325 183 325 c 0x60
 239 325 337 264 382 264 c 0
 419 264 484 310 484 310 c 1xa0
EndSplineSet
EndChar
StartChar: exclamdown
Encoding: 161 161 281
Width: 214
Flags: MW
HStem: 389 111<68 144 68 144>
VStem: 70 73
LayerCount: 2
Back
Fore
SplineSet
142 270 m 1
 144 -200 l 1
 68 -200 l 1
 72 270 l 1
 142 270 l 1
144 500 m 1
 144 389 l 1
 68 389 l 1
 68 500 l 1
 144 500 l 1
EndSplineSet
Substitution2: "'case' Case-Sensitive Forms in Latin lookup 4 subtable" exclamdown.cap
EndChar
StartChar: cent
Encoding: 162 162 242
Width: 560
Flags: MW
HStem: 50 57 392 190<278 328>
VStem: 109 76<202.5 299.5 202.5 321.5> 278 62<463 582 461 582>
LayerCount: 2
Back
Fore
SplineSet
278 -80 m 1
 278 37 l 1
 147 40 109 137 109 248 c 0
 109 395 175 456 278 463 c 1
 278 582 l 1
 340 582 l 1
 340 461 l 1
 380 458 435 451 435 451 c 1
 432 384 l 1
 432 384 346 392 310 392 c 0
 217 392 185 351 185 248 c 0
 185 157 205 107 316 107 c 0
 352 107 433 114 433 114 c 1
 436 50 l 1
 436 50 380 42 341 39 c 1
 341 -80 l 1
 278 -80 l 1
EndSplineSet
EndChar
StartChar: sterling
Encoding: 163 163 249
Width: 560
Flags: MW
HStem: 0 65<78 171 248 391 78 171> 356 65<96 171 96 171 248 437> 612 67<285.5 334 251.5 342.5> 662 21G<450 450>
VStem: 171 77<65 356 65 356 421 467>
LayerCount: 2
Back
Fore
SplineSet
450 662 m 1xd8
 448 602 l 1
 448 602 363 612 322 612 c 0
 249 612 248 550 248 467 c 2
 248 421 l 1
 437 421 l 1
 437 356 l 1
 248 356 l 1
 248 65 l 1
 391 65 l 1
 465 81 l 1
 476 18 l 1
 400 0 l 1
 78 0 l 1
 78 65 l 1
 171 65 l 1
 171 356 l 1
 96 356 l 1
 96 421 l 1
 171 421 l 1
 171 472 l 2
 171 596 189 679 314 679 c 0xe8
 354 679 450 662 450 662 c 1xd8
EndSplineSet
EndChar
StartChar: currency
Encoding: 164 164 273
Width: 560
Flags: MW
HStem: 71 71 361 71
VStem: 99 72 390 70
LayerCount: 2
Back
Fore
SplineSet
449 30 m 1
 379 100 l 1
 319 61 241 61 181 100 c 1
 111 30 l 1
 58 83 l 1
 128 153 l 1
 89 213 89 291 128 351 c 1
 58 421 l 1
 111 474 l 1
 181 403 l 1
 241 442 319 442 379 403 c 1
 449 474 l 1
 502 421 l 1
 431 351 l 1
 470 291 470 213 431 153 c 1
 502 83 l 1
 449 30 l 1
202 174 m 0
 245 132 315 132 358 174 c 0
 400 217 400 287 358 330 c 0
 315 372 245 372 202 330 c 0
 160 287 160 217 202 174 c 0
EndSplineSet
EndChar
StartChar: yen
Encoding: 165 165 215
Width: 560
Flags: MW
HStem: 0 21G<243 319 243 243> 159 68<71 243 71 243 319 489> 309 68<71 193 71 193 71 234 368 489>
VStem: 243 76<0 159 0 159 227 294>
LayerCount: 2
Back
Fore
SplineSet
71 309 m 1
 71 377 l 1
 193 377 l 1
 27 661 l 1
 112 661 l 1
 281 373 l 1
 447 661 l 1
 533 661 l 1
 368 377 l 1
 489 377 l 1
 489 309 l 1
 329 309 l 1
 319 294 l 1
 319 227 l 1
 489 227 l 1
 489 159 l 1
 319 159 l 1
 319 0 l 1
 243 0 l 1
 243 159 l 1
 71 159 l 1
 71 227 l 1
 243 227 l 1
 243 294 l 1
 234 309 l 1
 71 309 l 1
EndSplineSet
EndChar
StartChar: brokenbar
Encoding: 166 166 204
Width: 221
Flags: MW
HStem: -222 21G<73 148 73 73> 698 20G<73 148 148 148>
VStem: 73 75<-222 156 -222 156 344 718>
LayerCount: 2
Back
Fore
SplineSet
73 718 m 1
 148 718 l 1
 148 344 l 1
 73 344 l 1
 73 718 l 1
73 156 m 1
 148 156 l 1
 148 -222 l 1
 73 -222 l 1
 73 156 l 1
EndSplineSet
EndChar
StartChar: section
Encoding: 167 167 157
Width: 465
Flags: MW
HStem: -148 68<199 262.5 199 288.5> 581 69<209.5 266.5>
VStem: 46 71<237 284> 57 71<462.5 528 462.5 538> 340 68<-17.5 38 -37 46.5> 343 72<222.5 272.5>
LayerCount: 2
Back
Fore
SplineSet
395 633 m 1xd8
 392 567 l 1
 392 567 289 581 244 581 c 0
 175 581 128 561 128 495 c 0
 128 430 161 415 263 394 c 0
 356 375 415 348 415 249 c 0xd4
 415 196 385 135 375 119 c 1
 400 98 408 56 408 20 c 0
 408 -94 348 -148 229 -148 c 0
 168 -148 63 -132 63 -132 c 1
 70 -66 l 1
 70 -66 173 -80 225 -80 c 0
 300 -80 340 -51 340 16 c 0
 340 77 293 88 204 106 c 0
 101 126 46 156 46 255 c 0xe8
 46 313 89 367 99 379 c 1
 71 405 57 429 57 490 c 0
 57 586 114 650 241 650 c 0
 303 650 395 633 395 633 c 1xd8
245 327 m 0
 213 335 165 344 148 353 c 1
 145 348 117 304 117 266 c 0xe8
 117 208 149 190 223 176 c 0
 265 168 297 160 319 148 c 1
 323 153 343 197 343 240 c 0
 343 305 298 316 245 327 c 0
EndSplineSet
EndChar
StartChar: dieresis
Encoding: 168 168 8
Width: 680
Flags: MW
HStem: 620 93<95 157 95 157 278 338>
VStem: 95 62<620 713 620 713> 278 60<620 713 620 713>
LayerCount: 2
Back
Fore
SplineSet
95 620 m 1
 95 713 l 1
 157 713 l 1
 157 620 l 1
 95 620 l 1
278 620 m 1
 278 713 l 1
 338 713 l 1
 338 620 l 1
 278 620 l 1
EndSplineSet
EndChar
StartChar: copyright
Encoding: 169 169 158
Width: 632
Flags: MW
HStem: 161 44<252 378.5 252 393> 276 57<299 338 299 339.5> 534 57<297 339> 664 43<252 378.5>
VStem: 52 44<371 497 371 511> 202 61<402 468 402 487> 535 44<370.5 497>
LayerCount: 2
Back
Fore
SplineSet
52 434 m 0
 52 588 164 707 316 707 c 0
 471 707 579 584 579 434 c 0
 579 281 471 161 315 161 c 0
 164 161 52 282 52 434 c 0
96 434 m 0
 96 308 189 205 315 205 c 0
 442 205 535 307 535 434 c 0
 535 560 442 664 315 664 c 0
 189 664 96 560 96 434 c 0
394 340 m 1
 397 288 l 1
 397 288 360 276 319 276 c 0
 231 276 202 326 202 435 c 0
 202 539 230 591 321 591 c 0
 363 591 397 581 397 581 c 1
 394 528 l 1
 394 528 355 534 323 534 c 0
 271 534 263 501 263 435 c 0
 263 369 275 333 323 333 c 0
 353 333 394 340 394 340 c 1
EndSplineSet
EndChar
StartChar: ordfeminine
Encoding: 170 170 208
Width: 377
Flags: MW
HStem: 357 54<140.5 161.5> 492.5 45.5 603 56<166 201>
VStem: 50 66<436.5 463.5 436.5 476.5> 234 64<428 495 495 495 541 560 423 563 423 578>
LayerCount: 2
Back
Fore
SplineSet
298 560 m 2
 298 423 l 1
 305 414 317 409 328 406 c 1
 326 357 l 1
 271 357 258 366 242 383 c 1
 242 383 188 357 135 357 c 0
 82 357 50 393 50 449 c 0
 50 504 81 531 146 535 c 2
 234 541 l 1
 234 563 l 2
 234 593 217 603 185 603 c 0
 147 603 70 596 70 596 c 1
 68 644 l 1
 68 644 137 659 188 659 c 0
 259 659 298 636 298 560 c 2
234 495 m 1
 157 490 l 2
 128 488 116 477 116 450 c 0
 116 423 129 411 152 411 c 0
 187 411 234 428 234 428 c 1
 234 495 l 1
EndSplineSet
EndChar
StartChar: guillemotleft
Encoding: 171 171 383
Width: 499
Flags: MW
HStem: 79 330<320 320 320 332>
VStem: 142 190<79 267 79 267>
LayerCount: 2
Back
Fore
SplineSet
332 409 m 1
 332 341 l 1
 214 249 l 1
 332 148 l 1
 332 79 l 1
 320 89 l 1
 320 79 l 1
 142 229 l 1
 142 267 l 1
 320 409 l 1
 320 399 l 1
 332 409 l 1
EndSplineSet
EndChar
StartChar: registered
Encoding: 174 174 160
Width: 632
Flags: MW
HStem: 161 44<252.5 378.5 252.5 393> 389 47<264 323 323 324 264 264> 538 47<263 263 263 311> 664 43<252.5 378.5>
VStem: 52 44<371 497 371 511> 206 58<282 389 282 585> 373 57<469 505> 535 44<370.5 497>
LayerCount: 2
Back
Fore
SplineSet
52 434 m 0
 52 588 164 707 315 707 c 0
 471 707 579 584 579 434 c 0
 579 281 471 161 315 161 c 0
 164 161 52 282 52 434 c 0
96 434 m 0
 96 308 190 205 315 205 c 0
 442 205 535 307 535 434 c 0
 535 560 442 664 315 664 c 0
 190 664 96 560 96 434 c 0
373 282 m 1
 324 389 l 1
 264 389 l 1
 264 282 l 1
 206 282 l 1
 206 585 l 1
 316 585 l 2
 388 585 430 561 430 490 c 0
 430 441 417 414 379 397 c 1
 435 282 l 1
 373 282 l 1
263 538 m 1
 263 436 l 1
 323 436 l 2
 358 436 373 451 373 487 c 0
 373 523 353 538 311 538 c 2
 263 538 l 1
EndSplineSet
EndChar
StartChar: macron
Encoding: 175 175 12
Width: 439
Flags: MW
HStem: 639 59<78 352 78 352>
VStem: 78 274<639 698 639 698>
LayerCount: 2
Back
Fore
SplineSet
78 639 m 1
 78 698 l 1
 352 698 l 1
 352 639 l 1
 78 639 l 1
EndSplineSet
EndChar
StartChar: twosuperior
Encoding: 178 178 258
Width: 280
Flags: MW
HStem: 478 58<114 240 114 240> 739 61<114.5 135>
VStem: 31 209<478 534 534 534> 169 67<688 716>
LayerCount: 2
Back
Fore
SplineSet
240 478 m 1xa0
 31 478 l 1
 31 534 l 1xa0
 119 620 l 2
 150 650 169 673 169 703 c 0
 169 729 150 739 120 739 c 0
 91 739 36 729 36 729 c 1
 33 788 l 1
 33 788 93 800 136 800 c 0
 205 800 236 771 236 709 c 0
 236 663 214 632 174 596 c 2xd0
 114 536 l 1
 240 536 l 1
 240 478 l 1xa0
EndSplineSet
Substitution2: "Single Substitution lookup 5 subtable" twoinferior
EndChar
StartChar: threesuperior
Encoding: 179 179 259
Width: 280
Flags: MW
HStem: 468 59<118.5 151.5 112.5 176.5> 610 54<72 137 72 137> 741 59<114.5 146>
VStem: 175 67<695.5 719.5> 184 66<555.5 584>
LayerCount: 2
Back
Fore
SplineSet
34 790 m 1xe8
 34 790 93 800 136 800 c 0
 207 800 242 774 242 716 c 0xf0
 242 667 209 646 202 641 c 1
 232 631 250 617 250 565 c 0
 250 499 210 468 143 468 c 0
 94 468 30 478 30 478 c 1
 34 534 l 1
 34 534 91 527 134 527 c 0
 169 527 184 543 184 568 c 0
 184 600 165 610 137 610 c 2xe8
 72 610 l 1
 72 664 l 1
 137 664 l 2
 155 664 175 683 175 708 c 0
 175 731 162 741 130 741 c 0xf0
 87 741 38 734 38 734 c 1
 34 790 l 1xe8
EndSplineSet
Substitution2: "Single Substitution lookup 5 subtable" threeinferior
EndChar
StartChar: acute
Encoding: 180 180 2
Width: 546
Flags: MW
HStem: 596 152
VStem: 118 229<652 682>
LayerCount: 2
Back
Fore
SplineSet
139 596 m 1
 118 652 l 1
 324 748 l 1
 347 682 l 1
 139 596 l 1
EndSplineSet
EndChar
StartChar: mu
Encoding: 181 181 223
Width: 560
Flags: MW
HStem: -222 21G<93 93 93 168> -10 65<231 289> 0 21G<393 466 393 393> 480 20G<93 168 168 168 392 466 466 466>
VStem: 93 75<-222 7 156.5 210 210 500> 392 74<75 75 148 500 0 500>
LayerCount: 2
Back
Fore
SplineSet
93 -222 m 1xdc
 93 500 l 1
 168 500 l 1
 168 210 l 2
 168 103 193 55 262 55 c 0
 329 55 392 148 392 148 c 1xdc
 392 500 l 1
 466 500 l 1
 466 0 l 1
 393 0 l 1xbc
 392 75 l 1
 392 75 331 -10 247 -10 c 0
 215 -10 189 -4 168 7 c 1
 168 -222 l 1
 93 -222 l 1xdc
EndSplineSet
EndChar
StartChar: paragraph
Encoding: 182 182 250
Width: 554
Flags: MW
HStem: 0 21G<212 276 212 212 386 449 386 386> 636 64<276 386 276 276 449 449 449 517>
VStem: 212 64<0 332 332 332> 386 63<0 636 0 636>
LayerCount: 2
Back
Fore
SplineSet
386 0 m 1
 386 636 l 1
 276 636 l 1
 276 0 l 1
 212 0 l 1
 212 332 l 1
 104 332 32 410 32 501 c 0
 32 611 83 700 207 700 c 2
 517 700 l 1
 517 636 l 1
 449 636 l 1
 449 0 l 1
 386 0 l 1
EndSplineSet
EndChar
StartChar: periodcentered
Encoding: 183 183 271
Width: 202
Flags: MW
HStem: 245 117<63 140 63 140>
VStem: 63 77<245 362 245 362>
LayerCount: 2
Back
Fore
SplineSet
63 245 m 1
 63 362 l 1
 140 362 l 1
 140 245 l 1
 63 245 l 1
EndSplineSet
Substitution2: "'case' Case-Sensitive Forms in Latin lookup 4 subtable" periodcentered.cap
EndChar
StartChar: cedilla
Encoding: 184 184 5
Width: 791
Flags: MW
HStem: -211 55<421.5 439.5 413.5 468.5> -88 43<425 426 386 433>
VStem: 386 39<-45 5 -45 5 -45 5> 468 63<-133 -106.5>
LayerCount: 2
Back
Fore
SplineSet
531 -124 m 0
 531 -184 495 -211 442 -211 c 0
 401 -211 361 -204 361 -204 c 1
 364 -153 l 1
 364 -153 401 -156 426 -156 c 0
 453 -156 468 -146 468 -120 c 0
 468 -93 448 -88 426 -88 c 2
 386 -88 l 1
 386 5 l 1
 425 5 l 1
 425 -45 l 1
 433 -45 l 2
 483 -45 531 -57 531 -124 c 0
EndSplineSet
EndChar
StartChar: onesuperior
Encoding: 185 185 257
Width: 280
Flags: MW
HStem: 700 20G<33 33 130 130>
VStem: 130 64<478 720 720 720>
LayerCount: 2
Back
Fore
SplineSet
33 720 m 1
 134 790 l 1
 194 790 l 1
 194 478 l 1
 130 478 l 1
 130 720 l 1
 62 673 l 1
 33 720 l 1
EndSplineSet
Substitution2: "Single Substitution lookup 5 subtable" oneinferior
EndChar
StartChar: ordmasculine
Encoding: 186 186 209
Width: 361
Flags: MW
HStem: 355 60<161 205 161 221.5> 599 60<156 199.5>
VStem: 49 64<502 543 502 563> 248 64<473 516>
LayerCount: 2
Back
Fore
SplineSet
180 659 m 0
 235 659 278 641 297 596 c 0
 309 568 312 537 312 509 c 0
 312 401 263 355 180 355 c 0
 112 355 66 386 53 460 c 0
 50 475 49 491 49 509 c 0
 49 617 98 659 180 659 c 0
180 415 m 0
 230 415 248 437 248 509 c 0
 248 523 247 535 246 545 c 0
 239 586 219 599 180 599 c 0
 132 599 113 577 113 509 c 0
 113 495 115 481 116 471 c 0
 123 428 142 415 180 415 c 0
EndSplineSet
EndChar
StartChar: guillemotright
Encoding: 187 187 384
Width: 507
Flags: MW
HStem: 84 330<174 174 174 179>
VStem: 174 183<84 264 152 264 226 414 226 414>
LayerCount: 2
Back
Fore
SplineSet
174 84 m 1
 174 152 l 1
 292 244 l 1
 174 345 l 1
 174 414 l 1
 179 410 l 1
 179 414 l 1
 357 264 l 1
 357 226 l 1
 179 84 l 1
 179 88 l 1
 174 84 l 1
EndSplineSet
EndChar
StartChar: onequarter
Encoding: 188 188 421
Width: 566
Flags: MW
HStem: -10 21G<158 158> 0 107<373 448 373 511> 48 59<373 448 373 448 511 538> 700 20G<18 18 115 115>
VStem: 115 64<478 720 720 720> 450.5 60.5
LayerCount: 2
Back
Fore
SplineSet
18 720 m 1x5c
 119 790 l 1
 179 790 l 1
 179 478 l 1
 115 478 l 1
 115 720 l 1
 47 673 l 1
 18 720 l 1x5c
158 -10 m 1x9c
 89 15 l 1
 353 707 l 1
 422 682 l 1
 158 -10 l 1x9c
448 0 m 1x5c
 448 48 l 1
 307 48 l 1
 307 103 l 1x3c
 376 312 l 1
 446 312 l 1
 373 107 l 1
 448 107 l 1
 453 195 l 1
 511 195 l 1
 511 107 l 1
 538 107 l 1x5c
 538 48 l 1
 511 48 l 1x3c
 511 0 l 1
 448 0 l 1x5c
EndSplineSet
EndChar
StartChar: onehalf
Encoding: 189 189 442
Width: 589
Flags: MW
HStem: -10 21G<158 158> 0 58<426 552 426 552> 261 61<426.5 447> 700 20G<18 18 115 115>
VStem: 115 64<478 720 720 720> 343 209<0 56 56 56> 481 67<210 238>
LayerCount: 2
Back
Fore
SplineSet
18 720 m 1x78
 119 790 l 1
 179 790 l 1
 179 478 l 1
 115 478 l 1
 115 720 l 1
 47 673 l 1
 18 720 l 1x78
158 -10 m 1xb8
 89 15 l 1
 353 707 l 1
 422 682 l 1
 158 -10 l 1xb8
552 0 m 1x7c
 343 0 l 1
 343 56 l 1x7c
 431 142 l 2
 462 172 481 195 481 225 c 0
 481 251 462 261 432 261 c 0
 403 261 348 251 348 251 c 1
 345 310 l 1
 345 310 405 322 448 322 c 0
 517 322 548 293 548 231 c 0
 548 185 526 154 486 118 c 2x7a
 426 58 l 1
 552 58 l 1
 552 0 l 1x7c
EndSplineSet
EndChar
StartChar: threequarters
Encoding: 190 190 443
Width: 589
Flags: MW
HStem: -10 21G<183 183> 0 107<398 473 398 536> 48 59<398 473 398 473 536 563> 468 59<125.5 158.5 119.5 183.5> 610 54<79 144 79 144> 741 59<121.5 153>
VStem: 182 67<695.5 719.5> 191 66<555.5 584> 475.5 60.5
LayerCount: 2
Back
Fore
SplineSet
41 790 m 1x5d80
 41 790 100 800 143 800 c 0
 214 800 249 774 249 716 c 0x5e80
 249 667 216 646 209 641 c 1
 239 631 257 617 257 565 c 0
 257 499 217 468 150 468 c 0
 101 468 37 478 37 478 c 1
 41 534 l 1
 41 534 98 527 141 527 c 0
 176 527 191 543 191 568 c 0
 191 600 172 610 144 610 c 2x5d80
 79 610 l 1
 79 664 l 1
 144 664 l 2
 162 664 182 683 182 708 c 0
 182 731 169 741 137 741 c 0x5e80
 94 741 45 734 45 734 c 1
 41 790 l 1x5d80
183 -10 m 1x9d80
 114 15 l 1
 378 707 l 1
 447 682 l 1
 183 -10 l 1x9d80
473 0 m 1x5d80
 473 48 l 1
 332 48 l 1
 332 103 l 1x3d80
 401 312 l 1
 471 312 l 1
 398 107 l 1
 473 107 l 1
 478 195 l 1
 536 195 l 1
 536 107 l 1
 563 107 l 1x5d80
 563 48 l 1
 536 48 l 1x3d80
 536 0 l 1
 473 0 l 1x5d80
EndSplineSet
EndChar
StartChar: questiondown
Encoding: 191 191 266
Width: 404
Flags: MW
HStem: -201 68<186 250> 384 116<196 274 196 274>
VStem: 32 79<-73 -11.5 -73 -1.5> 196 78<384 500 384 500>
LayerCount: 2
Back
Fore
SplineSet
32 -33 m 0
 32 30 57 68 137 157 c 0
 174 198 196 229 196 265 c 2
 196 305 l 1
 268 305 l 1
 268 305 273 276 273 254 c 0
 273 199 247 169 190 104 c 0
 131 36 111 10 111 -33 c 0
 111 -113 146 -133 226 -133 c 0
 281 -133 367 -113 367 -113 c 1
 376 -174 l 1
 376 -174 280 -201 220 -201 c 0
 93 -201 32 -158 32 -33 c 0
274 500 m 1
 274 384 l 1
 196 384 l 1
 196 500 l 1
 274 500 l 1
EndSplineSet
Substitution2: "'case' Case-Sensitive Forms in Latin lookup 4 subtable" questiondown.cap
EndChar
StartChar: Atilde
Encoding: 195 195 25
Width: 553
Flags: MW
HStem: 0 21G<22 22 22 99 454 454 454 530> 176 68<162 390 162 406 147 390> 624 68<262 262 262 291> 804 66<344 368 344 375> 860 65<192.5 220.5>
VStem: 22 508<0 0>
LayerCount: 2
Back
Fore
SplineSet
429 915 m 1xf4
 445 864 l 1
 445 864 392 804 358 804 c 0xf4
 314 804 237 860 204 860 c 0
 181 860 128 812 128 812 c 1
 114 864 l 1
 114 864 168 925 206 925 c 0xec
 254 925 330 870 358 870 c 0
 378 870 429 915 429 915 c 1xf4
22 0 m 1
 201 692 l 1
 352 692 l 1
 530 0 l 1
 454 0 l 1
 406 176 l 1
 147 176 l 1
 99 0 l 1
 22 0 l 1
262 624 m 1
 162 244 l 1
 390 244 l 1
 291 624 l 1
 262 624 l 1
EndSplineSet
Position2: "'cpsp' Capital Spacing in Latin lookup 0 subtable" dx=5 dy=0 dh=10 dv=0
EndChar
StartChar: Adieresis
Encoding: 196 196 21
Width: 553
Flags: MW
HStem: 0 21G<22 22 22 99 454 454 454 530> 176 68<162 390 162 406 147 390> 624 68<262 262 262 291> 814 93<153 214 153 214 341 401>
VStem: 153 61<814 907 814 907> 341 60<814 907 814 907>
LayerCount: 2
Back
Fore
SplineSet
153 814 m 1
 153 907 l 1
 214 907 l 1
 214 814 l 1
 153 814 l 1
341 814 m 1
 341 907 l 1
 401 907 l 1
 401 814 l 1
 341 814 l 1
22 0 m 1
 201 692 l 1
 352 692 l 1
 530 0 l 1
 454 0 l 1
 406 176 l 1
 147 176 l 1
 99 0 l 1
 22 0 l 1
262 624 m 1
 162 244 l 1
 390 244 l 1
 291 624 l 1
 262 624 l 1
EndSplineSet
Position2: "'cpsp' Capital Spacing in Latin lookup 0 subtable" dx=5 dy=0 dh=10 dv=0
EndChar
StartChar: AE
Encoding: 198 198 26
Width: 775
Flags: MW
HStem: 0 72<417 733 417 733> 177 71<158 345 158 345 142 345> 317 69<417 676 417 676> 624 72<256 256 256 345 417 733 417 417>
VStem: 345 72<72 177 177 177 248 317 386 624>
LayerCount: 2
Back
Fore
SplineSet
345 0 m 1
 345 177 l 1
 142 177 l 1
 95 0 l 1
 22 0 l 1
 202 696 l 1
 733 696 l 1
 733 624 l 1
 417 624 l 1
 417 386 l 1
 676 386 l 1
 676 317 l 1
 417 317 l 1
 417 72 l 1
 733 72 l 1
 733 0 l 1
 345 0 l 1
256 624 m 1
 158 248 l 1
 345 248 l 1
 345 624 l 1
 256 624 l 1
EndSplineSet
Position2: "'cpsp' Capital Spacing in Latin lookup 0 subtable" dx=5 dy=0 dh=10 dv=0
EndChar
StartChar: Ccedilla
Encoding: 199 199 32
Width: 501
Flags: MW
HStem: -211 55<288.5 306.5 280.5 335.5> -88 43<292 293 253 300> -10 21G -8 66<253 253> 634 68<229.5 329.5 196 331.5>
VStem: 53 79<258.5 435 258.5 457.5> 253 39<-45 -10 -45 -8 -45 -8> 335 63<-133 -106.5>
LayerCount: 2
Back
Fore
SplineSet
459 75 m 1xdf
 463 11 l 1xdf
 463 11 370 -9 292 -10 c 1xef
 292 -45 l 1
 300 -45 l 2
 350 -45 398 -57 398 -124 c 0
 398 -184 362 -211 309 -211 c 0
 268 -211 228 -204 228 -204 c 1
 231 -153 l 1
 231 -153 268 -156 293 -156 c 0
 320 -156 335 -146 335 -120 c 0
 335 -93 315 -88 293 -88 c 2
 253 -88 l 1
 253 -8 l 1
 91 8 53 139 53 345 c 0
 53 570 104 702 288 702 c 0
 371 702 464 681 464 681 c 1
 459 617 l 1
 459 617 365 634 298 634 c 0
 161 634 132 525 132 345 c 0
 132 172 159 58 299 58 c 0
 359 58 459 75 459 75 c 1xdf
EndSplineSet
Position2: "'cpsp' Capital Spacing in Latin lookup 0 subtable" dx=5 dy=0 dh=10 dv=0
EndChar
StartChar: Eacute
Encoding: 201 201 39
Width: 507
Flags: MW
HStem: 0 68<153 464 153 464> 318 68<153 408 153 408> 624 68<153 464 153 153>
VStem: 77 76<68 318 386 624>
LayerCount: 2
Back
Fore
SplineSet
192 785 m 1
 170 840 l 1
 376 936 l 1
 400 871 l 1
 192 785 l 1
77 0 m 1
 77 692 l 1
 464 692 l 1
 464 624 l 1
 153 624 l 1
 153 386 l 1
 408 386 l 1
 408 318 l 1
 153 318 l 1
 153 68 l 1
 464 68 l 1
 464 0 l 1
 77 0 l 1
EndSplineSet
Position2: "'cpsp' Capital Spacing in Latin lookup 0 subtable" dx=5 dy=0 dh=10 dv=0
EndChar
StartChar: Ecircumflex
Encoding: 202 202 42
Width: 507
Flags: MW
HStem: 0 68<153 464 153 464> 318 68<153 408 153 408> 624 68<153 464 153 153> 794 138<118 290 118 290 249 349 249 422>
VStem: 77 76<68 318 386 624>
LayerCount: 2
Back
Fore
SplineSet
118 794 m 1
 249 932 l 1
 290 932 l 1
 422 794 l 1
 349 794 l 1
 270 875 l 1
 191 794 l 1
 118 794 l 1
77 0 m 1
 77 692 l 1
 464 692 l 1
 464 624 l 1
 153 624 l 1
 153 386 l 1
 408 386 l 1
 408 318 l 1
 153 318 l 1
 153 68 l 1
 464 68 l 1
 464 0 l 1
 77 0 l 1
EndSplineSet
Position2: "'cpsp' Capital Spacing in Latin lookup 0 subtable" dx=5 dy=0 dh=10 dv=0
EndChar
StartChar: Edieresis
Encoding: 203 203 43
Width: 507
Flags: MW
HStem: 0 68<153 464 153 464> 318 68<153 408 153 408> 624 68<153 464 153 153> 814 93<154 215 154 215 342 402>
VStem: 77 76<68 318 386 624> 154 61<814 907 814 907> 342 60<814 907 814 907>
LayerCount: 2
Back
Fore
SplineSet
154 814 m 1
 154 907 l 1
 215 907 l 1
 215 814 l 1
 154 814 l 1
342 814 m 1
 342 907 l 1
 402 907 l 1
 402 814 l 1
 342 814 l 1
77 0 m 1xfa
 77 692 l 1
 464 692 l 1
 464 624 l 1
 153 624 l 1
 153 386 l 1
 408 386 l 1
 408 318 l 1
 153 318 l 1
 153 68 l 1
 464 68 l 1
 464 0 l 1
 77 0 l 1xfa
EndSplineSet
Position2: "'cpsp' Capital Spacing in Latin lookup 0 subtable" dx=5 dy=0 dh=10 dv=0
EndChar
StartChar: Igrave
Encoding: 204 204 63
Width: 230
Flags: MW
HStem: 0 21G<77 77 77 153>
VStem: 77 76<0 692 0 692>
LayerCount: 2
Back
Fore
SplineSet
-27 931 m 1
 179 837 l 1
 157 780 l 1
 -51 866 l 1
 -27 931 l 1
77 0 m 1
 77 692 l 1
 153 692 l 1
 153 0 l 1
 77 0 l 1
EndSplineSet
Position2: "'cpsp' Capital Spacing in Latin lookup 0 subtable" dx=5 dy=0 dh=10 dv=0
EndChar
StartChar: Iacute
Encoding: 205 205 58
Width: 230
Flags: MW
HStem: 0 21G<77 77 77 153>
VStem: 77 76<0 692 0 692>
LayerCount: 2
Back
Fore
SplineSet
67 785 m 1
 45 840 l 1
 251 936 l 1
 275 871 l 1
 67 785 l 1
77 0 m 1
 77 692 l 1
 153 692 l 1
 153 0 l 1
 77 0 l 1
EndSplineSet
Position2: "'cpsp' Capital Spacing in Latin lookup 0 subtable" dx=5 dy=0 dh=10 dv=0
EndChar
StartChar: Icircumflex
Encoding: 206 206 60
Width: 230
Flags: MW
HStem: 0 21G<77 77 77 153> 791 138<-38 134 -38 134 93 193 93 266>
VStem: 77 76<0 692 0 692>
LayerCount: 2
Back
Fore
SplineSet
-38 791 m 1
 93 929 l 1
 134 929 l 1
 266 791 l 1
 193 791 l 1
 114 872 l 1
 35 791 l 1
 -38 791 l 1
77 0 m 1
 77 692 l 1
 153 692 l 1
 153 0 l 1
 77 0 l 1
EndSplineSet
Position2: "'cpsp' Capital Spacing in Latin lookup 0 subtable" dx=5 dy=0 dh=10 dv=0
EndChar
StartChar: Idieresis
Encoding: 207 207 61
Width: 230
Flags: MW
HStem: 0 21G<77 77 77 153> 819 93<-9 52 -9 52 179 239>
VStem: -9 61<819 912 819 912> 77 76<0 692 0 692> 179 60<819 912 819 912>
LayerCount: 2
Back
Fore
SplineSet
-9 819 m 1
 -9 912 l 1
 52 912 l 1
 52 819 l 1
 -9 819 l 1
179 819 m 1
 179 912 l 1
 239 912 l 1
 239 819 l 1
 179 819 l 1
77 0 m 1xd0
 77 692 l 1
 153 692 l 1
 153 0 l 1
 77 0 l 1xd0
EndSplineSet
Position2: "'cpsp' Capital Spacing in Latin lookup 0 subtable" dx=5 dy=0 dh=10 dv=0
EndChar
StartChar: Eth
Encoding: 208 208 407
Width: 604
Flags: MW
HStem: 0 68<157 310 157 310> 309 77<16 81 16 81 16 157 157 301> 624 68<157 310 157 157>
VStem: 81 76<68 309 68 309 68 309 386 624> 470 80<268.5 448.5>
LayerCount: 2
Back
Fore
SplineSet
310 0 m 2
 81 0 l 1
 81 309 l 1
 16 309 l 1
 16 386 l 1
 81 386 l 1
 81 692 l 1
 310 692 l 2
 493 692 550 589 550 359 c 0
 550 122 498 0 310 0 c 2
470 359 m 0
 470 538 442 624 310 624 c 2
 157 624 l 1
 157 386 l 1
 301 386 l 1
 301 309 l 1
 157 309 l 1
 157 68 l 1
 310 68 l 2
 442 68 470 178 470 359 c 0
EndSplineSet
Position2: "'cpsp' Capital Spacing in Latin lookup 0 subtable" dx=5 dy=0 dh=10 dv=0
EndChar
StartChar: Ntilde
Encoding: 209 209 81
Width: 629
Flags: MW
HStem: 0 79<420 478 460 478 460 552> 616 76<153 170 153 153> 802 66<381 405 381 412> 858 65<229.5 257.5>
VStem: 77 76<0 616 0 692> 478 74<79 692 0 692>
LayerCount: 2
Back
Fore
SplineSet
466 913 m 1xec
 482 862 l 1
 482 862 429 802 395 802 c 0xec
 351 802 274 858 241 858 c 0
 218 858 165 810 165 810 c 1
 151 862 l 1
 151 862 205 923 243 923 c 0xdc
 291 923 367 868 395 868 c 0
 415 868 466 913 466 913 c 1xec
77 0 m 1
 77 692 l 1
 211 692 l 1
 460 79 l 1
 478 79 l 1
 478 692 l 1
 552 692 l 1
 552 0 l 1
 420 0 l 1
 170 616 l 1
 153 616 l 1
 153 0 l 1
 77 0 l 1
EndSplineSet
Position2: "'cpsp' Capital Spacing in Latin lookup 0 subtable" dx=5 dy=0 dh=10 dv=0
EndChar
StartChar: Oacute
Encoding: 211 211 83
Width: 612
Flags: MW
HStem: -10 68<230 325 230 336.5> 634 68<288 382>
VStem: 53 80<251 429 251 434> 479 80<275.5 453>
LayerCount: 2
Back
Fore
SplineSet
306 58 m 0
 344 58 373 63 396 75 c 0
 467 110 479 199 479 352 c 0
 479 554 458 634 306 634 c 0
 270 634 241 630 218 620 c 0
 145 589 133 506 133 352 c 0
 133 150 154 58 306 58 c 0
306 -10 m 0
 102 -10 53 108 53 352 c 0
 53 516 75 619 153 667 c 0
 190 691 240 702 306 702 c 0
 511 702 559 595 559 352 c 0
 559 181 536 72 451 22 c 0
 415 0 367 -10 306 -10 c 0
235 785 m 1
 213 840 l 1
 419 936 l 1
 443 871 l 1
 235 785 l 1
EndSplineSet
Position2: "'cpsp' Capital Spacing in Latin lookup 0 subtable" dx=5 dy=0 dh=10 dv=0
EndChar
StartChar: Otilde
Encoding: 213 213 92
Width: 612
Flags: MW
HStem: -10 68<230 325 230 336.5> 634 68<288 382> 802 66<375 399 375 406> 858 65<223.5 251.5>
VStem: 53 80<251 429 251 434> 479 80<275.5 453>
LayerCount: 2
Back
Fore
SplineSet
460 913 m 1xec
 476 862 l 1
 476 862 423 802 389 802 c 0xec
 345 802 268 858 235 858 c 0
 212 858 159 810 159 810 c 1
 145 862 l 1
 145 862 199 923 237 923 c 0xdc
 285 923 361 868 389 868 c 0
 409 868 460 913 460 913 c 1xec
306 58 m 0
 344 58 373 63 396 75 c 0
 467 110 479 199 479 352 c 0
 479 554 458 634 306 634 c 0
 270 634 241 630 218 620 c 0
 145 589 133 506 133 352 c 0
 133 150 154 58 306 58 c 0
306 -10 m 0
 102 -10 53 108 53 352 c 0
 53 516 75 619 153 667 c 0
 190 691 240 702 306 702 c 0
 511 702 559 595 559 352 c 0
 559 181 536 72 451 22 c 0
 415 0 367 -10 306 -10 c 0
EndSplineSet
Position2: "'cpsp' Capital Spacing in Latin lookup 0 subtable" dx=5 dy=0 dh=10 dv=0
EndChar
StartChar: multiply
Encoding: 215 215 183
Width: 560
Flags: MW
HStem: 42 418<119 441 441 441>
VStem: 71 418<90 90 90 411>
LayerCount: 2
Back
Fore
SplineSet
120 459 m 1
 280 297 l 1
 441 460 l 1
 489 412 l 1
 326 251 l 1
 489 90 l 1
 441 42 l 1
 280 204 l 1
 119 42 l 1
 71 90 l 1
 233 251 l 1
 71 411 l 1
 120 459 l 1
EndSplineSet
EndChar
StartChar: Oslash
Encoding: 216 216 90
Width: 612
Flags: MW
HStem: -10 68<288 325 288 336.5> 634 68<288 325.5>
VStem: 53 80<293.5 429 293.5 434> 479 80<275.5 406.5>
LayerCount: 2
Back
Fore
SplineSet
136 -114 m 1
 87 -91 l 1
 142 35 l 1
 73 89 53 194 53 352 c 0
 53 516 75 619 153 667 c 0
 190 691 240 702 306 702 c 0
 355 702 396 695 429 682 c 1
 480 797 l 1
 531 777 l 1
 476 655 l 1
 540 602 559 503 559 352 c 0
 559 181 536 72 451 22 c 0
 415 0 367 -10 306 -10 c 0
 260 -10 221 -4 190 8 c 1
 136 -114 l 1
175 108 m 1
 283 353 l 1
 400 617 l 1
 376 628 345 634 306 634 c 0
 270 634 241 630 218 620 c 0
 145 589 133 506 133 352 c 0
 133 235 140 155 175 108 c 1
306 58 m 0
 344 58 373 63 396 75 c 0
 467 110 479 199 479 352 c 0
 479 461 472 534 443 579 c 1
 333 330 l 1
 219 73 l 1
 241 63 270 58 306 58 c 0
EndSplineSet
Position2: "'cpsp' Capital Spacing in Latin lookup 0 subtable" dx=5 dy=0 dh=10 dv=0
EndChar
StartChar: Uacute
Encoding: 218 218 111
Width: 597
Flags: MW
HStem: -10 68<247 349.5 247 375>
VStem: 73 76<211 692> 447 77<206 211 211 692>
LayerCount: 2
Back
Fore
SplineSet
149 692 m 1
 149 206 l 2
 149 100 196 58 298 58 c 0
 401 58 447 99 447 206 c 2
 447 692 l 1
 524 692 l 1
 524 211 l 2
 524 59 452 -10 298 -10 c 0
 145 -10 73 59 73 211 c 2
 73 692 l 1
 149 692 l 1
218 785 m 1
 196 840 l 1
 402 936 l 1
 426 871 l 1
 218 785 l 1
EndSplineSet
Position2: "'cpsp' Capital Spacing in Latin lookup 0 subtable" dx=5 dy=0 dh=10 dv=0
EndChar
StartChar: Udieresis
Encoding: 220 220 114
Width: 597
Flags: MW
HStem: -10 68<247 349.5 247 375> 816 93<170 239 170 239 360 427>
VStem: 73 76<211 692> 170 69<816 909 816 909> 360 67<816 909 816 909> 447 77<206 211 211 692>
LayerCount: 2
Back
Fore
SplineSet
170 816 m 1
 170 909 l 1
 239 909 l 1
 239 816 l 1
 170 816 l 1
360 816 m 1
 360 909 l 1
 427 909 l 1
 427 816 l 1
 360 816 l 1
149 692 m 1xe4
 149 206 l 2
 149 100 196 58 298 58 c 0
 401 58 447 99 447 206 c 2
 447 692 l 1
 524 692 l 1
 524 211 l 2
 524 59 452 -10 298 -10 c 0
 145 -10 73 59 73 211 c 2
 73 692 l 1
 149 692 l 1xe4
EndSplineSet
Position2: "'cpsp' Capital Spacing in Latin lookup 0 subtable" dx=5 dy=0 dh=10 dv=0
EndChar
StartChar: Yacute
Encoding: 221 221 129
Width: 498
Flags: MW
HStem: 0 21G<213 286 213 213>
VStem: 213 73<0 290 0 290>
LayerCount: 2
Back
Fore
SplineSet
186 785 m 1
 164 840 l 1
 370 936 l 1
 394 871 l 1
 186 785 l 1
486 692 m 1
 286 290 l 1
 286 0 l 1
 213 0 l 1
 213 290 l 1
 10 692 l 1
 93 692 l 1
 249 373 l 1
 404 692 l 1
 486 692 l 1
EndSplineSet
Position2: "'cpsp' Capital Spacing in Latin lookup 0 subtable" dx=5 dy=0 dh=10 dv=0
EndChar
StartChar: Thorn
Encoding: 222 222 192
Width: 554
Flags: MW
HStem: 0 188<77 305 77 305> 120 68<152 305 305 306 152 305> 516 69<152 305 152 306>
VStem: 77 75<0 120 188 516 585 696> 439 80<307.5 397.5>
LayerCount: 2
Back
Fore
SplineSet
305 188 m 2x78
 400 188 439 260 439 355 c 0
 439 440 404 516 305 516 c 2
 152 516 l 1
 152 188 l 1
 305 188 l 2x78
306 120 m 2
 152 120 l 1x78
 152 0 l 1
 77 0 l 1xb8
 77 696 l 1
 152 696 l 1
 152 585 l 1
 306 585 l 2
 430 585 519 516 519 355 c 0
 519 209 448 120 306 120 c 2
EndSplineSet
Position2: "'cpsp' Capital Spacing in Latin lookup 0 subtable" dx=5 dy=0 dh=10 dv=0
EndChar
StartChar: germandbls
Encoding: 223 223 188
Width: 533
Flags: MW
HStem: -10 65<303 358.5 301 387> 0 21G<66 137 66 66> 2 53 663 21G<213.5 292> 708 20G<188 318>
VStem: 66 71<0 537 537 538> 229 72<382 408.5 382 417.5> 362 72<561.5 614> 429 72<126.5 188.5>
LayerCount: 2
Back
Fore
SplineSet
137 0 m 1x5f
 66 0 l 1
 66 537 l 2
 66 687 125 728 251 728 c 0
 385 728 434 686 434 585 c 0x5f
 434 513 413 485 358 456 c 0
 316 433 301 421 301 396 c 0
 301 368 319 355 377 324 c 0
 465 278 501 251 501 166 c 0
 501 38 446 -10 328 -10 c 0x9e80
 278 -10 205 2 205 2 c 1x3e80
 208 60 l 1
 208 60 288 55 314 55 c 0
 403 55 429 91 429 162 c 0x9e80
 429 215 410 230 330 272 c 0
 264 306 229 333 229 391 c 0
 229 444 244 466 304 497 c 0
 348 521 362 541 362 582 c 0
 362 646 333 663 251 663 c 0
 176 663 137 642 137 538 c 2
 137 0 l 1x5f
EndSplineSet
EndChar
StartChar: agrave
Encoding: 224 224 162
Width: 493
Flags: MW
HStem: -10 65<182 253> -2 21G<358 358> 445 65<202 269.5>
VStem: 47 76<185 307 185 319.5> 352 75<159 436 436 436>
LayerCount: 2
Back
Fore
SplineSet
207 -10 m 0xb8
 88 -10 47 76 47 240 c 0
 47 399 85 510 247 510 c 0
 304 510 427 493 427 493 c 1
 427 123 l 2
 427 76 433 1 433 1 c 1
 358 -2 l 1x78
 358 -2 353 44 353 84 c 1
 353 84 299 -10 207 -10 c 0xb8
256 445 m 0
 148 445 123 374 123 240 c 0
 123 130 142 55 222 55 c 0
 298 55 352 159 352 159 c 1
 352 436 l 1
 352 436 283 445 256 445 c 0
162 747 m 1
 368 653 l 1
 348 599 l 1
 139 685 l 1
 162 747 l 1
EndSplineSet
EndChar
StartChar: acircumflex
Encoding: 226 226 163
Width: 493
Flags: MW
HStem: -10 65<182 253> -2 21G<358 358> 445 65<202 269.5> 587 151<109 284 109 284 230 326 230 406>
VStem: 47 76<185 307 185 319.5> 352 75<159 436 436 436>
LayerCount: 2
Back
Fore
SplineSet
109 587 m 1xbc
 230 738 l 1
 284 738 l 1
 406 587 l 1
 326 587 l 1
 258 672 l 1
 188 587 l 1
 109 587 l 1xbc
207 -10 m 0
 88 -10 47 76 47 240 c 0
 47 399 85 510 247 510 c 0
 304 510 427 493 427 493 c 1
 427 123 l 2
 427 76 433 1 433 1 c 1
 358 -2 l 1x7c
 358 -2 353 44 353 84 c 1
 353 84 299 -10 207 -10 c 0
256 445 m 0
 148 445 123 374 123 240 c 0
 123 130 142 55 222 55 c 0
 298 55 352 159 352 159 c 1
 352 436 l 1
 352 436 283 445 256 445 c 0
EndSplineSet
EndChar
StartChar: atilde
Encoding: 227 227 165
Width: 493
Flags: MW
HStem: -10 65<182 253> -2 21G<358 358> 445 65<202 269.5> 614 66<329 352.5 329 358.5> 662 21G<190 217> 666 21G<422 422> 699 20G<407 407> 708 20G<185 225>
VStem: 47 76<185 307 185 319.5> 352 75<159 436 436 436>
LayerCount: 2
Back
Fore
SplineSet
207 -10 m 0xa5c0
 88 -10 47 76 47 240 c 0
 47 399 85 510 247 510 c 0
 304 510 427 493 427 493 c 1
 427 123 l 2
 427 76 433 1 433 1 c 1
 358 -2 l 1x65c0
 358 -2 353 44 353 84 c 1
 353 84 299 -10 207 -10 c 0xa5c0
256 445 m 0
 148 445 123 374 123 240 c 0
 123 130 142 55 222 55 c 0
 298 55 352 159 352 159 c 1
 352 436 l 1
 352 436 283 445 256 445 c 0
407 719 m 1xb2c0
 422 666 l 1
 422 666 376 614 341 614 c 0xa5c0
 299 614 232 662 202 662 c 0
 178 662 131 620 131 620 c 1xa9c0
 117 673 l 1
 117 673 166 728 204 728 c 0xb1c0
 246 728 316 680 342 680 c 0
 363 680 407 719 407 719 c 1xb2c0
EndSplineSet
EndChar
StartChar: adieresis
Encoding: 228 228 164
Width: 493
Flags: MW
HStem: -10 65<182 253> -2 21G<358 358> 445 65<202 269.5> 620 93<122 191 122 191 312 379>
VStem: 47 76<185 307 185 319.5> 122 69<620 713 620 713> 312 67<620 713 620 713> 352 75<159 436 436 436>
LayerCount: 2
Back
Fore
SplineSet
122 620 m 1xb6
 122 713 l 1
 191 713 l 1
 191 620 l 1
 122 620 l 1xb6
312 620 m 1
 312 713 l 1
 379 713 l 1
 379 620 l 1
 312 620 l 1
207 -10 m 0xb9
 88 -10 47 76 47 240 c 0
 47 399 85 510 247 510 c 0
 304 510 427 493 427 493 c 1
 427 123 l 2
 427 76 433 1 433 1 c 1
 358 -2 l 1x79
 358 -2 353 44 353 84 c 1
 353 84 299 -10 207 -10 c 0xb9
256 445 m 0
 148 445 123 374 123 240 c 0
 123 130 142 55 222 55 c 0
 298 55 352 159 352 159 c 1
 352 436 l 1
 352 436 283 445 256 445 c 0
EndSplineSet
EndChar
StartChar: aring
Encoding: 229 229 166
Width: 493
Flags: MW
HStem: -10 65<182 253> -2 21G<358 358> 445 65<202 269.5> 564 49<254.5 280.5 254.5 294.5> 709 51<254.5 280.5>
VStem: 47 76<185 307 185 319.5> 176 45<648.5 675.5 648.5 690> 312 45<648.5 675.5> 352 75<159 436 436 436>
LayerCount: 2
Back
Fore
SplineSet
207 -10 m 0xbe80
 88 -10 47 76 47 240 c 0
 47 399 85 510 247 510 c 0
 304 510 427 493 427 493 c 1
 427 123 l 2
 427 76 433 1 433 1 c 1
 358 -2 l 1x7e80
 358 -2 353 44 353 84 c 1
 353 84 299 -10 207 -10 c 0xbe80
256 445 m 0
 148 445 123 374 123 240 c 0
 123 130 142 55 222 55 c 0
 298 55 352 159 352 159 c 1
 352 436 l 1
 352 436 283 445 256 445 c 0
176 662 m 0
 176 718 212 760 268 760 c 0
 322 760 357 718 357 662 c 0xbf
 357 602 321 564 268 564 c 0
 211 564 176 602 176 662 c 0
221 662 m 0
 221 635 241 613 268 613 c 0
 293 613 312 635 312 662 c 0xbf
 312 689 293 709 268 709 c 0
 241 709 221 689 221 662 c 0
EndSplineSet
EndChar
StartChar: ae
Encoding: 230 230 224
Width: 750
Flags: MW
HStem: -10 67<152.5 203.5> -10 70<486.5 551.5 486.5 553.5> 217 63<397 636 397 707 397 636> 247 60<323 323> 437 73<211 278.5 210 286> 442 68<491 544.5>
VStem: 38 72<125.5 173 125.5 188> 324 73<307 335> 636 71<217 303>
LayerCount: 2
Back
Fore
SplineSet
518 60 m 0x6b80
 585 60 688 69 688 69 c 1
 690 6 l 1
 690 6 593 -10 514 -10 c 0
 450 -10 403 9 373 45 c 1
 309 15 238 -10 169 -10 c 0
 80 -10 38 60 38 143 c 0
 38 233 76 271 148 286 c 0
 194 296 252 302 324 307 c 1x5b80
 324 367 326 437 246 437 c 0
 176 437 66 426 66 426 c 1
 63 495 l 1
 63 495 174 510 246 510 c 0
 311 510 355 486 375 435 c 1
 409 489 460 510 522 510 c 0
 614 510 673 467 696 379 c 0
 704 347 707 314 707 267 c 2
 707 217 l 1
 397 217 l 1
 397 187 400 161 406 139 c 0
 421 88 455 60 518 60 c 0x6b80
178 57 m 0x9b80
 239 57 323 84 346 92 c 1
 327 135 323 189 323 247 c 1
 271 243 210 235 188 232 c 0
 135 224 110 200 110 146 c 0
 110 105 127 57 178 57 c 0x9b80
397 280 m 1x6780
 636 280 l 1
 636 326 631 361 619 387 c 0
 601 425 569 442 520 442 c 0
 439 442 397 390 397 280 c 1x6780
EndSplineSet
EndChar
StartChar: ccedilla
Encoding: 231 231 189
Width: 399
Flags: MW
HStem: -211 55<228.5 246.5 220.5 275.5> -88 43<232 233 193 240> -10 65<232 240 232 232> -6 21G<193 193> 444 66<204.5 266.5 173 274>
VStem: 46 77<194.5 320 194.5 344.5> 193 39<-45 -10 -45 -6 -45 -6> 275 63<-133 -106.5>
LayerCount: 2
Back
Fore
SplineSet
241 510 m 0xef
 292 510 362 495 362 495 c 1
 359 435 l 1
 359 435 292 444 256 444 c 0
 153 444 123 383 123 257 c 0
 123 132 140 55 256 55 c 0
 292 55 359 63 359 63 c 1
 362 4 l 1
 362 4 291 -10 240 -10 c 2
 232 -10 l 1xef
 232 -45 l 1
 240 -45 l 2
 290 -45 338 -57 338 -124 c 0
 338 -184 302 -211 249 -211 c 0
 208 -211 168 -204 168 -204 c 1
 171 -153 l 1
 171 -153 208 -156 233 -156 c 0
 260 -156 275 -146 275 -120 c 0
 275 -93 255 -88 233 -88 c 2
 193 -88 l 1
 193 -6 l 1xdf
 74 12 46 105 46 257 c 0
 46 432 105 510 241 510 c 0xef
EndSplineSet
EndChar
StartChar: igrave
Encoding: 236 236 186
Width: 207
Flags: MW
HStem: 0 21G<66 66 66 141> 480 20G<66 141 141 141>
VStem: 66 75<0 500 0 500>
LayerCount: 2
Back
Fore
SplineSet
66 0 m 1
 66 500 l 1
 141 500 l 1
 141 0 l 1
 66 0 l 1
-41 747 m 1
 165 653 l 1
 145 599 l 1
 -64 685 l 1
 -41 747 l 1
EndSplineSet
EndChar
StartChar: iacute
Encoding: 237 237 185
Width: 207
Flags: MW
HStem: 0 21G<66 66 66 141> 480 20G<66 141 141 141>
VStem: 66 75<0 500 0 500>
LayerCount: 2
Back
Fore
SplineSet
66 0 m 1
 66 500 l 1
 141 500 l 1
 141 0 l 1
 66 0 l 1
71 596 m 1
 50 652 l 1
 256 748 l 1
 279 682 l 1
 71 596 l 1
EndSplineSet
EndChar
StartChar: icircumflex
Encoding: 238 238 187
Width: 207
Flags: MW
HStem: 0 21G<66 66 66 141> 480 20G<66 141 141 141> 587 151<-44 131 -44 131 76 173 76 252>
VStem: 66 75<0 500 0 500>
LayerCount: 2
Back
Fore
SplineSet
-44 587 m 1
 76 738 l 1
 131 738 l 1
 252 587 l 1
 173 587 l 1
 104 672 l 1
 35 587 l 1
 -44 587 l 1
66 0 m 1
 66 500 l 1
 141 500 l 1
 141 0 l 1
 66 0 l 1
EndSplineSet
EndChar
StartChar: idieresis
Encoding: 239 239 171
Width: 207
Flags: MW
HStem: 0 21G<66 66 66 141> 480 20G<66 141 141 141> 620 93<-24 44 -24 44 165 232>
VStem: -24 68<620 713 620 713> 66 75<0 500 0 500> 165 67<620 713 620 713>
LayerCount: 2
Back
Fore
SplineSet
-24 620 m 1
 -24 713 l 1
 44 713 l 1
 44 620 l 1
 -24 620 l 1
165 620 m 1
 165 713 l 1
 232 713 l 1
 232 620 l 1
 165 620 l 1
66 0 m 1xe8
 66 500 l 1
 141 500 l 1
 141 0 l 1
 66 0 l 1xe8
EndSplineSet
EndChar
StartChar: eth
Encoding: 240 240 191
Width: 515
Flags: MW
HStem: -9 74<204.5 300.5 204.5 327> 360 71<201 271 173.5 274> 696 21G<383 383> 701 20G<104 104>
VStem: 40 76<166.5 256 166.5 279.5> 393 74<396 396>
LayerCount: 2
Back
Fore
SplineSet
251 596 m 1xdc
 150 519 l 1
 116 565 l 1
 191 622 l 1
 161 633 127 644 89 654 c 1
 104 721 l 1
 161 710 214 694 259 674 c 1
 348 741 l 1xdc
 383 696 l 1
 315 644 l 1xec
 411 584 467 493 467 358 c 0
 467 93 404 -9 250 -9 c 0
 110 -9 40 73 40 209 c 0
 40 350 110 431 237 431 c 0
 305 431 393 396 393 396 c 1
 384 486 346 547 251 596 c 1xdc
241 360 m 0
 161 360 116 304 116 208 c 0
 116 125 159 65 250 65 c 0
 351 65 392 130 393 324 c 1
 389 326 307 360 241 360 c 0
EndSplineSet
EndChar
StartChar: ntilde
Encoding: 241 241 172
Width: 501
Flags: MW
HStem: 614 66<322 345.5 322 351.5> 662 21G<183 210> 666 21G<415 415> 699 20G<400 400> 708 20G<178 218>
VStem: 141 224<0 290 0 352 0 352 0 425>
LayerCount: 2
Back
Fore
SplineSet
66 0 m 1x2c
 141 0 l 1
 141 352 l 1
 141 352 204 445 271 445 c 0
 339 445 365 397 365 290 c 2
 365 0 l 1
 439 0 l 1
 439 311 l 2
 439 433 395 510 286 510 c 0
 202 510 141 425 141 425 c 1
 140 500 l 1
 66 500 l 1
 66 0 l 1x2c
400 719 m 1x94
 415 666 l 1
 415 666 369 614 334 614 c 0x2c
 292 614 225 662 195 662 c 0
 171 662 124 620 124 620 c 1x4c
 110 673 l 1
 110 673 159 728 197 728 c 0x8c
 239 728 309 680 335 680 c 0
 356 680 400 719 400 719 c 1x94
EndSplineSet
EndChar
StartChar: ocircumflex
Encoding: 244 244 175
Width: 486
Flags: MW
HStem: -10 65<186 300 186 328.5> 445 65<193.5 292.5> 587 151<95 270 95 270 215 312 215 391>
VStem: 47 72<194 318.5 194 334.5> 367 72<194 318.5>
LayerCount: 2
Back
Fore
SplineSet
95 587 m 1
 215 738 l 1
 270 738 l 1
 391 587 l 1
 312 587 l 1
 243 672 l 1
 174 587 l 1
 95 587 l 1
243 510 m 0
 397 510 439 414 439 255 c 0
 439 97 414 -10 243 -10 c 0
 72 -10 47 97 47 255 c 0
 47 414 88 510 243 510 c 0
243 55 m 0
 357 55 367 133 367 255 c 0
 367 382 342 445 243 445 c 0
 144 445 119 382 119 255 c 0
 119 133 129 55 243 55 c 0
EndSplineSet
EndChar
StartChar: otilde
Encoding: 245 245 177
Width: 486
Flags: MW
HStem: -10 65<186 300 186 328.5> 445 65<193.5 292.5> 614 66<303 326.5 303 332.5> 662 21G<164 191> 666 21G<396 396> 699 20G<381 381> 708 20G<159 199>
VStem: 47 72<194 318.5 194 334.5> 367 72<194 318.5>
LayerCount: 2
Back
Fore
SplineSet
243 510 m 0xcb80
 397 510 439 414 439 255 c 0
 439 97 414 -10 243 -10 c 0
 72 -10 47 97 47 255 c 0
 47 414 88 510 243 510 c 0xcb80
243 55 m 0
 357 55 367 133 367 255 c 0
 367 382 342 445 243 445 c 0
 144 445 119 382 119 255 c 0
 119 133 129 55 243 55 c 0
381 719 m 1xe580
 396 666 l 1
 396 666 350 614 315 614 c 0xcb80
 273 614 206 662 176 662 c 0
 152 662 105 620 105 620 c 1xd380
 91 673 l 1
 91 673 140 728 178 728 c 0xe380
 220 728 290 680 316 680 c 0
 337 680 381 719 381 719 c 1xe580
EndSplineSet
EndChar
StartChar: odieresis
Encoding: 246 246 176
Width: 486
Flags: MW
HStem: -10 65<186 300 186 328.5> 445 65<193.5 292.5> 620 93<119 181 119 181 302 362>
VStem: 47 72<194 318.5 194 334.5> 119 62<620 713 620 713> 302 60<620 713 620 713> 367 72<194 318.5>
LayerCount: 2
Back
Fore
SplineSet
243 510 m 0xf2
 397 510 439 414 439 255 c 0
 439 97 414 -10 243 -10 c 0
 72 -10 47 97 47 255 c 0
 47 414 88 510 243 510 c 0xf2
243 55 m 0
 357 55 367 133 367 255 c 0
 367 382 342 445 243 445 c 0
 144 445 119 382 119 255 c 0
 119 133 129 55 243 55 c 0
119 620 m 1xec
 119 713 l 1
 181 713 l 1
 181 620 l 1
 119 620 l 1xec
302 620 m 1
 302 713 l 1
 362 713 l 1
 362 620 l 1
 302 620 l 1
EndSplineSet
EndChar
StartChar: oslash
Encoding: 248 248 193
Width: 486
Flags: MW
HStem: -9 65<233.5 300 233.5 328.5> 0 21G<170 170> 446 65<193.5 251.5> 483 20G<312 312>
VStem: 47 72<218 319.5 218 335.5> 367 72<195 293.5>
LayerCount: 2
Back
Fore
SplineSet
243 511 m 0x9c
 269 511 292 508 312 503 c 1
 351 605 l 1
 400 586 l 1
 358 482 l 1
 419 443 439 364 439 256 c 0
 439 98 414 -9 243 -9 c 0x9c
 215 -9 191 -6 170 0 c 1x5c
 129 -111 l 1
 81 -93 l 1
 125 19 l 1
 59 60 47 145 47 256 c 0
 47 415 88 511 243 511 c 0x9c
243 56 m 0
 357 56 367 134 367 256 c 0
 367 331 358 383 331 414 c 1
 262 241 l 1
 194 62 l 1
 208 58 224 56 243 56 c 0
152 88 m 1
 219 258 l 1
 288 440 l 1
 275 444 260 446 243 446 c 0xac
 144 446 119 383 119 256 c 0
 119 180 123 122 152 88 c 1
EndSplineSet
EndChar
StartChar: uacute
Encoding: 250 250 178
Width: 502
Flags: MW
HStem: -10 65<196.5 258> 0 21G<362 435 362 362> 480 20G<62 137 137 137 361 435 435 435>
VStem: 62 75<193 210 210 500> 361 74<75 75 148 500 0 500>
LayerCount: 2
Back
Fore
SplineSet
361 500 m 1xb8
 435 500 l 1
 435 0 l 1
 362 0 l 1x78
 361 75 l 1
 361 75 300 -10 216 -10 c 0
 107 -10 62 58 62 193 c 2
 62 500 l 1
 137 500 l 1
 137 210 l 2
 137 103 162 55 231 55 c 0
 298 55 361 148 361 148 c 1
 361 500 l 1xb8
180 596 m 1
 159 652 l 1
 365 748 l 1
 388 682 l 1
 180 596 l 1
EndSplineSet
EndChar
StartChar: ucircumflex
Encoding: 251 251 180
Width: 502
Flags: MW
HStem: -10 65<196.5 258> 0 21G<362 435 362 362> 480 20G<62 137 137 137 361 435 435 435> 587 151<103 277 103 277 223 320 223 399>
VStem: 62 75<193 210 210 500> 361 74<75 75 148 500 0 500>
LayerCount: 2
Back
Fore
SplineSet
103 587 m 1xbc
 223 738 l 1
 277 738 l 1
 399 587 l 1
 320 587 l 1
 251 672 l 1
 182 587 l 1
 103 587 l 1xbc
361 500 m 1
 435 500 l 1
 435 0 l 1
 362 0 l 1x7c
 361 75 l 1
 361 75 300 -10 216 -10 c 0
 107 -10 62 58 62 193 c 2
 62 500 l 1
 137 500 l 1
 137 210 l 2
 137 103 162 55 231 55 c 0
 298 55 361 148 361 148 c 1
 361 500 l 1
EndSplineSet
EndChar
StartChar: udieresis
Encoding: 252 252 181
Width: 502
Flags: MW
HStem: -10 65<196.5 258> 0 21G<362 435 362 362> 480 20G<62 137 137 137 361 435 435 435> 620 93<122 191 122 191 312 379>
VStem: 62 75<193 210 210 500> 122 69<620 713 620 713> 312 67<620 713 620 713> 361 74<75 75 148 500 0 500>
LayerCount: 2
Back
Fore
SplineSet
122 620 m 1xb6
 122 713 l 1
 191 713 l 1
 191 620 l 1
 122 620 l 1xb6
312 620 m 1
 312 713 l 1
 379 713 l 1
 379 620 l 1
 312 620 l 1
361 500 m 1xb9
 435 500 l 1
 435 0 l 1
 362 0 l 1x79
 361 75 l 1
 361 75 300 -10 216 -10 c 0
 107 -10 62 58 62 193 c 2
 62 500 l 1
 137 500 l 1
 137 210 l 2
 137 103 162 55 231 55 c 0
 298 55 361 148 361 148 c 1
 361 500 l 1xb9
EndSplineSet
EndChar
StartChar: yacute
Encoding: 253 253 154
Width: 448
Flags: MW
HStem: -222 21G<161 233 161 161> 0 64<208 224 155 239> 480 20G<24 98 98 98 351 425 425 425>
VStem: 24 401<500 500>
LayerCount: 2
Back
Fore
SplineSet
24 500 m 1
 98 500 l 1
 208 64 l 1
 239 64 l 1
 351 500 l 1
 425 500 l 1
 233 -222 l 1
 161 -222 l 1
 224 0 l 1
 155 0 l 1
 24 500 l 1
163 596 m 1
 142 652 l 1
 348 748 l 1
 371 682 l 1
 163 596 l 1
EndSplineSet
EndChar
StartChar: thorn
Encoding: 254 254 447
Width: 493
Flags: MW
HStem: -10 68<223 288.5 223 312.5> -3 21G<140 140> 441 69<245 305>
VStem: 66 74<-220 -3 68 362 437 716> 370 77<189 296.5>
LayerCount: 2
Back
Fore
SplineSet
140 362 m 1xb8
 140 68 l 1
 140 68 208 58 238 58 c 0
 339 58 370 127 370 251 c 0
 370 342 347 441 263 441 c 0
 203 441 140 362 140 362 c 1xb8
275 510 m 0
 410 510 447 388 447 251 c 0xb8
 447 72 387 -10 238 -10 c 0
 197 -10 140 -3 140 -3 c 1x78
 140 -220 l 1
 66 -220 l 1
 66 716 l 1
 140 716 l 1
 140 437 l 1
 159 452 215 510 275 510 c 0
EndSplineSet
EndChar
StartChar: ydieresis
Encoding: 255 255 152
Width: 448
Flags: MW
HStem: -222 21G<161 233 161 161> 0 64<208 224 155 239> 480 20G<24 98 98 98 351 425 425 425> 620 93<96 165 96 165 285 353>
VStem: 96 69<620 713 620 713> 285 68<620 713 620 713>
LayerCount: 2
Back
Fore
SplineSet
96 620 m 1
 96 713 l 1
 165 713 l 1
 165 620 l 1
 96 620 l 1
285 620 m 1
 285 713 l 1
 353 713 l 1
 353 620 l 1
 285 620 l 1
24 500 m 1
 98 500 l 1
 208 64 l 1
 239 64 l 1
 351 500 l 1
 425 500 l 1
 233 -222 l 1
 161 -222 l 1
 224 0 l 1
 155 0 l 1
 24 500 l 1
EndSplineSet
EndChar
StartChar: Amacron
Encoding: 256 256 22
Width: 553
Flags: MW
HStem: 0 21G<22 22 22 99 454 454 454 530> 176 68<162 390 162 406 147 390> 624 68<262 262 262 291> 829 60<129 422 129 422>
VStem: 22 508<0 0>
LayerCount: 2
Back
Fore
SplineSet
129 829 m 1
 129 889 l 1
 422 889 l 1
 422 829 l 1
 129 829 l 1
22 0 m 1
 201 692 l 1
 352 692 l 1
 530 0 l 1
 454 0 l 1
 406 176 l 1
 147 176 l 1
 99 0 l 1
 22 0 l 1
262 624 m 1
 162 244 l 1
 390 244 l 1
 291 624 l 1
 262 624 l 1
EndSplineSet
Position2: "'cpsp' Capital Spacing in Latin lookup 0 subtable" dx=5 dy=0 dh=10 dv=0
EndChar
StartChar: Abreve
Encoding: 258 258 18
Width: 553
Flags: MW
HStem: 0 21G<22 22 22 99 454 454 454 530> 176 68<162 390 162 406 147 390> 624 68<262 262 262 291> 795 58<254 297 254 326>
VStem: 135 68<900 922 900 922> 350 67<900 922>
LayerCount: 2
Back
Fore
SplineSet
135 922 m 1
 203 922 l 1
 203 878 232 853 276 853 c 0
 318 853 350 878 350 922 c 1
 417 922 l 1
 417 860 376 795 276 795 c 0
 177 795 135 860 135 922 c 1
22 0 m 1
 201 692 l 1
 352 692 l 1
 530 0 l 1
 454 0 l 1
 406 176 l 1
 147 176 l 1
 99 0 l 1
 22 0 l 1
262 624 m 1
 162 244 l 1
 390 244 l 1
 291 624 l 1
 262 624 l 1
EndSplineSet
Position2: "'cpsp' Capital Spacing in Latin lookup 0 subtable" dx=5 dy=0 dh=10 dv=0
EndChar
StartChar: abreve
Encoding: 259 259 302
Width: 493
Flags: MW
HStem: -10 65<182 253> -2 21G<358 358> 445 65<202 269.5> 593 62<231.5 281 231.5 304>
VStem: 47 76<185 307 185 319.5> 112 66<708.5 731 708.5 731> 335 65<708.5 731> 352 75<159 436 436 436>
LayerCount: 2
Back
Fore
SplineSet
207 -10 m 0xb9
 88 -10 47 76 47 240 c 0
 47 399 85 510 247 510 c 0
 304 510 427 493 427 493 c 1
 427 123 l 2
 427 76 433 1 433 1 c 1
 358 -2 l 1x79
 358 -2 353 44 353 84 c 1
 353 84 299 -10 207 -10 c 0xb9
256 445 m 0
 148 445 123 374 123 240 c 0
 123 130 142 55 222 55 c 0
 298 55 352 159 352 159 c 1
 352 436 l 1
 352 436 283 445 256 445 c 0
112 731 m 1xb6
 178 731 l 1
 178 686 207 655 256 655 c 0
 306 655 335 686 335 731 c 1
 400 731 l 1
 400 655 352 593 256 593 c 0
 161 593 112 655 112 731 c 1xb6
EndSplineSet
EndChar
StartChar: Aogonek
Encoding: 260 260 23
Width: 552
Flags: MW
HStem: -204 67<484.5 489.5> 0 21G<22 22 22 99 454 454 525 525 525 530> 176 68<162 390 162 406 147 390> 624 68<262 262 262 291>
VStem: 388 74<-115 -101.5>
LayerCount: 2
Back
Fore
SplineSet
22 0 m 1
 201 692 l 1
 352 692 l 1
 528 5 l 1
 530 5 l 1
 529 4 l 1
 530 0 l 1
 525 0 l 1
 490 -39 462 -76 462 -106 c 0
 462 -124 476 -137 493 -137 c 0
 508 -137 542 -131 542 -131 c 1
 548 -195 l 1
 548 -195 506 -204 473 -204 c 0
 422 -204 388 -173 388 -123 c 0
 388 -80 423 -32 454 0 c 1
 406 176 l 1
 147 176 l 1
 99 0 l 1
 22 0 l 1
262 624 m 1
 162 244 l 1
 390 244 l 1
 291 624 l 1
 262 624 l 1
EndSplineSet
Position2: "'cpsp' Capital Spacing in Latin lookup 0 subtable" dx=5 dy=0 dh=10 dv=0
EndChar
StartChar: aogonek
Encoding: 261 261 304
Width: 493
Flags: MW
HStem: -204 67<383.5 388.5> -10 65<182 253> 0 21G<425 425> 445 65<202 269.5>
VStem: 47 76<185 307 185 319.5> 287 74<-115 -100.5> 352 75<159 436 436 436>
LayerCount: 2
Back
Fore
SplineSet
441 -131 m 1xbc
 447 -195 l 1
 447 -195 405 -204 372 -204 c 0
 321 -204 287 -173 287 -123 c 0xdc
 287 -78 326 -28 357 5 c 1
 355 18 353 52 353 84 c 1
 353 84 299 -10 207 -10 c 0x5a
 88 -10 47 76 47 240 c 0
 47 399 85 510 247 510 c 0
 304 510 427 493 427 493 c 1
 427 123 l 2x3a
 427 76 433 1 433 1 c 1
 425 0 l 1
 390 -39 361 -76 361 -106 c 0
 361 -124 375 -137 392 -137 c 0
 407 -137 441 -131 441 -131 c 1xbc
256 445 m 0x5a
 148 445 123 374 123 240 c 0
 123 130 142 55 222 55 c 0
 298 55 352 159 352 159 c 1
 352 436 l 1
 352 436 283 445 256 445 c 0x5a
EndSplineSet
EndChar
StartChar: Cacute
Encoding: 262 262 30
Width: 501
Flags: MW
HStem: -10 68<229 327.5> 634 68<229.5 329.5 196 331.5>
VStem: 53 79<258.5 435 258.5 457.5>
LayerCount: 2
Back
Fore
SplineSet
459 75 m 1
 463 11 l 1
 463 11 367 -10 288 -10 c 0
 96 -10 53 125 53 345 c 0
 53 570 104 702 288 702 c 0
 371 702 464 681 464 681 c 1
 459 617 l 1
 459 617 365 634 298 634 c 0
 161 634 132 525 132 345 c 0
 132 172 159 58 299 58 c 0
 359 58 459 75 459 75 c 1
218 785 m 1
 196 840 l 1
 402 936 l 1
 426 871 l 1
 218 785 l 1
EndSplineSet
Position2: "'cpsp' Capital Spacing in Latin lookup 0 subtable" dx=5 dy=0 dh=10 dv=0
EndChar
StartChar: Ccircumflex
Encoding: 264 264 33
Width: 501
Flags: MW
HStem: -10 68<229 327.5> 634 68<229.5 329.5 196 331.5> 793 138<142 314 142 314 273 373 273 446>
VStem: 53 79<258.5 435 258.5 457.5>
LayerCount: 2
Back
Fore
SplineSet
459 75 m 1
 463 11 l 1
 463 11 367 -10 288 -10 c 0
 96 -10 53 125 53 345 c 0
 53 570 104 702 288 702 c 0
 371 702 464 681 464 681 c 1
 459 617 l 1
 459 617 365 634 298 634 c 0
 161 634 132 525 132 345 c 0
 132 172 159 58 299 58 c 0
 359 58 459 75 459 75 c 1
142 793 m 1
 273 931 l 1
 314 931 l 1
 446 793 l 1
 373 793 l 1
 294 874 l 1
 215 793 l 1
 142 793 l 1
EndSplineSet
Position2: "'cpsp' Capital Spacing in Latin lookup 0 subtable" dx=5 dy=0 dh=10 dv=0
EndChar
StartChar: ccircumflex
Encoding: 265 265 307
Width: 399
Flags: MW
HStem: -10 65<198 265.5> 444 66<204.5 266.5 173 274> 587 151<96 257 96 257 216 306 216 379>
VStem: 46 77<194.5 320 194.5 344.5>
LayerCount: 2
Back
Fore
SplineSet
241 510 m 0
 292 510 362 495 362 495 c 1
 359 435 l 1
 359 435 292 444 256 444 c 0
 153 444 123 383 123 257 c 0
 123 132 140 55 256 55 c 0
 292 55 359 63 359 63 c 1
 362 4 l 1
 362 4 291 -10 240 -10 c 0
 82 -10 46 87 46 257 c 0
 46 432 105 510 241 510 c 0
96 587 m 1
 216 738 l 1
 257 738 l 1
 379 587 l 1
 306 587 l 1
 238 672 l 1
 168 587 l 1
 96 587 l 1
EndSplineSet
EndChar
StartChar: Cdotaccent
Encoding: 266 266 34
Width: 501
Flags: MW
HStem: -10 68<229 327.5> 634 68<229.5 329.5 196 331.5> 793 90<251 315 251 315>
VStem: 53 79<258.5 435 258.5 457.5> 251 64<793 883 793 883>
LayerCount: 2
Back
Fore
SplineSet
459 75 m 1
 463 11 l 1
 463 11 367 -10 288 -10 c 0
 96 -10 53 125 53 345 c 0
 53 570 104 702 288 702 c 0
 371 702 464 681 464 681 c 1
 459 617 l 1
 459 617 365 634 298 634 c 0
 161 634 132 525 132 345 c 0
 132 172 159 58 299 58 c 0
 359 58 459 75 459 75 c 1
251 793 m 1
 251 883 l 1
 315 883 l 1
 315 793 l 1
 251 793 l 1
EndSplineSet
Position2: "'cpsp' Capital Spacing in Latin lookup 0 subtable" dx=5 dy=0 dh=10 dv=0
EndChar
StartChar: Dcaron
Encoding: 270 270 36
Width: 599
Flags: MW
HStem: 692 237<126 203 126 306 77 203> 792 137<126 300 126 254>
VStem: 153 313<268.5 448.5 268.5 624 268.5 624>
LayerCount: 2
Back
Fore
SplineSet
77 0 m 1xa0
 306 0 l 2
 494 0 546 122 546 359 c 0
 546 589 489 692 306 692 c 2
 77 692 l 1
 77 0 l 1xa0
466 359 m 0
 466 178 438 68 306 68 c 2
 153 68 l 1
 153 624 l 1
 306 624 l 2
 438 624 466 538 466 359 c 0
428 929 m 1
 300 792 l 1
 254 792 l 1x60
 126 929 l 1
 203 929 l 1
 277 848 l 1
 351 929 l 1
 428 929 l 1
EndSplineSet
Position2: "'cpsp' Capital Spacing in Latin lookup 0 subtable" dx=5 dy=0 dh=10 dv=0
EndChar
StartChar: dcaron
Encoding: 271 271 310
Width: 545
Flags: MW
HStem: -10 65<182 251.5> 0 21G<354 427 354 354> 445 65<199.5 266.5 170 271.5> 460 236<488 556 488 556> 698 20G<352 427 427 427>
VStem: 47 76<190.5 307.5 190.5 329.5> 352 75<150 434 434 434 497 718 0 718> 488 68<460 696 460 696>
LayerCount: 2
Back
Fore
SplineSet
556 696 m 1x97
 556 460 l 1
 488 460 l 1
 488 696 l 1
 556 696 l 1x97
427 718 m 1xaf
 427 0 l 1
 354 0 l 1x6f
 353 73 l 1
 353 73 298 -10 205 -10 c 0
 86 -10 47 86 47 243 c 0
 47 416 99 510 241 510 c 0
 292 510 352 497 352 497 c 1
 352 718 l 1
 427 718 l 1xaf
352 150 m 1xaf
 352 434 l 1
 352 434 295 445 248 445 c 0
 151 445 123 372 123 243 c 0
 123 138 139 55 225 55 c 0
 298 55 352 150 352 150 c 1xaf
EndSplineSet
EndChar
StartChar: Dcroat
Encoding: 272 272 37
Width: 603
Flags: MW
HStem: 0 68<157 310 157 310> 309 77<12 81 12 81 12 157 157 296> 624 68<157 310 157 157>
VStem: 81 76<68 309 68 309 68 309 386 624> 470 80<268.5 448.5>
LayerCount: 2
Back
Fore
SplineSet
310 0 m 2
 81 0 l 1
 81 309 l 1
 12 309 l 1
 12 386 l 1
 81 386 l 1
 81 692 l 1
 310 692 l 2
 493 692 550 589 550 359 c 0
 550 122 498 0 310 0 c 2
470 359 m 0
 470 538 442 624 310 624 c 2
 157 624 l 1
 157 386 l 1
 296 386 l 1
 296 309 l 1
 157 309 l 1
 157 68 l 1
 310 68 l 2
 442 68 470 178 470 359 c 0
EndSplineSet
Position2: "'cpsp' Capital Spacing in Latin lookup 0 subtable" dx=5 dy=0 dh=10 dv=0
EndChar
StartChar: dcroat
Encoding: 273 273 311
Width: 493
Flags: MW
HStem: -10 65<182 251.5> 0 21G<354 427 354 354> 445 65<199.5 266.5 170 271.5> 587 70<198 352 198 352 427 473> 587 131<198 427 352 473 352 427>
VStem: 47 76<190.5 307.5 190.5 329.5> 352 75<150 434 434 434 497 587 0 587 657 718>
LayerCount: 2
Back
Fore
SplineSet
427 718 m 1xae
 427 657 l 1
 473 657 l 1xb6
 473 587 l 1
 427 587 l 1
 427 0 l 1
 354 0 l 1x6e
 353 73 l 1
 353 73 298 -10 205 -10 c 0
 86 -10 47 86 47 243 c 0
 47 416 99 510 241 510 c 0
 292 510 352 497 352 497 c 1
 352 587 l 1
 198 587 l 1xae
 198 657 l 1
 352 657 l 1xb6
 352 718 l 1
 427 718 l 1xae
352 150 m 1
 352 434 l 1
 352 434 295 445 248 445 c 0
 151 445 123 372 123 243 c 0
 123 138 139 55 225 55 c 0
 298 55 352 150 352 150 c 1
EndSplineSet
EndChar
StartChar: emacron
Encoding: 275 275 313
Width: 453
Flags: MW
HStem: -9 64<197.5 273.5 197.5 279.5> 223 58<122 172 172 173 121 172> 447 62<203 277> 639 59<112 386 112 386>
VStem: 45 76<161 208 208 223 161 325> 341 74<336.5 401.5>
LayerCount: 2
Back
Fore
SplineSet
238 55 m 0
 309 55 393 74 393 74 c 1
 397 19 l 1
 397 19 325 -9 234 -9 c 0
 102 -9 45 66 45 242 c 0
 45 408 105 509 248 509 c 0
 350 509 415 470 415 375 c 0
 415 254 338 223 173 223 c 2
 121 223 l 1
 121 208 l 2
 121 114 157 55 238 55 c 0
122 281 m 1
 172 281 l 2
 293 281 341 299 341 374 c 0
 341 429 306 447 248 447 c 0
 158 447 123 386 122 281 c 1
112 639 m 1
 112 698 l 1
 386 698 l 1
 386 639 l 1
 112 639 l 1
EndSplineSet
EndChar
StartChar: Ebreve
Encoding: 276 276 40
Width: 507
Flags: MW
HStem: 0 68<153 464 153 464> 318 68<153 408 153 408> 624 68<153 464 153 153> 796 58<244 287 244 316>
VStem: 77 76<68 318 386 624> 125 68<901 923 901 923> 340 67<901 923>
LayerCount: 2
Back
Fore
SplineSet
125 923 m 1xf6
 193 923 l 1
 193 879 222 854 266 854 c 0
 308 854 340 879 340 923 c 1
 407 923 l 1
 407 861 366 796 266 796 c 0
 167 796 125 861 125 923 c 1xf6
77 0 m 1xf8
 77 692 l 1
 464 692 l 1
 464 624 l 1
 153 624 l 1
 153 386 l 1
 408 386 l 1
 408 318 l 1
 153 318 l 1
 153 68 l 1
 464 68 l 1
 464 0 l 1
 77 0 l 1xf8
EndSplineSet
Position2: "'cpsp' Capital Spacing in Latin lookup 0 subtable" dx=5 dy=0 dh=10 dv=0
EndChar
StartChar: ebreve
Encoding: 277 277 314
Width: 453
Flags: MW
HStem: -9 64<197.5 273.5 197.5 279.5> 223 58<122 172 172 173 121 172> 447 62<203 277> 593 62<219.5 269 219.5 292>
VStem: 45 76<161 208 208 223 161 325> 100 66<708.5 731 708.5 731> 323 65<708.5 731> 341 74<336.5 401.5>
LayerCount: 2
Back
Fore
SplineSet
238 55 m 0xf9
 309 55 393 74 393 74 c 1
 397 19 l 1
 397 19 325 -9 234 -9 c 0
 102 -9 45 66 45 242 c 0
 45 408 105 509 248 509 c 0
 350 509 415 470 415 375 c 0
 415 254 338 223 173 223 c 2
 121 223 l 1
 121 208 l 2
 121 114 157 55 238 55 c 0xf9
122 281 m 1
 172 281 l 2
 293 281 341 299 341 374 c 0
 341 429 306 447 248 447 c 0
 158 447 123 386 122 281 c 1
100 731 m 1xf6
 166 731 l 1
 166 686 195 655 244 655 c 0
 294 655 323 686 323 731 c 1
 388 731 l 1
 388 655 340 593 244 593 c 0
 149 593 100 655 100 731 c 1xf6
EndSplineSet
EndChar
StartChar: Eogonek
Encoding: 280 280 47
Width: 507
Flags: MW
HStem: -204 67<403.5 408.5> 0 68<153 372 444 444 444 464> 318 68<153 408 153 408> 624 68<153 464 153 153>
VStem: 77 76<68 318 386 624> 307 74<-115 -101.5>
LayerCount: 2
Back
Fore
SplineSet
77 0 m 1
 77 692 l 1
 464 692 l 1
 464 624 l 1
 153 624 l 1
 153 386 l 1
 408 386 l 1
 408 318 l 1
 153 318 l 1
 153 68 l 1
 464 68 l 1
 464 0 l 1
 444 0 l 1
 409 -39 381 -76 381 -106 c 0
 381 -124 395 -137 412 -137 c 0
 427 -137 461 -131 461 -131 c 1
 467 -195 l 1
 467 -195 425 -204 392 -204 c 0
 341 -204 307 -173 307 -123 c 0
 307 -80 342 -33 372 0 c 1
 77 0 l 1
EndSplineSet
Position2: "'cpsp' Capital Spacing in Latin lookup 0 subtable" dx=5 dy=0 dh=10 dv=0
EndChar
StartChar: eogonek
Encoding: 281 281 316
Width: 453
Flags: MW
HStem: -184 67<349.5 354.5> -9 64<197.5 245.5> 223 58<122 172 172 173 121 172> 447 62<203 277>
VStem: 45 76<161 208 208 223 161 325> 253 74<-95 -86.5> 341 74<336.5 401.5>
LayerCount: 2
Back
Fore
SplineSet
407 -111 m 1
 413 -175 l 1
 413 -175 371 -184 338 -184 c 0
 287 -184 253 -153 253 -103 c 0
 253 -70 274 -35 297 -5 c 1xfe
 277 -7 257 -9 234 -9 c 0
 102 -9 45 66 45 242 c 0
 45 408 105 509 248 509 c 0
 350 509 415 470 415 375 c 0x7a
 415 254 338 223 173 223 c 2
 121 223 l 1
 121 208 l 2
 121 114 157 55 238 55 c 0
 309 55 393 74 393 74 c 1
 397 19 l 1
 397 19 392 17 385 15 c 0
 352 -22 327 -57 327 -86 c 0
 327 -104 341 -117 358 -117 c 0
 373 -117 407 -111 407 -111 c 1
122 281 m 1
 172 281 l 2
 293 281 341 299 341 374 c 0x7a
 341 429 306 447 248 447 c 0
 158 447 123 386 122 281 c 1
EndSplineSet
EndChar
StartChar: Ecaron
Encoding: 282 282 41
Width: 507
Flags: MW
HStem: 0 68<153 464 153 464> 318 68<153 408 153 408> 624 68<153 464 153 153> 799 137<121 295 121 249>
VStem: 77 76<68 318 386 624>
LayerCount: 2
Back
Fore
SplineSet
423 936 m 1
 295 799 l 1
 249 799 l 1
 121 936 l 1
 198 936 l 1
 272 855 l 1
 346 936 l 1
 423 936 l 1
77 0 m 1
 77 692 l 1
 464 692 l 1
 464 624 l 1
 153 624 l 1
 153 386 l 1
 408 386 l 1
 408 318 l 1
 153 318 l 1
 153 68 l 1
 464 68 l 1
 464 0 l 1
 77 0 l 1
EndSplineSet
Position2: "'cpsp' Capital Spacing in Latin lookup 0 subtable" dx=5 dy=0 dh=10 dv=0
EndChar
StartChar: Gcircumflex
Encoding: 284 284 51
Width: 574
Flags: MW
HStem: -10 68<237.5 335 237.5 339.5> 295 66<332 514 332 437> 634 68<231.5 352.5> 783 151<160 335 160 335 280 377 280 456>
VStem: 52 79<269.5 429 269.5 455.5> 437 77<71 295 295 295>
LayerCount: 2
Back
Fore
SplineSet
160 783 m 1
 280 934 l 1
 335 934 l 1
 456 783 l 1
 377 783 l 1
 308 868 l 1
 239 783 l 1
 160 783 l 1
332 295 m 1
 332 361 l 1
 514 361 l 1
 514 12 l 1
 514 12 377 -10 302 -10 c 0
 107 -10 52 149 52 347 c 0
 52 564 103 702 306 702 c 0
 412 702 514 676 514 676 c 1
 510 615 l 1
 510 615 394 634 311 634 c 0
 152 634 131 511 131 347 c 0
 131 192 165 58 310 58 c 0
 360 58 437 71 437 71 c 1
 437 295 l 1
 332 295 l 1
EndSplineSet
Position2: "'cpsp' Capital Spacing in Latin lookup 0 subtable" dx=5 dy=0 dh=10 dv=0
EndChar
StartChar: Gbreve
Encoding: 286 286 50
Width: 574
Flags: MW
HStem: -10 68<237.5 335 237.5 339.5> 295 66<332 514 332 437> 634 68<231.5 352.5> 782 70<289.5 335 289.5 356.5>
VStem: 52 79<269.5 429 269.5 455.5> 159 72<923.5 927 923.5 927> 437 77<71 295 295 295>
LayerCount: 2
Back
Fore
SplineSet
159 927 m 1
 231 927 l 1
 231 920 232 913 233 906 c 0
 242 874 269 852 310 852 c 0
 360 852 387 883 389 927 c 1
 461 927 l 1
 457 844 403 782 310 782 c 0
 231 782 181 827 165 888 c 0
 161 900 159 913 159 927 c 1
332 295 m 1
 332 361 l 1
 514 361 l 1
 514 12 l 1
 514 12 377 -10 302 -10 c 0
 107 -10 52 149 52 347 c 0
 52 564 103 702 306 702 c 0
 412 702 514 676 514 676 c 1
 510 615 l 1
 510 615 394 634 311 634 c 0
 152 634 131 511 131 347 c 0xfa
 131 192 165 58 310 58 c 0
 360 58 437 71 437 71 c 1
 437 295 l 1
 332 295 l 1
EndSplineSet
Position2: "'cpsp' Capital Spacing in Latin lookup 0 subtable" dx=5 dy=0 dh=10 dv=0
EndChar
StartChar: gdotaccent
Encoding: 289 289 319
Width: 470
Flags: MW
HStem: -235 64<197 279.5 197 297> 9 65<246 295.5> 169 65<210 255.5 182.5 274.5> 437 61 447 63<184 239 163.5 256> 605 89<186 250 186 250>
VStem: 40 71<-120.5 -70> 47 71<305.5 372 305.5 392.5> 107 69<101 119.5> 186 64<605 694 605 694> 324 71<305.5 358 283.5 372.5> 375 72<-97.5 -31>
LayerCount: 2
Back
Fore
SplineSet
235 -235 m 0xee50
 119 -235 40 -210 40 -100 c 0xee50
 40 -40 86 13 132 43 c 1
 114 58 107 75 107 103 c 0xecd0
 107 136 139 183 139 183 c 1
 72 208 47 265 47 338 c 0
 47 447 109 510 218 510 c 0xed50
 260 510 306 497 306 497 c 1
 449 499 l 1
 449 437 l 1
 361 437 l 1
 381 418 395 378 395 338 c 0
 395 229 332 169 217 169 c 0
 203 169 193 171 193 171 c 1
 193 171 176 134 176 112 c 0xf4e0
 176 90 184 74 264 74 c 0
 375 74 447 53 447 -63 c 0
 447 -167 359 -235 235 -235 c 0xee50
260 9 m 0
 232 9 197 12 179 16 c 1
 147 -1 111 -44 111 -88 c 0
 111 -153 156 -171 238 -171 c 0
 321 -171 375 -132 375 -63 c 0
 375 1 331 9 260 9 c 0
217 234 m 0xed60
 294 234 324 273 324 338 c 0
 324 407 294 447 218 447 c 0
 150 447 118 406 118 338 c 0
 118 273 148 234 217 234 c 0xed60
186 605 m 1
 186 694 l 1
 250 694 l 1
 250 605 l 1
 186 605 l 1
EndSplineSet
EndChar
StartChar: Gcommaaccent
Encoding: 290 290 52
Width: 574
Flags: MW
HStem: -10 68<236.5 334 236.5 338.5> 295 66<331 513 331 436> 634 68<230.5 351.5>
VStem: 51 79<269.5 429 269.5 455.5> 436 77<71 295 295 295>
LayerCount: 2
Back
Fore
SplineSet
331 295 m 1
 331 361 l 1
 513 361 l 1
 513 12 l 1
 513 12 376 -10 301 -10 c 0
 106 -10 51 149 51 347 c 0
 51 564 102 702 305 702 c 0
 411 702 513 676 513 676 c 1
 509 615 l 1
 509 615 393 634 310 634 c 0
 151 634 130 511 130 347 c 0
 130 192 164 58 309 58 c 0
 359 58 436 71 436 71 c 1
 436 295 l 1
 331 295 l 1
284 -73 m 1
 245 -283 l 1
 306 -283 l 1
 353 -73 l 1
 284 -73 l 1
EndSplineSet
Position2: "'cpsp' Capital Spacing in Latin lookup 0 subtable" dx=5 dy=0 dh=10 dv=0
EndChar
StartChar: hcircumflex
Encoding: 293 293 321
Width: 501
Flags: MW
HStem: 0 21G<66 141 66 66 365 365 365 439> 445 65<244 305> 698 20G<66 141 141 141> 763 138<101 273 101 273 232 332 232 405>
VStem: 66 75<0 354 426 718> 365 74<0 290 290 312 0 343.5>
LayerCount: 2
Back
Fore
SplineSet
141 0 m 1
 66 0 l 1
 66 718 l 1
 141 718 l 1
 141 426 l 1
 141 426 202 510 286 510 c 0
 396 510 439 433 439 312 c 2
 439 0 l 1
 365 0 l 1
 365 290 l 2
 365 397 339 445 271 445 c 0
 204 445 141 354 141 354 c 1
 141 0 l 1
101 763 m 1
 232 901 l 1
 273 901 l 1
 405 763 l 1
 332 763 l 1
 253 844 l 1
 174 763 l 1
 101 763 l 1
EndSplineSet
EndChar
StartChar: Hbar
Encoding: 294 294 55
Width: 640
Flags: MW
HStem: 0 21G<86 157 86 86 480 552 480 480> 312 76<157 480 157 480> 503 69<8 86 8 86 157 480 552 633>
VStem: 86 71<0 312 388 503 572 692> 480 72<0 312 312 312 388 503 0 503 572 692>
LayerCount: 2
Back
Fore
SplineSet
8 503 m 1
 8 572 l 1
 86 572 l 1
 86 692 l 1
 157 692 l 1
 157 572 l 1
 480 572 l 1
 480 692 l 1
 552 692 l 1
 552 572 l 1
 633 572 l 1
 633 503 l 1
 552 503 l 1
 552 0 l 1
 480 0 l 1
 480 312 l 1
 157 312 l 1
 157 0 l 1
 86 0 l 1
 86 503 l 1
 8 503 l 1
157 388 m 1
 480 388 l 1
 480 503 l 1
 157 503 l 1
 157 388 l 1
EndSplineSet
Position2: "'cpsp' Capital Spacing in Latin lookup 0 subtable" dx=5 dy=0 dh=10 dv=0
EndChar
StartChar: hbar
Encoding: 295 295 322
Width: 501
Flags: MW
HStem: 0 21G<66 141 66 66 365 439 365 365> 445 65<244 305> 579 65<8 66 8 66 141 282> 579 139<8 141 8 141 66 141 66 282>
VStem: 66 75<0 354 426 579 644 718> 365 74<0 290 290 312 0 343.5>
LayerCount: 2
Back
Fore
SplineSet
8 579 m 1xdc
 8 644 l 1
 66 644 l 1xec
 66 718 l 1
 141 718 l 1xdc
 141 644 l 1
 282 644 l 1xec
 282 579 l 1
 141 579 l 1
 141 426 l 1
 141 426 202 510 286 510 c 0
 396 510 439 433 439 312 c 2
 439 0 l 1
 365 0 l 1
 365 290 l 2
 365 397 339 445 271 445 c 0
 204 445 141 354 141 354 c 1
 141 0 l 1
 66 0 l 1
 66 579 l 1
 8 579 l 1xdc
EndSplineSet
EndChar
StartChar: Itilde
Encoding: 296 296 66
Width: 230
Flags: MW
HStem: 0 21G<77 77 77 153> 798 66<180 204 180 211> 854 65<28.5 56.5>
VStem: 77 76<0 692 0 692>
LayerCount: 2
Back
Fore
SplineSet
265 909 m 1xd0
 281 858 l 1
 281 858 228 798 194 798 c 0xd0
 150 798 73 854 40 854 c 0
 17 854 -36 806 -36 806 c 1
 -50 858 l 1
 -50 858 4 919 42 919 c 0xb0
 90 919 166 864 194 864 c 0
 214 864 265 909 265 909 c 1xd0
77 0 m 1
 77 692 l 1
 153 692 l 1
 153 0 l 1
 77 0 l 1
EndSplineSet
Position2: "'cpsp' Capital Spacing in Latin lookup 0 subtable" dx=5 dy=0 dh=10 dv=0
EndChar
StartChar: itilde
Encoding: 297 297 323
Width: 207
Flags: MW
HStem: 0 21G<66 66 66 141> 480 20G<66 141 141 141> 614 66<163 186.5 163 192.5> 662 21G<24 51> 666 21G<256 256> 699 20G<241 241> 708 20G<19 59>
VStem: 66 75<0 500 0 500>
LayerCount: 2
Back
Fore
SplineSet
66 0 m 1xcb
 66 500 l 1
 141 500 l 1
 141 0 l 1
 66 0 l 1xcb
241 719 m 1xe5
 256 666 l 1
 256 666 210 614 175 614 c 0xcb
 133 614 66 662 36 662 c 0
 12 662 -35 620 -35 620 c 1xd3
 -49 673 l 1
 -49 673 0 728 38 728 c 0xe3
 80 728 150 680 176 680 c 0
 197 680 241 719 241 719 c 1xe5
EndSplineSet
EndChar
StartChar: Imacron
Encoding: 298 298 64
Width: 230
Flags: MW
HStem: 0 21G<77 77 77 153> 833 60<-33 260 -33 260>
VStem: 77 76<0 692 0 692>
LayerCount: 2
Back
Fore
SplineSet
-33 833 m 1
 -33 893 l 1
 260 893 l 1
 260 833 l 1
 -33 833 l 1
77 0 m 1
 77 692 l 1
 153 692 l 1
 153 0 l 1
 77 0 l 1
EndSplineSet
Position2: "'cpsp' Capital Spacing in Latin lookup 0 subtable" dx=5 dy=0 dh=10 dv=0
EndChar
StartChar: imacron
Encoding: 299 299 324
Width: 207
Flags: MW
HStem: 0 21G<66 66 66 141> 480 20G<66 141 141 141> 639 59<-34 240 -34 240>
VStem: 66 75<0 500 0 500>
LayerCount: 2
Back
Fore
SplineSet
66 0 m 1
 66 500 l 1
 141 500 l 1
 141 0 l 1
 66 0 l 1
-34 639 m 1
 -34 698 l 1
 240 698 l 1
 240 639 l 1
 -34 639 l 1
EndSplineSet
EndChar
StartChar: Ibreve
Encoding: 300 300 59
Width: 230
Flags: MW
HStem: 0 21G<77 77 77 153> 795 58<90 133 90 162>
VStem: -29 68<900 922 900 922> 77 76<0 692 0 692> 186 67<900 922>
LayerCount: 2
Back
Fore
SplineSet
-29 922 m 1
 39 922 l 1
 39 878 68 853 112 853 c 0
 154 853 186 878 186 922 c 1
 253 922 l 1
 253 860 212 795 112 795 c 0
 13 795 -29 860 -29 922 c 1
77 0 m 1
 77 692 l 1
 153 692 l 1
 153 0 l 1
 77 0 l 1
EndSplineSet
Position2: "'cpsp' Capital Spacing in Latin lookup 0 subtable" dx=5 dy=0 dh=10 dv=0
EndChar
StartChar: ibreve
Encoding: 301 301 325
Width: 207
Flags: MW
HStem: 0 21G<66 66 66 141> 480 20G<66 141 141 141> 593 62<78.5 128 78.5 151>
VStem: -41 66<708.5 731 708.5 731> 66 75<0 500 0 500> 182 65<708.5 731>
LayerCount: 2
Back
Fore
SplineSet
66 0 m 1
 66 500 l 1
 141 500 l 1
 141 0 l 1
 66 0 l 1
-41 731 m 1
 25 731 l 1
 25 686 54 655 103 655 c 0
 153 655 182 686 182 731 c 1
 247 731 l 1
 247 655 199 593 103 593 c 0
 8 593 -41 655 -41 731 c 1
EndSplineSet
EndChar
StartChar: Iogonek
Encoding: 302 302 65
Width: 230
Flags: MW
HStem: -204 67<106 111> 0 21G<77 77 153 153>
VStem: 9 75<-115 -101.5> 77 76<0 692 0 692>
LayerCount: 2
Back
Fore
SplineSet
77 0 m 1xd0
 77 692 l 1
 153 692 l 1
 153 0 l 1xd0
 112 -41 84 -75 84 -106 c 0
 84 -124 97 -137 115 -137 c 0
 129 -137 163 -131 163 -131 c 1
 170 -195 l 1
 170 -195 127 -204 95 -204 c 0
 44 -204 9 -173 9 -123 c 0xe0
 9 -80 46 -33 77 0 c 1xd0
EndSplineSet
Position2: "'cpsp' Capital Spacing in Latin lookup 0 subtable" dx=5 dy=0 dh=10 dv=0
EndChar
StartChar: iogonek
Encoding: 303 303 326
Width: 208
Flags: MW
HStem: -204 67<92 97> 0 21G<142 142> 480 20G<67 142 142 142> 605 89<66 143 66 143>
VStem: -5 75<-115 -100.5> 67 75<4 500 0 500>
LayerCount: 2
Back
Fore
SplineSet
149 -131 m 1xf8
 156 -195 l 1
 156 -195 113 -204 81 -204 c 0
 30 -204 -5 -173 -5 -123 c 0xf8
 -5 -78 35 -29 67 4 c 1
 67 500 l 1
 142 500 l 1
 142 0 l 1xf4
 102 -34 70 -75 70 -106 c 0
 70 -124 83 -137 101 -137 c 0
 115 -137 149 -131 149 -131 c 1xf8
66 605 m 1xf4
 66 694 l 1
 143 694 l 1
 143 605 l 1
 66 605 l 1xf4
EndSplineSet
EndChar
StartChar: Idotaccent
Encoding: 304 304 62
Width: 230
Flags: MW
HStem: 0 21G<77 77 77 153> 830 90<82 146 82 146>
VStem: 77 76<0 692 0 692> 82 64<830 920 830 920>
LayerCount: 2
Back
Fore
SplineSet
82 830 m 1xd0
 82 920 l 1
 146 920 l 1
 146 830 l 1
 82 830 l 1xd0
77 0 m 1xe0
 77 692 l 1
 153 692 l 1
 153 0 l 1
 77 0 l 1xe0
EndSplineSet
Position2: "'cpsp' Capital Spacing in Latin lookup 0 subtable" dx=5 dy=0 dh=10 dv=0
EndChar
StartChar: Jcircumflex
Encoding: 308 308 68
Width: 268
Flags: MW
HStem: -70 68<17 65 17 96> 793 138<0 172 0 172 131 231 131 304>
VStem: 118 77<44 692>
LayerCount: 2
Back
Fore
SplineSet
194 692 m 1
 195 114 l 2
 195 -26 175 -70 17 -70 c 1
 17 -2 l 1
 113 -2 118 28 118 120 c 2
 118 692 l 1
 194 692 l 1
0 793 m 1
 131 931 l 1
 172 931 l 1
 304 793 l 1
 231 793 l 1
 152 874 l 1
 73 793 l 1
 0 793 l 1
EndSplineSet
Position2: "'cpsp' Capital Spacing in Latin lookup 0 subtable" dx=5 dy=0 dh=10 dv=0
EndChar
StartChar: jcircumflex
Encoding: 309 309 327
Width: 207
Flags: MW
HStem: -235 21G<-17 -17> 480 20G<66 141 141 141> 587 151<-38 123 -38 123 82 172 82 245>
VStem: 66 75<0 500>
LayerCount: 2
Back
Fore
SplineSet
66 0 m 2
 66 500 l 1
 141 500 l 1
 141 0 l 2
 141 -132 128 -157 -17 -235 c 1
 -46 -177 l 1
 62 -111 66 -96 66 0 c 2
-38 587 m 1
 82 738 l 1
 123 738 l 1
 245 587 l 1
 172 587 l 1
 104 672 l 1
 34 587 l 1
 -38 587 l 1
EndSplineSet
EndChar
StartChar: Lacute
Encoding: 313 313 72
Width: 438
Flags: MW
HStem: 0 68<153 426 153 426>
VStem: 77 76<68 692 68 692 68 692>
LayerCount: 2
Back
Fore
SplineSet
136 785 m 1
 114 840 l 1
 320 936 l 1
 344 871 l 1
 136 785 l 1
426 0 m 1
 77 0 l 1
 77 692 l 1
 153 692 l 1
 153 68 l 1
 426 68 l 1
 426 0 l 1
EndSplineSet
Position2: "'cpsp' Capital Spacing in Latin lookup 0 subtable" dx=5 dy=0 dh=10 dv=0
EndChar
StartChar: lacute
Encoding: 314 314 329
Width: 215
Flags: MW
HStem: 0 21G<70 70 70 145> 698 20G<70 145 145 145>
VStem: 70 75<0 718 0 718>
LayerCount: 2
Back
Fore
SplineSet
70 0 m 1
 70 718 l 1
 145 718 l 1
 145 0 l 1
 70 0 l 1
71 785 m 1
 49 840 l 1
 255 936 l 1
 279 871 l 1
 71 785 l 1
EndSplineSet
EndChar
StartChar: Lcommaaccent
Encoding: 315 315 74
Width: 438
Flags: MW
HStem: -73 141<215 215 215 284> 0 68<153 426 153 426>
VStem: 77 76<68 692 68 692 68 692>
LayerCount: 2
Back
Fore
SplineSet
215 -73 m 1xa0
 176 -283 l 1
 237 -283 l 1
 284 -73 l 1
 215 -73 l 1xa0
426 0 m 1x60
 77 0 l 1
 77 692 l 1
 153 692 l 1
 153 68 l 1
 426 68 l 1
 426 0 l 1x60
EndSplineSet
Position2: "'cpsp' Capital Spacing in Latin lookup 0 subtable" dx=5 dy=0 dh=10 dv=0
EndChar
StartChar: lcommaaccent
Encoding: 316 316 331
Width: 215
Flags: MW
HStem: 0 21G<70 70 70 145> 698 20G<70 145 145 145>
VStem: 70 75<0 718 0 718>
LayerCount: 2
Back
Fore
SplineSet
73 -73 m 1
 34 -283 l 1
 95 -283 l 1
 142 -73 l 1
 73 -73 l 1
70 0 m 1
 70 718 l 1
 145 718 l 1
 145 0 l 1
 70 0 l 1
EndSplineSet
EndChar
StartChar: Lcaron
Encoding: 317 317 73
Width: 458
Flags: MW
HStem: 0 68<153 426 153 426> 460 236<339 408 339 408>
VStem: 77 76<68 692 68 692 68 692> 339 69<460 696 460 696>
LayerCount: 2
Back
Fore
SplineSet
408 696 m 1
 408 460 l 1
 339 460 l 1
 339 696 l 1
 408 696 l 1
426 0 m 1
 77 0 l 1
 77 692 l 1
 153 692 l 1
 153 68 l 1
 426 68 l 1
 426 0 l 1
EndSplineSet
Position2: "'cpsp' Capital Spacing in Latin lookup 0 subtable" dx=5 dy=0 dh=10 dv=0
EndChar
StartChar: lcaron
Encoding: 318 318 330
Width: 263
Flags: MW
HStem: 0 21G<70 70 70 145> 460 236<206 274 206 274> 698 20G<70 145 145 145>
VStem: 70 75<0 718 0 718> 206 68<460 696 460 696>
LayerCount: 2
Back
Fore
SplineSet
274 696 m 1
 274 460 l 1
 206 460 l 1
 206 696 l 1
 274 696 l 1
70 0 m 1
 70 718 l 1
 145 718 l 1xb8
 145 0 l 1
 70 0 l 1
EndSplineSet
EndChar
StartChar: lslash
Encoding: 322 322 190
Width: 279
Flags: MW
HStem: 0 21G<101 101 101 176> 698 20G<101 176 176 176>
VStem: 101 75<0 276 276 276 413 718>
LayerCount: 2
Back
Fore
SplineSet
101 0 m 1
 101 276 l 1
 44 234 l 1
 7 289 l 1
 101 358 l 1
 101 718 l 1
 176 718 l 1
 176 413 l 1
 233 455 l 1
 271 401 l 1
 176 331 l 1
 176 0 l 1
 101 0 l 1
EndSplineSet
EndChar
StartChar: nacute
Encoding: 324 324 332
Width: 501
Flags: MW
HStem: 0 748<66 355 141 355 355 439 355 439>
VStem: 141 224<0 290 0 352 0 352 0 425>
LayerCount: 2
Back
Fore
SplineSet
66 0 m 1
 141 0 l 1
 141 352 l 1
 141 352 204 445 271 445 c 0
 339 445 365 397 365 290 c 2
 365 0 l 1
 439 0 l 1
 439 311 l 2
 439 433 395 510 286 510 c 0
 202 510 141 425 141 425 c 1
 140 500 l 1
 66 500 l 1
 66 0 l 1
170 596 m 1
 149 652 l 1
 355 748 l 1
 378 682 l 1
 170 596 l 1
EndSplineSet
EndChar
StartChar: Ncommaaccent
Encoding: 325 325 80
Width: 629
Flags: MW
HStem: 0 79<420 478 460 478 460 552> 616 76<153 170 153 153>
VStem: 77 76<0 616 0 692> 478 74<79 692 0 692>
LayerCount: 2
Back
Fore
SplineSet
295 -73 m 1
 256 -283 l 1
 317 -283 l 1
 364 -73 l 1
 295 -73 l 1
77 0 m 1
 77 692 l 1
 211 692 l 1
 460 79 l 1
 478 79 l 1
 478 692 l 1
 552 692 l 1
 552 0 l 1
 420 0 l 1
 170 616 l 1
 153 616 l 1
 153 0 l 1
 77 0 l 1
EndSplineSet
Position2: "'cpsp' Capital Spacing in Latin lookup 0 subtable" dx=5 dy=0 dh=10 dv=0
EndChar
StartChar: Ncaron
Encoding: 327 327 79
Width: 629
Flags: MW
HStem: 0 79<420 478 460 478 460 552> 616 76<153 170 153 153> 789 137<166 340 166 294>
VStem: 77 76<0 616 0 692> 478 74<79 692 0 692>
LayerCount: 2
Back
Fore
SplineSet
468 926 m 1
 340 789 l 1
 294 789 l 1
 166 926 l 1
 243 926 l 1
 317 845 l 1
 391 926 l 1
 468 926 l 1
77 0 m 1
 77 692 l 1
 211 692 l 1
 460 79 l 1
 478 79 l 1
 478 692 l 1
 552 692 l 1
 552 0 l 1
 420 0 l 1
 170 616 l 1
 153 616 l 1
 153 0 l 1
 77 0 l 1
EndSplineSet
Position2: "'cpsp' Capital Spacing in Latin lookup 0 subtable" dx=5 dy=0 dh=10 dv=0
EndChar
StartChar: ncaron
Encoding: 328 328 333
Width: 501
Flags: MW
HStem: 0 21G<66 141 66 66 365 365 365 439> 445 65<244 305> 480 20G<66 140 140 140> 587 151<119 282 119 239>
VStem: 66 75<0 352> 365 74<0 290 290 311 0 343.5>
LayerCount: 2
Back
Fore
SplineSet
141 0 m 1xdc
 66 0 l 1
 66 500 l 1
 140 500 l 1xbc
 141 425 l 1
 141 425 202 510 286 510 c 0
 395 510 439 433 439 311 c 2
 439 0 l 1
 365 0 l 1
 365 290 l 2
 365 397 339 445 271 445 c 0
 204 445 141 352 141 352 c 1
 141 0 l 1xdc
282 587 m 1
 239 587 l 1
 119 738 l 1
 192 738 l 1
 260 651 l 1
 329 738 l 1
 402 738 l 1
 282 587 l 1
EndSplineSet
EndChar
StartChar: Eng
Encoding: 330 330 300
Width: 629
Flags: MW
HStem: 0 79<420 478 460 478 460 478> 620 76<153 170 153 153>
VStem: 77 76<0 620 0 696> 478 74<-44.5 -2 -2 0 79 696>
LayerCount: 2
Back
Fore
SplineSet
77 0 m 1
 77 696 l 1
 211 696 l 1
 460 79 l 1
 478 79 l 1
 478 696 l 1
 552 696 l 1
 552 -2 l 2
 552 -142 532 -187 377 -187 c 1
 377 -119 l 1
 471 -118 478 -89 478 0 c 1
 420 0 l 1
 170 620 l 1
 153 620 l 1
 153 0 l 1
 77 0 l 1
EndSplineSet
Position2: "'cpsp' Capital Spacing in Latin lookup 0 subtable" dx=5 dy=0 dh=10 dv=0
EndChar
StartChar: eng
Encoding: 331 331 448
Width: 494
Flags: MW
HStem: -235 21G<280 280> 0 21G<66 137 66 66> 438 72<245 283.5> 480 20G<66 137 137 137>
VStem: 66 71<0 364 435 500> 362 70<-2 237>
LayerCount: 2
Back
Fore
SplineSet
137 0 m 1xec
 66 0 l 1
 66 500 l 1
 137 500 l 1xdc
 137 435 l 1
 163 461 215 510 275 510 c 0
 370 510 411 459 422 379 c 0
 432 334 432 301 432 237 c 2
 432 -3 l 2
 432 -129 404 -167 280 -235 c 1
 249 -170 l 1
 343 -113 362 -87 362 -2 c 2
 362 237 l 2
 362 297 359 345 348 378 c 0
 338 424 302 438 265 438 c 0
 204 438 137 364 137 364 c 1
 137 0 l 1xec
EndSplineSet
EndChar
StartChar: Obreve
Encoding: 334 334 84
Width: 612
Flags: MW
HStem: -10 68<230 325 230 336.5> 634 68<288 382> 796 58<284 327 284 356>
VStem: 53 80<251 429 251 434> 165 68<901 923 901 923> 380 67<901 923> 479 80<275.5 453>
LayerCount: 2
Back
Fore
SplineSet
165 923 m 1
 233 923 l 1
 233 879 262 854 306 854 c 0
 348 854 380 879 380 923 c 1
 447 923 l 1
 447 861 406 796 306 796 c 0
 207 796 165 861 165 923 c 1
306 58 m 0
 344 58 373 63 396 75 c 0
 467 110 479 199 479 352 c 0
 479 554 458 634 306 634 c 0
 270 634 241 630 218 620 c 0
 145 589 133 506 133 352 c 0
 133 150 154 58 306 58 c 0
306 -10 m 0
 102 -10 53 108 53 352 c 0
 53 516 75 619 153 667 c 0
 190 691 240 702 306 702 c 0
 511 702 559 595 559 352 c 0
 559 181 536 72 451 22 c 0
 415 0 367 -10 306 -10 c 0
EndSplineSet
Position2: "'cpsp' Capital Spacing in Latin lookup 0 subtable" dx=5 dy=0 dh=10 dv=0
EndChar
StartChar: obreve
Encoding: 335 335 336
Width: 486
Flags: MW
HStem: -10 65<186 300 186 328.5> 445 65<193.5 292.5> 593 62<219.5 269 219.5 292>
VStem: 47 72<194 318.5 194 334.5> 100 66<708.5 731 708.5 731> 323 65<708.5 731> 367 72<194 318.5>
LayerCount: 2
Back
Fore
SplineSet
243 510 m 0xf2
 397 510 439 414 439 255 c 0
 439 97 414 -10 243 -10 c 0
 72 -10 47 97 47 255 c 0
 47 414 88 510 243 510 c 0xf2
243 55 m 0
 357 55 367 133 367 255 c 0
 367 382 342 445 243 445 c 0
 144 445 119 382 119 255 c 0
 119 133 129 55 243 55 c 0
100 731 m 1xec
 166 731 l 1
 166 686 195 655 244 655 c 0
 294 655 323 686 323 731 c 1
 388 731 l 1
 388 655 340 593 244 593 c 0
 149 593 100 655 100 731 c 1xec
EndSplineSet
EndChar
StartChar: ohungarumlaut
Encoding: 337 337 337
Width: 486
Flags: MW
HStem: -10 65<186 300 186 328.5> 445 65<193.5 292.5> 699 20G<268 268 449 449>
VStem: 47 72<194 318.5 194 334.5> 367 72<194 318.5>
LayerCount: 2
Back
Fore
SplineSet
243 510 m 0
 397 510 439 414 439 255 c 0
 439 97 414 -10 243 -10 c 0
 72 -10 47 97 47 255 c 0
 47 414 88 510 243 510 c 0
243 55 m 0
 357 55 367 133 367 255 c 0
 367 382 342 445 243 445 c 0
 144 445 119 382 119 255 c 0
 119 133 129 55 243 55 c 0
309 581 m 1
 261 621 l 1
 399 760 l 1
 449 719 l 1
 309 581 l 1
128 581 m 1
 81 621 l 1
 218 760 l 1
 268 719 l 1
 128 581 l 1
EndSplineSet
EndChar
StartChar: OE
Encoding: 338 338 93
Width: 859
Flags: MW
HStem: -10 75<258 316 258 316> -1 66 -1 76<504 817 504 817 434 817> 315 73<504 761 504 761> 621 75<504 817 504 504> 631 75<237 315.5 208.5 323>
VStem: 52 74<315 442 315 464> 432 72<75 315 388 621>
LayerCount: 2
Back
Fore
SplineSet
817 -1 m 1x3b
 434 -1 l 1x3b
 390 -5 333 -10 299 -10 c 0
 173 -10 105 45 74 151 c 0
 59 203 52 268 52 345 c 0
 52 583 118 706 299 706 c 0x97
 332 706 392 701 432 696 c 1
 817 696 l 1
 817 621 l 1
 504 621 l 1
 504 388 l 1
 761 388 l 1
 761 315 l 1
 504 315 l 1
 504 75 l 1
 817 75 l 1
 817 -1 l 1x3b
306 65 m 0x57
 326 65 394 70 432 73 c 1
 432 622 l 1
 399 626 341 631 305 631 c 0
 169 631 126 538 126 346 c 0
 126 284 131 231 141 190 c 0
 162 106 210 65 306 65 c 0x57
EndSplineSet
Position2: "'cpsp' Capital Spacing in Latin lookup 0 subtable" dx=5 dy=0 dh=10 dv=0
EndChar
StartChar: oe
Encoding: 339 339 226
Width: 800
Flags: MW
HStem: -10 69<219 289> 217 63<445 686 445 757 445 686> 441 69<197 276>
VStem: 47 71<226 322.5 223.5 341> 374 71<202 217 200 273> 686 71<217 303.5>
LayerCount: 2
Back
Fore
SplineSet
567 60 m 0
 635 60 738 69 738 69 c 1
 740 6 l 1
 740 6 642 -10 562 -10 c 0
 488 -10 437 24 409 74 c 1
 381 18 331 -10 247 -10 c 0
 147 -10 94 25 68 94 c 0
 51 143 47 195 47 257 c 0
 47 425 98 510 247 510 c 0
 326 510 381 477 411 416 c 1
 443 481 500 510 568 510 c 0
 658 510 716 471 741 392 c 0
 751 360 757 321 757 276 c 2
 757 217 l 1
 445 217 l 1
 445 183 449 155 457 131 c 0
 473 85 506 60 567 60 c 0
247 59 m 0
 364 59 374 149 374 255 c 0
 374 291 372 330 359 368 c 0
 341 418 305 441 247 441 c 0
 147 441 118 388 118 257 c 0
 118 190 123 140 141 107 c 0
 159 75 191 59 247 59 c 0
445 280 m 1
 686 280 l 1
 686 327 681 362 669 387 c 0
 652 424 620 439 570 439 c 0
 490 439 445 393 445 280 c 1
EndSplineSet
EndChar
StartChar: Racute
Encoding: 340 340 97
Width: 566
Flags: MW
HStem: 332 293<153 305 153 305> 692 21G<77 305 77 77>
VStem: 153 281<0 530 265 530 431.5 530 431.5 625 431.5 625>
LayerCount: 2
Back
Fore
SplineSet
323 265 m 1
 447 0 l 1
 530 0 l 1
 398 280 l 1
 463 303 513 355 513 482 c 0
 513 627 441 692 305 692 c 2
 77 692 l 1
 77 0 l 1
 153 0 l 1
 153 265 l 1
 323 265 l 1
434 482 m 0
 434 381 394 332 305 332 c 2
 153 332 l 1
 153 625 l 1
 305 625 l 2
 394 625 434 578 434 482 c 0
186 785 m 1
 164 840 l 1
 370 936 l 1
 394 871 l 1
 186 785 l 1
EndSplineSet
Position2: "'cpsp' Capital Spacing in Latin lookup 0 subtable" dx=5 dy=0 dh=10 dv=0
EndChar
StartChar: racute
Encoding: 341 341 338
Width: 314
Flags: MW
HStem: 0 21G<66 66 66 141> 424 76<66 141> 490 20G<297 297>
VStem: 66 75<0 360 424 500>
LayerCount: 2
Back
Fore
SplineSet
66 0 m 1xb0
 66 500 l 1
 141 500 l 1
 141 424 l 1xd0
 141 424 212 489 297 510 c 1
 297 431 l 1
 226 414 141 360 141 360 c 1
 141 0 l 1
 66 0 l 1xb0
69 596 m 1
 48 652 l 1
 254 748 l 1
 277 682 l 1
 69 596 l 1
EndSplineSet
EndChar
StartChar: Rcaron
Encoding: 344 344 98
Width: 566
Flags: MW
HStem: 332 293<153 305 153 305> 692 234<112 189 112 305 77 189> 789 137<112 286 112 240>
VStem: 153 281<0 530 265 530 431.5 530 431.5 625 431.5 625>
LayerCount: 2
Back
Fore
SplineSet
414 926 m 1xd0
 286 789 l 1
 240 789 l 1xb0
 112 926 l 1
 189 926 l 1
 263 845 l 1
 337 926 l 1
 414 926 l 1xd0
323 265 m 1
 447 0 l 1
 530 0 l 1
 398 280 l 1
 463 303 513 355 513 482 c 0
 513 627 441 692 305 692 c 2
 77 692 l 1xd0
 77 0 l 1
 153 0 l 1
 153 265 l 1
 323 265 l 1
434 482 m 0
 434 381 394 332 305 332 c 2
 153 332 l 1
 153 625 l 1
 305 625 l 2
 394 625 434 578 434 482 c 0
EndSplineSet
Position2: "'cpsp' Capital Spacing in Latin lookup 0 subtable" dx=5 dy=0 dh=10 dv=0
EndChar
StartChar: rcaron
Encoding: 345 345 340
Width: 314
Flags: MW
HStem: 0 21G<66 66 66 141> 424 76<66 141> 490 20G<297 297> 587 151<21 184 21 141>
VStem: 66 75<0 360 424 500>
LayerCount: 2
Back
Fore
SplineSet
66 0 m 1xb8
 66 500 l 1
 141 500 l 1
 141 424 l 1xd8
 141 424 212 489 297 510 c 1
 297 431 l 1
 226 414 141 360 141 360 c 1
 141 0 l 1
 66 0 l 1xb8
184 587 m 1
 141 587 l 1
 21 738 l 1
 94 738 l 1
 162 651 l 1
 231 738 l 1
 304 738 l 1
 184 587 l 1
EndSplineSet
EndChar
StartChar: Sacute
Encoding: 346 346 101
Width: 500
Flags: MW
HStem: -10 21G<211 321> -10 68<217 295 217 321> 634 68<213.5 292.5>
VStem: 43 79<476 559.5 476 576.5> 380 78<150 237>
LayerCount: 2
Back
Fore
SplineSet
440 681 m 1x78
 436 620 l 1
 436 620 326 634 259 634 c 0
 168 634 122 601 122 518 c 0
 122 434 168 417 272 391 c 0
 396 360 458 325 458 202 c 0
 458 63 392 -10 250 -10 c 0x78
 172 -10 52 9 52 9 c 1xb8
 57 72 l 1
 57 72 184 58 250 58 c 0
 340 58 380 105 380 195 c 0
 380 279 334 302 240 323 c 0
 112 353 43 393 43 510 c 0
 43 643 118 702 255 702 c 0
 334 702 440 681 440 681 c 1x78
195 785 m 1
 173 840 l 1
 379 936 l 1
 403 871 l 1
 195 785 l 1
EndSplineSet
Position2: "'cpsp' Capital Spacing in Latin lookup 0 subtable" dx=5 dy=0 dh=10 dv=0
EndChar
StartChar: sacute
Encoding: 347 347 341
Width: 427
Flags: MW
HStem: -10 21G<173 262.5> -10 65<177 239 177 262.5> 445 65<186 242>
VStem: 43 75<342.5 397 342.5 417.5> 313 75<107.5 169.5>
LayerCount: 2
Back
Fore
SplineSet
372 493 m 1x78
 369 433 l 1
 369 433 275 445 209 445 c 0
 163 445 118 425 118 369 c 0
 118 316 150 302 223 288 c 0
 324 266 388 251 388 147 c 0
 388 25 318 -10 207 -10 c 0x78
 139 -10 44 10 44 10 c 1xb8
 49 71 l 1
 49 71 153 55 201 55 c 0
 277 55 313 75 313 140 c 0
 313 199 271 207 202 220 c 0
 106 240 43 264 43 363 c 0
 43 472 125 510 206 510 c 0
 289 510 372 493 372 493 c 1x78
147 596 m 1
 126 652 l 1
 332 748 l 1
 355 682 l 1
 147 596 l 1
EndSplineSet
EndChar
StartChar: Scircumflex
Encoding: 348 348 104
Width: 500
Flags: MW
HStem: -10 21G<211 321> -10 68<217 295 217 321> 634 68<213.5 292.5> 793 138<107 279 107 279 238 338 238 411>
VStem: 43 79<476 559.5 476 576.5> 380 78<150 237>
LayerCount: 2
Back
Fore
SplineSet
440 681 m 1x6c
 436 620 l 1
 436 620 326 634 259 634 c 0
 168 634 122 601 122 518 c 0
 122 434 168 417 272 391 c 0
 396 360 458 325 458 202 c 0
 458 63 392 -10 250 -10 c 0x7c
 172 -10 52 9 52 9 c 1xac
 57 72 l 1
 57 72 184 58 250 58 c 0
 340 58 380 105 380 195 c 0
 380 279 334 302 240 323 c 0
 112 353 43 393 43 510 c 0
 43 643 118 702 255 702 c 0
 334 702 440 681 440 681 c 1x6c
107 793 m 1
 238 931 l 1
 279 931 l 1
 411 793 l 1
 338 793 l 1
 259 874 l 1
 180 793 l 1
 107 793 l 1
EndSplineSet
Position2: "'cpsp' Capital Spacing in Latin lookup 0 subtable" dx=5 dy=0 dh=10 dv=0
EndChar
StartChar: Scedilla
Encoding: 350 350 103
Width: 500
Flags: MW
HStem: -211 55<264.5 282.5 256.5 311.5> -88 43<268 269 229 276> -9 21G<229 229 268 268> -9 67<229 229 268 268> 634 68<213.5 292.5>
VStem: 43 79<476 559.5 476 576.5> 229 39<-45 -9 -45 -9 -45 -9> 311 63<-133 -106.5> 380 78<150 237>
LayerCount: 2
Back
Fore
SplineSet
440 681 m 1xee80
 436 620 l 1
 436 620 326 634 259 634 c 0
 168 634 122 601 122 518 c 0
 122 434 168 417 272 391 c 0
 396 360 458 325 458 202 c 0xde80
 458 69 397 -3 268 -9 c 1
 268 -45 l 1
 276 -45 l 2
 326 -45 374 -57 374 -124 c 0
 374 -184 338 -211 285 -211 c 0
 244 -211 204 -204 204 -204 c 1
 207 -153 l 1
 207 -153 244 -156 269 -156 c 0
 296 -156 311 -146 311 -120 c 0
 311 -93 291 -88 269 -88 c 2
 229 -88 l 1
 229 -9 l 1xdf
 152 -7 52 9 52 9 c 1xee80
 57 72 l 1
 57 72 184 58 250 58 c 0xde80
 340 58 380 105 380 195 c 0
 380 279 334 302 240 323 c 0
 112 353 43 393 43 510 c 0
 43 643 118 702 255 702 c 0
 334 702 440 681 440 681 c 1xee80
EndSplineSet
Substitution2: "'locl' Localized Forms in Latin lookup 0 subtable" Scommaaccent
Position2: "'cpsp' Capital Spacing in Latin lookup 0 subtable" dx=5 dy=0 dh=10 dv=0
EndChar
StartChar: scedilla
Encoding: 351 351 343
Width: 427
Flags: MW
HStem: -211 55<218.5 236.5 210.5 265.5> -88 43<222 223 183 230> -10 21G<222 222> -10 65<222 222> 445 65<186 242>
VStem: 43 75<342.5 397 342.5 417.5> 183 39<-45 -10 -45 -9 -45 -9> 265 63<-133 -106.5> 313 75<107.5 169.5>
LayerCount: 2
Back
Fore
SplineSet
328 -124 m 0xdf
 328 -184 292 -211 239 -211 c 0
 198 -211 158 -204 158 -204 c 1
 161 -153 l 1
 161 -153 198 -156 223 -156 c 0
 250 -156 265 -146 265 -120 c 0
 265 -93 245 -88 223 -88 c 2
 183 -88 l 1
 183 -9 l 1xdf
 118 -6 44 10 44 10 c 1xee80
 49 71 l 1
 49 71 153 55 201 55 c 0
 277 55 313 75 313 140 c 0
 313 199 271 207 202 220 c 0
 106 240 43 264 43 363 c 0
 43 472 125 510 206 510 c 0
 289 510 372 493 372 493 c 1
 369 433 l 1
 369 433 275 445 209 445 c 0
 163 445 118 425 118 369 c 0
 118 316 150 302 223 288 c 0
 324 266 388 251 388 147 c 0xde80
 388 30 324 -7 222 -10 c 1
 222 -45 l 1
 230 -45 l 2
 280 -45 328 -57 328 -124 c 0xdf
EndSplineSet
Substitution2: "'locl' Localized Forms in Latin lookup 0 subtable" scommaaccent
EndChar
StartChar: scaron
Encoding: 353 353 153
Width: 427
Flags: MW
HStem: -10 21G<173 262.5> -10 65<177 239 177 262.5> 445 65<186 242> 587 151<79 242 79 199>
VStem: 43 75<342.5 397 342.5 417.5> 313 75<107.5 169.5>
LayerCount: 2
Back
Fore
SplineSet
372 493 m 1x7c
 369 433 l 1
 369 433 275 445 209 445 c 0
 163 445 118 425 118 369 c 0
 118 316 150 302 223 288 c 0
 324 266 388 251 388 147 c 0
 388 25 318 -10 207 -10 c 0x7c
 139 -10 44 10 44 10 c 1xbc
 49 71 l 1
 49 71 153 55 201 55 c 0
 277 55 313 75 313 140 c 0
 313 199 271 207 202 220 c 0
 106 240 43 264 43 363 c 0
 43 472 125 510 206 510 c 0
 289 510 372 493 372 493 c 1x7c
242 587 m 1
 199 587 l 1
 79 738 l 1
 152 738 l 1
 220 651 l 1
 289 738 l 1
 362 738 l 1
 242 587 l 1
EndSplineSet
EndChar
StartChar: Tcedilla
Encoding: 354 354 450
Width: 471
Flags: MW
HStem: -211 55<254.5 272.5 246.5 301.5> -88 43<258 259 219 266> 0 21G<199 219 199 199 258 258 258 276> 624 68<12 199 12 459 276 276 276 459>
VStem: 199 77<0 624 0 624> 301 63<-133 -106.5>
LayerCount: 2
Back
Fore
SplineSet
364 -124 m 0
 364 -184 328 -211 275 -211 c 0
 234 -211 194 -204 194 -204 c 1
 197 -153 l 1
 197 -153 234 -156 259 -156 c 0
 286 -156 301 -146 301 -120 c 0
 301 -93 281 -88 259 -88 c 2xfc
 219 -88 l 1
 219 0 l 1
 199 0 l 1
 199 624 l 1
 12 624 l 1
 12 692 l 1
 459 692 l 1
 459 624 l 1
 276 624 l 1
 276 0 l 1
 258 0 l 1xf8
 258 -45 l 1
 266 -45 l 2
 316 -45 364 -57 364 -124 c 0
EndSplineSet
Substitution2: "'locl' Localized Forms in Latin lookup 0 subtable" Tcommaaccent
EndChar
StartChar: tcedilla
Encoding: 355 355 451
Width: 324
Flags: MW
HStem: -211 55<210.5 228.5 202.5 257.5> -88 43<214 215 175 222> -10 65<214 220 214 214> -5 21G<175 175> 435 65<25 90 25 90 164 305>
VStem: 90 74<141 145 145 435 500 648> 175 39<-45 -10 -45 -5 -45 -5> 257 63<-133 -106.5>
LayerCount: 2
Back
Fore
SplineSet
320 -124 m 0xed
 320 -184 284 -211 231 -211 c 0
 190 -211 150 -204 150 -204 c 1
 153 -153 l 1
 153 -153 190 -156 215 -156 c 0
 242 -156 257 -146 257 -120 c 0
 257 -93 237 -88 215 -88 c 2
 175 -88 l 1
 175 -5 l 1xdf
 110 10 90 62 90 141 c 2
 90 435 l 1
 25 435 l 1
 25 500 l 1
 90 500 l 1
 90 648 l 1
 164 648 l 1
 164 500 l 1
 305 500 l 1
 305 435 l 1
 164 435 l 1
 164 145 l 2
 164 89 181 55 229 55 c 0xed
 259 55 308 61 308 61 c 1
 312 2 l 1
 312 2 254 -10 220 -10 c 2
 214 -10 l 1xef
 214 -45 l 1
 222 -45 l 2
 272 -45 320 -57 320 -124 c 0xed
EndSplineSet
Substitution2: "'locl' Localized Forms in Latin lookup 0 subtable" tcommaaccent
EndChar
StartChar: tcaron
Encoding: 357 357 345
Width: 404
Flags: MW
HStem: -10 65<205 237> 435 65<25 90 25 90 164 305> 460 40
VStem: 90 74<141 145 145 435 500 648> 341 69<460 696 460 696>
LayerCount: 2
Back
Fore
SplineSet
305 435 m 1xd8
 164 435 l 1
 164 145 l 2
 164 89 181 55 229 55 c 0
 259 55 308 61 308 61 c 1
 312 2 l 1
 312 2 254 -10 220 -10 c 0
 119 -10 90 46 90 141 c 2
 90 435 l 1
 25 435 l 1
 25 500 l 1
 90 500 l 1
 90 648 l 1
 164 648 l 1
 164 500 l 1
 305 500 l 1
 305 435 l 1xd8
410 696 m 1
 410 460 l 1
 341 460 l 1xb8
 341 696 l 1
 410 696 l 1
EndSplineSet
EndChar
StartChar: Tbar
Encoding: 358 358 107
Width: 477
Flags: MW
HStem: 0 21G<201 278 201 201> 295 70<52 201 52 201 278 433> 624 68<14 461 14 201 278 278 278 461>
VStem: 201 77<0 295 0 295 365 624>
LayerCount: 2
Back
Fore
SplineSet
14 624 m 1
 14 692 l 1
 461 692 l 1
 461 624 l 1
 278 624 l 1
 278 365 l 1
 433 365 l 1
 433 295 l 1
 278 295 l 1
 278 0 l 1
 201 0 l 1
 201 295 l 1
 52 295 l 1
 52 365 l 1
 201 365 l 1
 201 624 l 1
 14 624 l 1
EndSplineSet
Position2: "'cpsp' Capital Spacing in Latin lookup 0 subtable" dx=5 dy=0 dh=10 dv=0
EndChar
StartChar: tbar
Encoding: 359 359 347
Width: 329
Flags: MW
HStem: -10 65<208 240> 243 65<39 93 39 93 167 301> 435 65<28 93 28 93 167 308>
VStem: 93 74<141 145 145 243 308 435 500 648>
LayerCount: 2
Back
Fore
SplineSet
308 435 m 1
 167 435 l 1
 167 308 l 1
 301 308 l 1
 301 243 l 1
 167 243 l 1
 167 145 l 2
 167 89 184 55 232 55 c 0
 262 55 311 61 311 61 c 1
 315 2 l 1
 315 2 257 -10 223 -10 c 0
 122 -10 93 46 93 141 c 2
 93 243 l 1
 39 243 l 1
 39 308 l 1
 93 308 l 1
 93 435 l 1
 28 435 l 1
 28 500 l 1
 93 500 l 1
 93 648 l 1
 167 648 l 1
 167 500 l 1
 308 500 l 1
 308 435 l 1
EndSplineSet
EndChar
StartChar: Utilde
Encoding: 360 360 120
Width: 597
Flags: MW
HStem: -10 68<247 349.5 247 375> 802 66<365 389 365 396> 858 65<213.5 241.5>
VStem: 73 76<211 692> 447 77<206 211 211 692>
LayerCount: 2
Back
Fore
SplineSet
149 692 m 1xd8
 149 206 l 2
 149 100 196 58 298 58 c 0
 401 58 447 99 447 206 c 2
 447 692 l 1
 524 692 l 1
 524 211 l 2
 524 59 452 -10 298 -10 c 0
 145 -10 73 59 73 211 c 2
 73 692 l 1
 149 692 l 1xd8
450 913 m 1
 466 862 l 1
 466 862 413 802 379 802 c 0xd8
 335 802 258 858 225 858 c 0
 202 858 149 810 149 810 c 1
 135 862 l 1
 135 862 189 923 227 923 c 0xb8
 275 923 351 868 379 868 c 0
 399 868 450 913 450 913 c 1
EndSplineSet
Position2: "'cpsp' Capital Spacing in Latin lookup 0 subtable" dx=5 dy=0 dh=10 dv=0
EndChar
StartChar: utilde
Encoding: 361 361 348
Width: 502
Flags: MW
HStem: -10 65<196.5 258> 0 21G<362 435 362 362> 480 20G<62 137 137 137 361 435 435 435> 614 66<311 334.5 311 340.5> 662 21G<172 199> 666 21G<404 404> 699 20G<389 389> 708 20G<167 207>
VStem: 62 75<193 210 210 500> 361 74<75 75 148 500 0 500>
LayerCount: 2
Back
Fore
SplineSet
389 719 m 1xb2c0
 404 666 l 1
 404 666 358 614 323 614 c 0xa5c0
 281 614 214 662 184 662 c 0
 160 662 113 620 113 620 c 1xa9c0
 99 673 l 1
 99 673 148 728 186 728 c 0xb1c0
 228 728 298 680 324 680 c 0
 345 680 389 719 389 719 c 1xb2c0
361 500 m 1
 435 500 l 1
 435 0 l 1
 362 0 l 1x65c0
 361 75 l 1
 361 75 300 -10 216 -10 c 0
 107 -10 62 58 62 193 c 2
 62 500 l 1
 137 500 l 1
 137 210 l 2
 137 103 162 55 231 55 c 0
 298 55 361 148 361 148 c 1
 361 500 l 1
EndSplineSet
EndChar
StartChar: Umacron
Encoding: 362 362 117
Width: 597
Flags: MW
HStem: -10 68<247 349.5 247 375> 823 60<152 445 152 445>
VStem: 73 76<211 692> 447 77<206 211 211 692>
LayerCount: 2
Back
Fore
SplineSet
149 692 m 1
 149 206 l 2
 149 100 196 58 298 58 c 0
 401 58 447 99 447 206 c 2
 447 692 l 1
 524 692 l 1
 524 211 l 2
 524 59 452 -10 298 -10 c 0
 145 -10 73 59 73 211 c 2
 73 692 l 1
 149 692 l 1
152 823 m 1
 152 883 l 1
 445 883 l 1
 445 823 l 1
 152 823 l 1
EndSplineSet
Position2: "'cpsp' Capital Spacing in Latin lookup 0 subtable" dx=5 dy=0 dh=10 dv=0
EndChar
StartChar: umacron
Encoding: 363 363 349
Width: 502
Flags: MW
HStem: -10 65<196.5 258> 0 21G<362 435 362 362> 480 20G<62 137 137 137 361 435 435 435> 639 59<110 384 110 384>
VStem: 62 75<193 210 210 500> 361 74<75 75 148 500 0 500>
LayerCount: 2
Back
Fore
SplineSet
361 500 m 1xbc
 435 500 l 1
 435 0 l 1
 362 0 l 1x7c
 361 75 l 1
 361 75 300 -10 216 -10 c 0
 107 -10 62 58 62 193 c 2
 62 500 l 1
 137 500 l 1
 137 210 l 2
 137 103 162 55 231 55 c 0
 298 55 361 148 361 148 c 1
 361 500 l 1xbc
110 639 m 1
 110 698 l 1
 384 698 l 1
 384 639 l 1
 110 639 l 1
EndSplineSet
EndChar
StartChar: Ubreve
Encoding: 364 364 112
Width: 597
Flags: MW
HStem: -10 68<247 349.5 247 375> 796 58<276 319 276 348>
VStem: 73 76<211 692> 157 68<901 923 901 923> 372 67<901 923> 447 77<206 211 211 692>
LayerCount: 2
Back
Fore
SplineSet
149 692 m 1
 149 206 l 2
 149 100 196 58 298 58 c 0
 401 58 447 99 447 206 c 2
 447 692 l 1
 524 692 l 1
 524 211 l 2
 524 59 452 -10 298 -10 c 0
 145 -10 73 59 73 211 c 2
 73 692 l 1
 149 692 l 1
157 923 m 1xfc
 225 923 l 1
 225 879 254 854 298 854 c 0
 340 854 372 879 372 923 c 1
 439 923 l 1
 439 861 398 796 298 796 c 0
 199 796 157 861 157 923 c 1xfc
EndSplineSet
Position2: "'cpsp' Capital Spacing in Latin lookup 0 subtable" dx=5 dy=0 dh=10 dv=0
EndChar
StartChar: ubreve
Encoding: 365 365 350
Width: 502
Flags: MW
HStem: -10 65<196.5 258> 0 21G<362 435 362 362> 480 20G<62 137 137 137 361 435 435 435> 593 62<220.5 270 220.5 293>
VStem: 62 75<193 210 210 500> 101 66<708.5 731 708.5 731> 324 65<708.5 731> 361 74<75 75 148 500 0 500>
LayerCount: 2
Back
Fore
SplineSet
361 500 m 1xb9
 435 500 l 1
 435 0 l 1
 362 0 l 1x75
 361 75 l 1
 361 75 300 -10 216 -10 c 0
 107 -10 62 58 62 193 c 2
 62 500 l 1
 137 500 l 1
 137 210 l 2
 137 103 162 55 231 55 c 0
 298 55 361 148 361 148 c 1
 361 500 l 1xb9
101 731 m 1
 167 731 l 1
 167 686 196 655 245 655 c 0
 295 655 324 686 324 731 c 1
 389 731 l 1xb6
 389 655 341 593 245 593 c 0
 150 593 101 655 101 731 c 1
EndSplineSet
EndChar
StartChar: Uring
Encoding: 366 366 119
Width: 597
Flags: MW
HStem: -10 68<247 349.5 247 375> 741 52<283 317 283 330.5> 889 52<283 317>
VStem: 73 76<211 692> 195 50<825.5 856.5 825.5 875> 353 51<825.5 856.5> 447 77<206 211 211 692>
LayerCount: 2
Back
Fore
SplineSet
149 692 m 1
 149 206 l 2
 149 100 196 58 298 58 c 0
 401 58 447 99 447 206 c 2
 447 692 l 1
 524 692 l 1
 524 211 l 2
 524 59 452 -10 298 -10 c 0
 145 -10 73 59 73 211 c 2
 73 692 l 1
 149 692 l 1
404 841 m 0
 404 774 361 741 300 741 c 0
 236 741 195 774 195 841 c 0
 195 909 236 941 300 941 c 0
 361 941 404 908 404 841 c 0
245 841 m 0
 245 810 266 793 300 793 c 0
 334 793 353 810 353 841 c 0
 353 872 334 889 300 889 c 0
 266 889 245 872 245 841 c 0
EndSplineSet
Position2: "'cpsp' Capital Spacing in Latin lookup 0 subtable" dx=5 dy=0 dh=10 dv=0
EndChar
StartChar: uring
Encoding: 367 367 351
Width: 502
Flags: MW
HStem: -10 65<196.5 258> 0 21G<362 435 362 362> 480 20G<62 137 137 137 361 435 435 435> 544 49<234.5 260.5 234.5 274.5> 689 51<234.5 260.5>
VStem: 62 75<193 210 210 500> 156 45<628.5 655.5 628.5 670> 292 45<628.5 655.5> 361 74<75 75 148 500 0 500>
LayerCount: 2
Back
Fore
SplineSet
156 642 m 0xbf80
 156 698 192 740 248 740 c 0
 302 740 337 698 337 642 c 0
 337 582 301 544 248 544 c 0
 191 544 156 582 156 642 c 0xbf80
201 642 m 0
 201 615 221 593 248 593 c 0
 273 593 292 615 292 642 c 0
 292 669 273 689 248 689 c 0
 221 689 201 669 201 642 c 0
361 500 m 1xbc80
 435 500 l 1
 435 0 l 1
 362 0 l 1x7c80
 361 75 l 1
 361 75 300 -10 216 -10 c 0
 107 -10 62 58 62 193 c 2
 62 500 l 1
 137 500 l 1
 137 210 l 2
 137 103 162 55 231 55 c 0
 298 55 361 148 361 148 c 1
 361 500 l 1xbc80
EndSplineSet
EndChar
StartChar: Uhungarumlaut
Encoding: 368 368 116
Width: 597
Flags: MW
HStem: -10 68<247 349.5 247 375>
VStem: 73 76<211 692> 447 77<206 211 211 692>
LayerCount: 2
Back
Fore
SplineSet
149 692 m 1
 149 206 l 2
 149 100 196 58 298 58 c 0
 401 58 447 99 447 206 c 2
 447 692 l 1
 524 692 l 1
 524 211 l 2
 524 59 452 -10 298 -10 c 0
 145 -10 73 59 73 211 c 2
 73 692 l 1
 149 692 l 1
183 756 m 1
 134 785 l 1
 268 917 l 1
 322 885 l 1
 183 756 l 1
373 755 m 1
 325 785 l 1
 458 916 l 1
 512 885 l 1
 373 755 l 1
EndSplineSet
Position2: "'cpsp' Capital Spacing in Latin lookup 0 subtable" dx=5 dy=0 dh=10 dv=0
EndChar
StartChar: uhungarumlaut
Encoding: 369 369 352
Width: 502
Flags: MW
HStem: -10 65<196.5 258> 0 21G<362 435 362 362> 480 20G<62 137 137 137 361 435 435 435> 699 20G<287 287 468 468>
VStem: 62 75<193 210 210 500> 361 74<75 75 148 500 0 500>
LayerCount: 2
Back
Fore
SplineSet
328 581 m 1xbc
 280 621 l 1
 418 760 l 1
 468 719 l 1
 328 581 l 1xbc
147 581 m 1
 100 621 l 1
 237 760 l 1
 287 719 l 1
 147 581 l 1
361 500 m 1
 435 500 l 1
 435 0 l 1
 362 0 l 1x7c
 361 75 l 1
 361 75 300 -10 216 -10 c 0
 107 -10 62 58 62 193 c 2
 62 500 l 1
 137 500 l 1
 137 210 l 2
 137 103 162 55 231 55 c 0
 298 55 361 148 361 148 c 1
 361 500 l 1
EndSplineSet
EndChar
StartChar: Uogonek
Encoding: 370 370 118
Width: 598
Flags: MW
HStem: -204 67<318.5 323.5> -9 67
VStem: 74 76<211 692> 222 74<-115 -103.5> 448 77<206 211 211 692>
LayerCount: 2
Back
Fore
SplineSet
150 692 m 1
 150 206 l 2
 150 100 197 58 299 58 c 0
 402 58 448 99 448 206 c 2
 448 692 l 1
 525 692 l 1
 525 211 l 2
 525 78 470 9 353 -6 c 1
 321 -43 296 -78 296 -106 c 0
 296 -124 310 -137 327 -137 c 0
 342 -137 376 -131 376 -131 c 1
 382 -195 l 1
 382 -195 340 -204 307 -204 c 0
 256 -204 222 -173 222 -123 c 0
 222 -84 251 -42 279 -9 c 1
 139 -3 74 65 74 211 c 2
 74 692 l 1
 150 692 l 1
EndSplineSet
Position2: "'cpsp' Capital Spacing in Latin lookup 0 subtable" dx=5 dy=0 dh=10 dv=0
EndChar
StartChar: uogonek
Encoding: 371 371 353
Width: 502
Flags: MW
HStem: -204 67<387.5 392.5> -10 65<196.5 258> 0 21G<435 435> 480 20G<62 137 137 137 361 435 435 435>
VStem: 62 75<193 210 210 500> 291 74<-115 -100.5> 361 74<75 75 148 500 0 500>
LayerCount: 2
Back
Fore
SplineSet
361 500 m 1xda
 435 500 l 1
 435 0 l 1xba
 395 -38 365 -75 365 -106 c 0
 365 -124 379 -137 396 -137 c 0
 411 -137 445 -131 445 -131 c 1
 452 -195 l 1
 452 -195 409 -204 376 -204 c 0
 326 -204 291 -173 291 -123 c 0xdc
 291 -78 330 -29 362 4 c 1
 361 75 l 1
 361 75 300 -10 216 -10 c 0
 107 -10 62 58 62 193 c 2
 62 500 l 1
 137 500 l 1
 137 210 l 2
 137 103 162 55 231 55 c 0
 298 55 361 148 361 148 c 1
 361 500 l 1xda
EndSplineSet
EndChar
StartChar: ycircumflex
Encoding: 375 375 359
Width: 448
Flags: MW
HStem: -222 21G<161 233 161 161> 0 64<208 224 155 239> 480 20G<24 98 98 98 351 425 425 425> 587 151<80 241 80 241 200 290 200 363>
VStem: 24 401<500 500>
LayerCount: 2
Back
Fore
SplineSet
24 500 m 1
 98 500 l 1
 208 64 l 1
 239 64 l 1
 351 500 l 1
 425 500 l 1
 233 -222 l 1
 161 -222 l 1
 224 0 l 1
 155 0 l 1
 24 500 l 1
80 587 m 1
 200 738 l 1
 241 738 l 1
 363 587 l 1
 290 587 l 1
 222 672 l 1
 152 587 l 1
 80 587 l 1
EndSplineSet
EndChar
StartChar: zacute
Encoding: 378 378 360
Width: 421
Flags: MW
HStem: 0 748<314 314 314 383 314 383>
VStem: 38 345<0 64 0 65 437 500>
LayerCount: 2
Back
Fore
SplineSet
38 500 m 1
 38 435 l 1
 299 435 l 1
 38 64 l 1
 38 0 l 1
 383 0 l 1
 383 65 l 1
 122 65 l 1
 383 437 l 1
 383 500 l 1
 38 500 l 1
129 596 m 1
 108 652 l 1
 314 748 l 1
 337 682 l 1
 129 596 l 1
EndSplineSet
EndChar
StartChar: zdotaccent
Encoding: 380 380 361
Width: 421
Flags: MW
HStem: 605 89<180 244 180 244>
VStem: 180 64<605 694 605 694>
LayerCount: 2
Back
Fore
SplineSet
38 500 m 1
 38 435 l 1
 299 435 l 1
 38 64 l 1
 38 0 l 1
 383 0 l 1
 383 65 l 1
 122 65 l 1
 383 437 l 1
 383 500 l 1
 38 500 l 1
180 605 m 1
 180 694 l 1
 244 694 l 1
 244 605 l 1
 180 605 l 1
EndSplineSet
EndChar
StartChar: zcaron
Encoding: 382 382 155
Width: 421
Flags: MW
HStem: 0 65<122 383 122 383> 435 65<38 383 38 299> 587 151<76 239 76 196>
VStem: 38 345<0 64 64 64 437 500>
LayerCount: 2
Back
Fore
SplineSet
239 587 m 1
 196 587 l 1
 76 738 l 1
 149 738 l 1
 217 651 l 1
 286 738 l 1
 359 738 l 1
 239 587 l 1
38 435 m 1
 38 500 l 1
 383 500 l 1
 383 437 l 1
 122 65 l 1
 383 65 l 1
 383 0 l 1
 38 0 l 1
 38 64 l 1
 299 435 l 1
 38 435 l 1
EndSplineSet
EndChar
StartChar: florin
Encoding: 402 402 225
Width: 560
Flags: MW
HStem: -243 69<135.5 170 135.5 193> -235 21G<83 83> 359 72<115 218 115 218 291 447> 615 71<329 367 301 375>
VStem: 218 73<-63 359 431 466>
LayerCount: 2
Back
Fore
SplineSet
291 359 m 1x78
 291 -63 l 2
 291 -201 237 -243 149 -243 c 0
 116 -243 83 -235 83 -235 c 1x78
 84 -171 l 1
 84 -171 122 -174 149 -174 c 0xb8
 191 -174 218 -147 218 -63 c 2
 218 359 l 1
 115 359 l 1
 115 431 l 1
 218 431 l 1
 218 482 l 2
 218 639 255 686 347 686 c 0
 387 686 446 681 460 678 c 1
 459 612 l 1
 459 612 390 615 360 615 c 0
 298 615 291 562 291 466 c 2
 291 431 l 1
 447 431 l 1
 447 359 l 1
 291 359 l 1x78
EndSplineSet
EndChar
StartChar: Aringacute
Encoding: 506 506 299
Width: 553
Flags: MW
HStem: 0 21G<22 22 22 99 454 454 454 530> 176 68<162 390 162 406 147 390> 624 68<262 278 273 278 278 291> 669 21G<357 357> 671 21G 788 52<261 295>
VStem: 173 50<725 755.5 725 774> 331 51<724.5 755.5>
LayerCount: 2
Back
Fore
SplineSet
22 0 m 1xcf
 195 671 l 1xcf
 181 687 173 710 173 740 c 0
 173 808 214 840 278 840 c 0
 339 840 382 807 382 740 c 0
 382 709 373 686 357 669 c 1xd7
 530 0 l 1
 454 0 l 1
 406 176 l 1
 147 176 l 1
 99 0 l 1
 22 0 l 1xcf
262 624 m 1xe7
 162 244 l 1
 390 244 l 1
 291 624 l 1
 262 624 l 1xe7
181 870 m 1
 160 926 l 1
 366 1022 l 1
 389 956 l 1
 181 870 l 1
223 740 m 0
 223 710 242 693 273 692 c 2
 278 692 l 2
 312 692 331 709 331 740 c 0
 331 771 312 788 278 788 c 0
 244 788 223 771 223 740 c 0
EndSplineSet
Position2: "'cpsp' Capital Spacing in Latin lookup 0 subtable" dx=5 dy=0 dh=10 dv=0
EndChar
StartChar: aringacute
Encoding: 507 507 303
Width: 493
Flags: MW
HStem: -10 65<182 253> -2 21G<358 358> 445 65<202 269.5> 544 49<241.5 267.5 241.5 281.5> 689 51<241.5 267.5>
VStem: 47 76<185 307 185 319.5> 163 45<628.5 655.5 628.5 670> 299 45<628.5 655.5> 352 75<159 436 436 436>
LayerCount: 2
Back
Fore
SplineSet
162 767 m 1xbe80
 137 830 l 1
 343 926 l 1
 370 853 l 1
 162 767 l 1xbe80
207 -10 m 0
 88 -10 47 76 47 240 c 0
 47 399 85 510 247 510 c 0
 304 510 427 493 427 493 c 1
 427 123 l 2
 427 76 433 1 433 1 c 1
 358 -2 l 1x7e80
 358 -2 353 44 353 84 c 1
 353 84 299 -10 207 -10 c 0
256 445 m 0
 148 445 123 374 123 240 c 0
 123 130 142 55 222 55 c 0
 298 55 352 159 352 159 c 1
 352 436 l 1
 352 436 283 445 256 445 c 0
163 642 m 0
 163 698 199 740 255 740 c 0
 309 740 344 698 344 642 c 0xbf80
 344 582 308 544 255 544 c 0
 198 544 163 582 163 642 c 0
208 642 m 0
 208 615 228 593 255 593 c 0
 280 593 299 615 299 642 c 0xbf80
 299 669 280 689 255 689 c 0
 228 689 208 669 208 642 c 0
EndSplineSet
EndChar
StartChar: Oslashacute
Encoding: 510 510 91
Width: 613
Flags: MW
HStem: -10 68<288 325 288 336.5> 634 68<288 326>
VStem: 53 80<293.5 429 293.5 434> 479 80<275.5 406>
LayerCount: 2
Back
Fore
SplineSet
136 -114 m 1
 87 -91 l 1
 142 34 l 1
 73 89 53 194 53 352 c 0
 53 516 75 619 153 667 c 0
 190 691 240 702 306 702 c 0
 356 702 396 695 429 682 c 1
 480 797 l 1
 532 777 l 1
 477 654 l 1
 540 601 559 502 559 352 c 0
 559 181 536 72 451 22 c 0
 415 0 367 -10 306 -10 c 0
 260 -10 222 -4 190 8 c 1
 136 -114 l 1
175 108 m 1
 284 353 l 1
 400 617 l 1
 376 629 346 634 306 634 c 0
 270 634 241 630 218 620 c 0
 145 589 133 506 133 352 c 0
 133 235 139 154 175 108 c 1
306 58 m 0
 344 58 373 63 396 75 c 0
 467 110 479 199 479 352 c 0
 479 460 473 533 444 578 c 1
 334 330 l 1
 219 73 l 1
 242 62 270 58 306 58 c 0
246 778 m 1
 221 840 l 1
 427 936 l 1
 453 864 l 1
 246 778 l 1
EndSplineSet
Position2: "'cpsp' Capital Spacing in Latin lookup 0 subtable" dx=5 dy=0 dh=10 dv=0
EndChar
StartChar: oslashacute
Encoding: 511 511 280
Width: 486
Flags: MW
HStem: -10 65<233.5 300 233.5 328.5> -1 21G<170 170> 445 65<193.5 251.5> 482 20G<312 312>
VStem: 47 72<217.5 318.5 217.5 334.5> 367 72<194 292.5>
LayerCount: 2
Back
Fore
SplineSet
243 510 m 0xac
 269 510 292 507 312 502 c 1
 351 605 l 1
 400 586 l 1
 358 481 l 1
 419 442 439 363 439 255 c 0
 439 97 414 -10 243 -10 c 0x9c
 215 -10 191 -7 170 -1 c 1x6c
 129 -111 l 1
 81 -93 l 1
 124 18 l 1
 59 59 47 145 47 255 c 0
 47 414 88 510 243 510 c 0xac
243 55 m 0
 357 55 367 133 367 255 c 0
 367 330 358 382 331 413 c 1
 262 241 l 1
 194 61 l 1
 207 57 224 55 243 55 c 0
152 88 m 1
 219 258 l 1
 288 439 l 1
 275 443 260 445 243 445 c 0
 144 445 119 382 119 255 c 0
 119 180 122 122 152 88 c 1
147 596 m 1
 126 652 l 1
 332 748 l 1
 355 682 l 1
 147 596 l 1
EndSplineSet
EndChar
StartChar: Scommaaccent
Encoding: 536 536 105
Width: 499
Flags: MW
HStem: -73 131<228 228 228 294 216 297> -10 21G<210 320> -10 68<216 294 216 320> 634 68<212.5 291.5>
VStem: 42 79<476 559.5 476 576.5> 379 78<150 237>
LayerCount: 2
Back
Fore
SplineSet
228 -73 m 1x9c
 189 -283 l 1
 250 -283 l 1
 297 -73 l 1
 228 -73 l 1x9c
439 681 m 1
 435 620 l 1
 435 620 325 634 258 634 c 0
 167 634 121 601 121 518 c 0
 121 434 167 417 271 391 c 0
 395 360 457 325 457 202 c 0
 457 63 391 -10 249 -10 c 0x3c
 171 -10 51 9 51 9 c 1x5c
 56 72 l 1
 56 72 183 58 249 58 c 0x3c
 339 58 379 105 379 195 c 0
 379 279 333 302 239 323 c 0
 111 353 42 393 42 510 c 0
 42 643 117 702 254 702 c 0
 333 702 439 681 439 681 c 1
EndSplineSet
Position2: "'cpsp' Capital Spacing in Latin lookup 0 subtable" dx=5 dy=0 dh=10 dv=0
EndChar
StartChar: scommaaccent
Encoding: 537 537 344
Width: 427
Flags: MW
HStem: -73 128<190 190 190 239 177 259> -10 21G<173 262.5> -10 65<177 239 177 262.5> 445 65<186 242>
VStem: 43 75<342.5 397 342.5 417.5> 313 75<107.5 169.5>
LayerCount: 2
Back
Fore
SplineSet
372 493 m 1x3c
 369 433 l 1
 369 433 275 445 209 445 c 0
 163 445 118 425 118 369 c 0
 118 316 150 302 223 288 c 0
 324 266 388 251 388 147 c 0
 388 25 318 -10 207 -10 c 0x3c
 139 -10 44 10 44 10 c 1x5c
 49 71 l 1
 49 71 153 55 201 55 c 0
 277 55 313 75 313 140 c 0
 313 199 271 207 202 220 c 0
 106 240 43 264 43 363 c 0
 43 472 125 510 206 510 c 0
 289 510 372 493 372 493 c 1x3c
190 -73 m 1x9c
 151 -283 l 1
 212 -283 l 1
 259 -73 l 1
 190 -73 l 1x9c
EndSplineSet
EndChar
StartChar: tcommaaccent
Encoding: 539 539 346
Width: 324
Flags: MW
HStem: -73 128<154 244 205 223> -10 65<205 237> 435 65<25 90 25 90 164 305>
VStem: 90 74<141 145 145 435 500 648>
LayerCount: 2
Back
Fore
SplineSet
305 435 m 1x70
 164 435 l 1
 164 145 l 2
 164 89 181 55 229 55 c 0
 259 55 308 61 308 61 c 1
 312 2 l 1
 312 2 254 -10 220 -10 c 0
 119 -10 90 46 90 141 c 2
 90 435 l 1
 25 435 l 1
 25 500 l 1
 90 500 l 1
 90 648 l 1
 164 648 l 1
 164 500 l 1
 305 500 l 1
 305 435 l 1x70
154 -73 m 1xb0
 115 -283 l 1
 176 -283 l 1
 223 -73 l 1
 154 -73 l 1xb0
EndSplineSet
EndChar
StartChar: circumflex
Encoding: 710 710 6
Width: 791
Flags: MW
HStem: 587 151<245 406 245 406 365 455 365 528>
VStem: 245 283<587 587>
LayerCount: 2
Back
Fore
SplineSet
245 587 m 1
 365 738 l 1
 406 738 l 1
 528 587 l 1
 455 587 l 1
 387 672 l 1
 317 587 l 1
 245 587 l 1
EndSplineSet
EndChar
StartChar: caron
Encoding: 711 711 4
Width: 791
Flags: MW
HStem: 587 151<245 408 245 365>
VStem: 245 283<738 738>
LayerCount: 2
Back
Fore
SplineSet
408 587 m 1
 365 587 l 1
 245 738 l 1
 318 738 l 1
 386 651 l 1
 455 738 l 1
 528 738 l 1
 408 587 l 1
EndSplineSet
EndChar
StartChar: breve
Encoding: 728 728 3
Width: 439
Flags: MW
HStem: 593 62<184.5 234 184.5 257>
VStem: 65 66<708.5 731 708.5 731> 288 65<708.5 731>
LayerCount: 2
Back
Fore
SplineSet
65 731 m 1
 131 731 l 1
 131 686 160 655 209 655 c 0
 259 655 288 686 288 731 c 1
 353 731 l 1
 353 655 305 593 209 593 c 0
 114 593 65 655 65 731 c 1
EndSplineSet
EndChar
StartChar: dotaccent
Encoding: 729 729 9
Width: 224
Flags: MW
HStem: 605 89<79 143 79 143>
VStem: 79 64<605 694 605 694>
LayerCount: 2
Back
Fore
SplineSet
79 605 m 1
 79 694 l 1
 143 694 l 1
 143 605 l 1
 79 605 l 1
EndSplineSet
EndChar
StartChar: ring
Encoding: 730 730 14
Width: 791
Flags: MW
HStem: 544 49<240.5 266.5 240.5 280.5> 689 51<240.5 266.5>
VStem: 162 45<628.5 655.5 628.5 670> 298 45<628.5 655.5>
LayerCount: 2
Back
Fore
SplineSet
162 642 m 0
 162 698 198 740 254 740 c 0
 308 740 343 698 343 642 c 0
 343 582 307 544 254 544 c 0
 197 544 162 582 162 642 c 0
207 642 m 0
 207 615 227 593 254 593 c 0
 279 593 298 615 298 642 c 0
 298 669 279 689 254 689 c 0
 227 689 207 669 207 642 c 0
EndSplineSet
EndChar
StartChar: ogonek
Encoding: 731 731 13
Width: 427
Flags: MW
HStem: -204 67<274.5 279.5>
VStem: 178 74<-115 -99>
LayerCount: 2
Back
Fore
SplineSet
332 -131 m 1
 338 -195 l 1
 338 -195 296 -204 263 -204 c 0
 212 -204 178 -173 178 -123 c 0
 178 -75 223 -21 255 12 c 1
 320 5 l 1
 283 -36 252 -75 252 -106 c 0
 252 -124 266 -137 283 -137 c 0
 298 -137 332 -131 332 -131 c 1
EndSplineSet
EndChar
StartChar: tilde
Encoding: 732 732 15
Width: 427
Flags: MW
HStem: 614 66<273 296.5 273 302.5> 662 21G<134 161> 666 21G<366 366> 699 20G<351 351> 708 20G<129 169>
VStem: 61 305<666 673>
LayerCount: 2
Back
Fore
SplineSet
351 719 m 1x94
 366 666 l 1
 366 666 320 614 285 614 c 0x2c
 243 614 176 662 146 662 c 0
 122 662 75 620 75 620 c 1x4c
 61 673 l 1
 61 673 110 728 148 728 c 0x8c
 190 728 260 680 286 680 c 0
 307 680 351 719 351 719 c 1x94
EndSplineSet
EndChar
StartChar: hungarumlaut
Encoding: 733 733 10
Width: 666
Flags: MW
HStem: 699 20G<320 320 501 501>
VStem: 133 368<621 719>
LayerCount: 2
Back
Fore
SplineSet
361 581 m 1
 313 621 l 1
 451 760 l 1
 501 719 l 1
 361 581 l 1
180 581 m 1
 133 621 l 1
 270 760 l 1
 320 719 l 1
 180 581 l 1
EndSplineSet
EndChar
StartChar: pi
Encoding: 960 960 206
Width: 560
Flags: MW
HStem: -4 65<485.5 520 485.5 520> 0 21G<99 174 99 99> 435 65<129 399 202 358 202 202>
VStem: 358 75<154 435 435 435>
LayerCount: 2
Back
Fore
SplineSet
358 154 m 2xb0
 358 435 l 1
 202 435 l 1
 174 0 l 1
 99 0 l 1x70
 129 435 l 1
 65 434 22 422 22 422 c 1
 22 485 l 1
 22 485 81 500 164 500 c 2
 399 500 l 2
 471 500 529 514 529 514 c 1
 529 451 l 1
 529 451 501 439 433 437 c 1
 433 154 l 2
 433 79 451 61 520 61 c 1
 520 -4 l 1
 387 -4 358 26 358 154 c 2xb0
EndSplineSet
EndChar
StartChar: wgrave
Encoding: 7809 7809 354
Width: 728
Flags: MW
HStem: 0 65<197 217 197 269 137 217 510 531> 480 20G<29 104 104 104 623 698 698 698>
VStem: 29 669<500 500>
LayerCount: 2
Back
Fore
SplineSet
253 747 m 1
 459 653 l 1
 439 599 l 1
 230 685 l 1
 253 747 l 1
29 500 m 1
 104 500 l 1
 197 65 l 1
 217 65 l 1
 324 490 l 1
 404 490 l 1
 510 65 l 1
 531 65 l 1
 623 500 l 1
 698 500 l 1
 591 0 l 1
 459 0 l 1
 364 389 l 1
 269 0 l 1
 137 0 l 1
 29 500 l 1
EndSplineSet
EndChar
StartChar: Wdieresis
Encoding: 7812 7812 125
Width: 831
Flags: MW
HStem: 0 71<223 249 223 301 166 249 583 609> 814 93<290 351 290 351 478 538>
VStem: 290 61<814 907 814 907> 478 60<814 907 814 907>
LayerCount: 2
Back
Fore
SplineSet
290 814 m 1
 290 907 l 1
 351 907 l 1
 351 814 l 1
 290 814 l 1
478 814 m 1
 478 907 l 1
 538 907 l 1
 538 814 l 1
 478 814 l 1
30 692 m 1
 104 692 l 1
 223 71 l 1
 249 71 l 1
 373 682 l 1
 456 682 l 1
 583 71 l 1
 609 71 l 1
 725 692 l 1
 800 692 l 1
 666 0 l 1
 530 0 l 1
 414 583 l 1
 301 0 l 1
 166 0 l 1
 30 692 l 1
EndSplineSet
Position2: "'cpsp' Capital Spacing in Latin lookup 0 subtable" dx=5 dy=0 dh=10 dv=0
EndChar
StartChar: wdieresis
Encoding: 7813 7813 357
Width: 728
Flags: MW
HStem: 0 65<197 217 197 269 137 217 510 531> 480 20G<29 104 104 104 623 698 698 698> 620 93<240 302 240 302 423 483>
VStem: 240 62<620 713 620 713> 423 60<620 713 620 713>
LayerCount: 2
Back
Fore
SplineSet
29 500 m 1
 104 500 l 1
 197 65 l 1
 217 65 l 1
 324 490 l 1
 404 490 l 1
 510 65 l 1
 531 65 l 1
 623 500 l 1
 698 500 l 1
 591 0 l 1
 459 0 l 1
 364 389 l 1
 269 0 l 1
 137 0 l 1
 29 500 l 1
240 620 m 1
 240 713 l 1
 302 713 l 1
 302 620 l 1
 240 620 l 1
423 620 m 1
 423 713 l 1
 483 713 l 1
 483 620 l 1
 423 620 l 1
EndSplineSet
EndChar
StartChar: uni1EAB
Encoding: 7851 7851 369
Width: 493
Flags: MW
HStem: -10 65<182 253> -2 21G<358 358> 445 65<202 269.5> 557 151<111 272 111 272 231 321 231 394> 738 66<322 345.5 322 351.5> 786 66<183 210>
VStem: 47 76<185 307 185 319.5> 352 75<159 436 436 436>
LayerCount: 2
Back
Fore
SplineSet
207 -10 m 0xb7
 88 -10 47 76 47 240 c 0
 47 399 85 510 247 510 c 0
 304 510 427 493 427 493 c 1
 427 123 l 2
 427 76 433 1 433 1 c 1
 358 -2 l 1x77
 358 -2 353 44 353 84 c 1
 353 84 299 -10 207 -10 c 0xb7
256 445 m 0
 148 445 123 374 123 240 c 0
 123 130 142 55 222 55 c 0
 298 55 352 159 352 159 c 1
 352 436 l 1
 352 436 283 445 256 445 c 0
400 843 m 1xbb
 415 790 l 1
 415 790 369 738 334 738 c 0xbb
 292 738 225 786 195 786 c 0
 171 786 124 744 124 744 c 1
 110 797 l 1
 110 797 159 852 197 852 c 0xb7
 239 852 309 804 335 804 c 0
 356 804 400 843 400 843 c 1xbb
111 557 m 1xb7
 231 708 l 1
 272 708 l 1
 394 557 l 1
 321 557 l 1
 253 642 l 1
 183 557 l 1
 111 557 l 1xb7
EndSplineSet
EndChar
StartChar: uni1EB0
Encoding: 7856 7856 365
Width: 553
Flags: MW
HStem: 0 21G<22 22 22 99 454 454 454 530> 176 68<162 390 162 406 147 390> 624 68<262 262 262 291> 756 58<254 297 254 326>
VStem: 135 68<861 883 861 883> 350 67<861 883>
LayerCount: 2
Back
Fore
SplineSet
186 1089 m 1
 392 995 l 1
 372 941 l 1
 163 1027 l 1
 186 1089 l 1
22 0 m 1
 201 692 l 1
 352 692 l 1
 530 0 l 1
 454 0 l 1
 406 176 l 1
 147 176 l 1
 99 0 l 1
 22 0 l 1
262 624 m 1
 162 244 l 1
 390 244 l 1
 291 624 l 1
 262 624 l 1
135 883 m 1
 203 883 l 1
 203 839 232 814 276 814 c 0
 318 814 350 839 350 883 c 1
 417 883 l 1
 417 821 376 756 276 756 c 0
 177 756 135 821 135 883 c 1
EndSplineSet
EndChar
StartChar: uni1EC5
Encoding: 7877 7877 367
Width: 453
Flags: MW
HStem: -9 64<197.5 273.5 197.5 279.5> 223 58<122 172 172 173 121 172> 447 62<203 277> 557 151<98 259 98 259 218 308 218 381> 738 66<302 325.5 302 331.5> 786 66<163 190>
VStem: 45 76<161 208 208 223 161 325> 341 74<336.5 401.5>
LayerCount: 2
Back
Fore
SplineSet
238 55 m 0xeb
 309 55 393 74 393 74 c 1
 397 19 l 1
 397 19 325 -9 234 -9 c 0
 102 -9 45 66 45 242 c 0
 45 408 105 509 248 509 c 0
 350 509 415 470 415 375 c 0
 415 254 338 223 173 223 c 2
 121 223 l 1
 121 208 l 2
 121 114 157 55 238 55 c 0xeb
122 281 m 1
 172 281 l 2
 293 281 341 299 341 374 c 0
 341 429 306 447 248 447 c 0
 158 447 123 386 122 281 c 1
380 843 m 1
 395 790 l 1
 395 790 349 738 314 738 c 0xeb
 272 738 205 786 175 786 c 0
 151 786 104 744 104 744 c 1
 90 797 l 1
 90 797 139 852 177 852 c 0xe7
 219 852 289 804 315 804 c 0
 336 804 380 843 380 843 c 1
98 557 m 1xfb
 218 708 l 1
 259 708 l 1
 381 557 l 1
 308 557 l 1
 240 642 l 1
 170 557 l 1
 98 557 l 1xfb
EndSplineSet
EndChar
StartChar: uni1ED7
Encoding: 7895 7895 368
Width: 486
Flags: MW
HStem: -10 65<186 300 186 328.5> 445 65<193.5 292.5> 557 151<98 259 98 259 218 308 218 381> 738 66<305 328.5 305 334.5> 786 66<166 193>
VStem: 47 72<194 318.5 194 334.5> 367 72<194 318.5>
LayerCount: 2
Back
Fore
SplineSet
243 510 m 0xd6
 397 510 439 414 439 255 c 0
 439 97 414 -10 243 -10 c 0
 72 -10 47 97 47 255 c 0
 47 414 88 510 243 510 c 0xd6
243 55 m 0
 357 55 367 133 367 255 c 0
 367 382 342 445 243 445 c 0
 144 445 119 382 119 255 c 0
 119 133 129 55 243 55 c 0
383 843 m 1
 398 790 l 1
 398 790 352 738 317 738 c 0xd6
 275 738 208 786 178 786 c 0
 154 786 107 744 107 744 c 1
 93 797 l 1
 93 797 142 852 180 852 c 0xce
 222 852 292 804 318 804 c 0
 339 804 383 843 383 843 c 1
98 557 m 1xf6
 218 708 l 1
 259 708 l 1
 381 557 l 1
 308 557 l 1
 240 642 l 1
 170 557 l 1
 98 557 l 1xf6
EndSplineSet
EndChar
StartChar: ygrave
Encoding: 7923 7923 358
Width: 448
Flags: MW
HStem: -222 21G<161 233 161 161> 0 64<208 224 155 239> 480 20G<24 98 98 98 351 425 425 425>
VStem: 24 401<500 500>
LayerCount: 2
Back
Fore
SplineSet
117 747 m 1
 323 653 l 1
 303 599 l 1
 94 685 l 1
 117 747 l 1
24 500 m 1
 98 500 l 1
 208 64 l 1
 239 64 l 1
 351 500 l 1
 425 500 l 1
 233 -222 l 1
 161 -222 l 1
 224 0 l 1
 155 0 l 1
 24 500 l 1
EndSplineSet
EndChar
StartChar: uni1EF8
Encoding: 7928 7928 366
Width: 498
Flags: MW
HStem: 0 21G<213 286 213 213> 810 66<314 337.5 314 343.5> 858 66<175 202>
VStem: 213 73<0 290 0 290>
LayerCount: 2
Back
Fore
SplineSet
392 915 m 1xd0
 407 862 l 1
 407 862 361 810 326 810 c 0xd0
 284 810 217 858 187 858 c 0
 163 858 116 816 116 816 c 1
 102 869 l 1
 102 869 151 924 189 924 c 0xb0
 231 924 301 876 327 876 c 0
 348 876 392 915 392 915 c 1xd0
486 692 m 1
 286 290 l 1
 286 0 l 1
 213 0 l 1
 213 290 l 1
 10 692 l 1
 93 692 l 1
 249 373 l 1
 404 692 l 1
 486 692 l 1
EndSplineSet
EndChar
StartChar: uni1EF9
Encoding: 7929 7929 364
Width: 448
Flags: MW
HStem: -222 21G<161 233 161 161> 0 64<208 224 155 239> 480 20G<24 98 98 98 351 425 425 425> 614 66<289 312.5 289 318.5> 662 21G<150 177> 666 21G<382 382> 699 20G<367 367> 708 20G<145 185>
VStem: 24 401<500 500>
LayerCount: 2
Back
Fore
SplineSet
367 719 m 1xf280
 382 666 l 1
 382 666 336 614 301 614 c 0xe580
 259 614 192 662 162 662 c 0
 138 662 91 620 91 620 c 1xe980
 77 673 l 1
 77 673 126 728 164 728 c 0xf180
 206 728 276 680 302 680 c 0
 323 680 367 719 367 719 c 1xf280
24 500 m 1
 98 500 l 1
 208 64 l 1
 239 64 l 1
 351 500 l 1
 425 500 l 1
 233 -222 l 1
 161 -222 l 1
 224 0 l 1
 155 0 l 1
 24 500 l 1
EndSplineSet
EndChar
StartChar: endash
Encoding: 8211 8211 143
Width: 626
Flags: MW
HStem: 235 66<63 563 63 563>
VStem: 63 500<235 301 235 301>
LayerCount: 2
Back
Fore
SplineSet
63 301 m 1
 563 301 l 1
 563 235 l 1
 63 235 l 1
 63 301 l 1
EndSplineSet
Substitution2: "'case' Case-Sensitive Forms in Latin lookup 4 subtable" endash.cap
EndChar
StartChar: quoteleft
Encoding: 8216 8216 243
Width: 200
Flags: MW
HStem: 468 223<99 117 45 153>
VStem: 45 108
LayerCount: 2
Back
Fore
SplineSet
99 691 m 1
 153 691 l 1
 117 468 l 1
 45 468 l 1
 99 691 l 1
EndSplineSet
EndChar
StartChar: quoteright
Encoding: 8217 8217 244
Width: 199
Flags: MW
HStem: 469 223<86 104 50 158>
VStem: 50 108
LayerCount: 2
Back
Fore
SplineSet
104 469 m 1
 50 469 l 1
 86 692 l 1
 158 692 l 1
 104 469 l 1
EndSplineSet
EndChar
StartChar: quotesinglbase
Encoding: 8218 8218 283
Width: 194
Flags: MW
HStem: -45 44<69 73 58 80>
VStem: 58 22
LayerCount: 2
Back
Fore
SplineSet
69 -1 m 1
 80 -1 l 1
 73 -45 l 1
 58 -45 l 1
 69 -1 l 1
EndSplineSet
EndChar
StartChar: quotedblleft
Encoding: 8220 8220 210
Width: 359
Flags: MW
HStem: 469 223<100 118 46 154 100 204 258 276>
VStem: 46 266<469 692>
LayerCount: 2
Back
Fore
SplineSet
100 692 m 1
 154 692 l 1
 118 469 l 1
 46 469 l 1
 100 692 l 1
258 692 m 1
 312 692 l 1
 276 469 l 1
 204 469 l 1
 258 692 l 1
EndSplineSet
EndChar
StartChar: quotedblright
Encoding: 8221 8221 255
Width: 357
Flags: MW
HStem: 469 223<86 104 50 158 86 208 244 262>
VStem: 50 266<469 692>
LayerCount: 2
Back
Fore
SplineSet
104 469 m 1
 50 469 l 1
 86 692 l 1
 158 692 l 1
 104 469 l 1
262 469 m 1
 208 469 l 1
 244 692 l 1
 316 692 l 1
 262 469 l 1
EndSplineSet
EndChar
StartChar: quotedblbase
Encoding: 8222 8222 380
Width: 330
Flags: MW
HStem: -159 223<136 168 82 204>
VStem: 82 122
LayerCount: 2
Back
Fore
SplineSet
136 64 m 1
 204 64 l 1
 168 -159 l 1
 82 -159 l 1
 136 64 l 1
EndSplineSet
EndChar
StartChar: dagger
Encoding: 8224 8224 251
Width: 444
Flags: MW
HStem: 423 75<29 187 29 187 29 258 258 415>
VStem: 187 71<-75 423 -75 423 498 686>
LayerCount: 2
Back
Fore
SplineSet
29 423 m 1
 29 498 l 1
 187 498 l 1
 187 686 l 1
 258 686 l 1
 258 498 l 1
 415 498 l 1
 415 423 l 1
 258 423 l 1
 258 -75 l 1
 187 -75 l 1
 187 423 l 1
 29 423 l 1
EndSplineSet
EndChar
StartChar: daggerdbl
Encoding: 8225 8225 227
Width: 485
Flags: MW
HStem: 113 75<49 207 49 207 49 278 278 435> 423 75<49 207 49 207 49 278 278 435>
VStem: 207 71<-75 113 -75 113 188 423 498 686>
LayerCount: 2
Back
Fore
SplineSet
207 -75 m 1
 207 113 l 1
 49 113 l 1
 49 188 l 1
 207 188 l 1
 207 423 l 1
 49 423 l 1
 49 498 l 1
 207 498 l 1
 207 686 l 1
 278 686 l 1
 278 498 l 1
 435 498 l 1
 435 423 l 1
 278 423 l 1
 278 188 l 1
 435 188 l 1
 435 113 l 1
 278 113 l 1
 278 -75 l 1
 207 -75 l 1
EndSplineSet
EndChar
StartChar: bullet
Encoding: 8226 8226 207
Width: 460
Flags: MW
HStem: 106 286<105 355 105 355>
VStem: 105 250<106 392 106 392>
LayerCount: 2
Back
Fore
SplineSet
105 106 m 1
 105 392 l 1
 355 392 l 1
 355 106 l 1
 105 106 l 1
EndSplineSet
EndChar
StartChar: ellipsis
Encoding: 8230 8230 268
Width: 673
Flags: MW
HStem: 0 111<63 139 63 139 299 375 535 611>
VStem: 63 76<0 111 0 111> 299 76<0 111 0 111> 535 76<0 111 0 111>
LayerCount: 2
Back
Fore
SplineSet
63 0 m 1
 63 111 l 1
 139 111 l 1
 139 0 l 1
 63 0 l 1
299 0 m 1
 299 111 l 1
 375 111 l 1
 375 0 l 1
 299 0 l 1
535 0 m 1
 535 111 l 1
 611 111 l 1
 611 0 l 1
 535 0 l 1
EndSplineSet
EndChar
StartChar: perthousand
Encoding: 8240 8240 274
Width: 825
Flags: MW
HStem: -9 21G<220 220> 0 51<408.5 445.5 408.5 460.5 666 703> 228 52<408.5 445.5 666 703> 473 177<124.5 161.5> 695 21G<408 408> 701 21G<109 176.5>
VStem: 93 99<533.5 592.5> 317 60<112 171 112 190> 476 61<111.5 170.5> 575 60<112 171 112 190> 734 60<111.5 170.5>
LayerCount: 2
Back
Fore
SplineSet
143 650 m 0x77e0
 180 650 192 622 192 563 c 0
 192 503 180 473 143 473 c 0
 106 473 93 504 93 563 c 0
 93 622 106 650 143 650 c 0x77e0
166 4 m 1x8a
 353 709 l 1
 408 695 l 1
 220 -9 l 1
 166 4 l 1x8a
33 563 m 0
 33 466 75 421 143 421 c 0
 209 421 252 466 252 563 c 0
 252 659 210 701 143 701 c 0x06
 75 701 33 659 33 563 c 0
317 142 m 0x61e0
 317 238 359 280 427 280 c 0
 494 280 537 238 537 141 c 0
 537 45 494 0 427 0 c 0
 359 0 317 45 317 142 c 0x61e0
377 142 m 0
 377 82 390 51 427 51 c 0
 464 51 476 82 476 141 c 0
 476 200 464 228 427 228 c 0
 390 228 377 200 377 142 c 0
575 142 m 0
 575 238 616 280 684 280 c 0
 752 280 794 238 794 141 c 0
 794 45 751 0 684 0 c 0
 617 0 575 45 575 142 c 0
635 142 m 0
 635 82 648 51 684 51 c 0
 722 51 734 82 734 141 c 0
 734 200 722 228 684 228 c 0
 648 228 635 200 635 142 c 0
EndSplineSet
EndChar
StartChar: guilsinglleft
Encoding: 8249 8249 381
Width: 278
Flags: MW
HStem: 79 330<216 216>
VStem: 38 178<79 267 79 267>
LayerCount: 2
Back
Fore
SplineSet
216 409 m 1
 216 341 l 1
 98 249 l 1
 216 148 l 1
 216 79 l 1
 38 229 l 1
 38 267 l 1
 216 409 l 1
EndSplineSet
EndChar
StartChar: guilsinglright
Encoding: 8250 8250 382
Width: 278
Flags: MW
HStem: 215 66<62 62>
VStem: 62 178<215 251 229 251 244 281 244 281>
LayerCount: 2
Back
Fore
SplineSet
62 215 m 1
 62 229 l 1
 180 247 l 1
 62 267 l 1
 62 281 l 1
 240 251 l 1
 240 244 l 1
 62 215 l 1
EndSplineSet
EndChar
StartChar: fraction
Encoding: 8260 8260 419
Width: 13
Flags: MW
HStem: -11 717<-91 104>
VStem: -160 333
LayerCount: 2
Back
Fore
SplineSet
-91 -11 m 1
 -160 14 l 1
 104 706 l 1
 173 681 l 1
 -91 -11 l 1
EndSplineSet
EndChar
StartChar: zerosuperior
Encoding: 8304 8304 256
Width: 280
Flags: MW
HStem: 468 59<123 156> 741 59<123.5 158>
VStem: 21 66<591 669.5> 193 66<598 674>
LayerCount: 2
Back
Fore
SplineSet
139 800 m 0
 215 800 259 759 259 634 c 0
 259 562 244 519 218 494 c 0
 198 476 172 468 140 468 c 0
 66 468 21 507 21 634 c 0
 21 705 36 749 62 774 c 0
 82 792 108 800 139 800 c 0
139 741 m 0
 104 741 87 715 87 634 c 0
 87 548 106 527 140 527 c 0
 174 527 193 548 193 634 c 0
 193 714 177 741 139 741 c 0
EndSplineSet
Substitution2: "Single Substitution lookup 5 subtable" zeroinferior
EndChar
StartChar: foursuperior
Encoding: 8308 8308 260
Width: 280
Flags: MW
HStem: 526 59<90 165 90 165 228 255>
VStem: 167.5 60.5
LayerCount: 2
Back
Fore
SplineSet
165 478 m 1
 165 526 l 1
 24 526 l 1
 24 581 l 1
 93 790 l 1
 163 790 l 1
 90 585 l 1
 165 585 l 1
 170 673 l 1
 228 673 l 1
 228 585 l 1
 255 585 l 1
 255 526 l 1
 228 526 l 1
 228 478 l 1
 165 478 l 1
EndSplineSet
Substitution2: "Single Substitution lookup 5 subtable" fourinferior
EndChar
StartChar: fivesuperior
Encoding: 8309 8309 261
Width: 280
Flags: MW
HStem: 470 57<120 151 116.5 176> 621 56<140.5 155> 662 21G<100 100> 733 57<105 239 105 105>
VStem: 47 55.5 184 67<559.5 593>
LayerCount: 2
Back
Fore
SplineSet
52 790 m 1xbc
 239 790 l 1
 239 733 l 1
 105 733 l 1
 100 662 l 1xbc
 100 662 124 677 157 677 c 0
 212 677 251 652 251 576 c 0
 251 506 208 470 144 470 c 0
 96 470 37 483 37 483 c 1
 42 538 l 1
 42 538 96 527 137 527 c 0
 165 527 184 543 184 576 c 0
 184 610 166 621 144 621 c 0
 117 621 92 606 92 606 c 1
 42 612 l 1xdc
 52 790 l 1xbc
EndSplineSet
Substitution2: "Single Substitution lookup 5 subtable" fiveinferior
EndChar
StartChar: sixsuperior
Encoding: 8310 8310 262
Width: 280
Flags: MW
HStem: 468 57<125.5 160.5 125.5 178.5> 628 55<143 161> 742 58<134.5 171.5 109.5 172>
VStem: 27 66 190 66<564 597>
LayerCount: 2
Back
Fore
SplineSet
243 790 m 1
 239 736 l 1
 239 736 189 742 155 742 c 0
 114 742 95 721 94 669 c 1
 108 674 133 683 153 683 c 0
 224 683 256 646 256 580 c 0
 256 510 212 468 145 468 c 0
 64 468 27 518 27 630 c 0
 27 748 66 800 153 800 c 0
 190 800 243 790 243 790 c 1
145 628 m 0
 126 628 105 618 93 612 c 1
 94 558 108 525 143 525 c 0
 178 525 190 549 190 579 c 0
 190 615 177 628 145 628 c 0
EndSplineSet
Substitution2: "Single Substitution lookup 5 subtable" sixinferior
EndChar
StartChar: sevensuperior
Encoding: 8311 8311 263
Width: 280
Flags: MW
HStem: 728 62<30 237 30 165>
VStem: 165 72<713 728 728 728>
LayerCount: 2
Back
Fore
SplineSet
30 728 m 1
 30 790 l 1
 237 790 l 1
 237 713 l 1
 132 469 l 1
 61 482 l 1
 165 707 l 1
 165 728 l 1
 30 728 l 1
EndSplineSet
Substitution2: "Single Substitution lookup 5 subtable" seveninferior
EndChar
StartChar: eightsuperior
Encoding: 8312 8312 264
Width: 280
Flags: MW
HStem: 468 55<123.5 156.5 123.5 177> 613 52<126 154 126 154> 745 55<122.5 157.5>
VStem: 21 66<551.5 580.5 551.5 590> 26 65<697 721 697 743.5> 189 65<696.5 720.5> 193 66<551.5 579>
LayerCount: 2
Back
Fore
SplineSet
140 800 m 0xec
 215 800 254 773 254 715 c 0xf4
 254 671 236 649 211 641 c 1
 235 634 259 617 259 565 c 0
 259 493 214 468 140 468 c 0
 65 468 21 493 21 565 c 0xf2
 21 615 47 632 70 642 c 1
 48 650 26 669 26 715 c 0
 26 772 64 800 140 800 c 0xec
140 523 m 0xf2
 173 523 193 537 193 566 c 0
 193 592 180 605 154 613 c 1
 126 613 l 1
 101 605 87 595 87 566 c 0
 87 537 107 523 140 523 c 0xf2
140 745 m 0xec
 105 745 91 733 91 709 c 0
 91 685 102 674 126 665 c 1
 154 665 l 1
 180 674 189 685 189 708 c 0
 189 733 175 745 140 745 c 0xec
EndSplineSet
Substitution2: "Single Substitution lookup 5 subtable" eightinferior
EndChar
StartChar: ninesuperior
Encoding: 8313 8313 265
Width: 280
Flags: MW
HStem: 468 59<109 146.5 105 173> 586 53<121 140> 742 58<123.5 156.5>
VStem: 25 65<676 708 676 725.5> 189 65<653 653>
LayerCount: 2
Back
Fore
SplineSet
37 480 m 1
 42 533 l 1
 42 533 86 527 124 527 c 0
 169 527 187 552 187 598 c 1
 187 598 154 586 126 586 c 0
 62 586 25 625 25 690 c 0
 25 761 72 800 136 800 c 0
 217 800 254 745 254 633 c 0
 254 514 216 468 130 468 c 0
 88 468 37 480 37 480 c 1
135 639 m 0
 158 639 189 653 189 653 c 1
 188 709 175 742 138 742 c 0
 109 742 90 725 90 691 c 0
 90 661 107 639 135 639 c 0
EndSplineSet
Substitution2: "Single Substitution lookup 5 subtable" nineinferior
EndChar
StartChar: zeroinferior
Encoding: 8320 8320 422
Width: 280
Flags: MW
HStem: -10 59<123 156> 263 59<123.5 158>
VStem: 21 66<113 191.5> 193 66<120 196>
LayerCount: 2
Back
Fore
SplineSet
139 322 m 0
 215 322 259 281 259 156 c 0
 259 84 244 41 218 16 c 0
 198 -2 172 -10 140 -10 c 0
 66 -10 21 29 21 156 c 0
 21 227 36 271 62 296 c 0
 82 314 108 322 139 322 c 0
139 263 m 0
 104 263 87 237 87 156 c 0
 87 70 106 49 140 49 c 0
 174 49 193 70 193 156 c 0
 193 236 177 263 139 263 c 0
EndSplineSet
Substitution2: "'frac' Diagonal Fractions in Latin lookup 1 subtable" zerosuperior
EndChar
StartChar: oneinferior
Encoding: 8321 8321 423
Width: 280
Flags: MW
HStem: -40 312<148 208 148 208 144 208>
VStem: 144 64<-40 202 202 202>
LayerCount: 2
Back
Fore
SplineSet
47 202 m 1
 148 272 l 1
 208 272 l 1
 208 -40 l 1
 144 -40 l 1
 144 202 l 1
 76 155 l 1
 47 202 l 1
EndSplineSet
Substitution2: "'frac' Diagonal Fractions in Latin lookup 1 subtable" onesuperior
EndChar
StartChar: twoinferior
Encoding: 8322 8322 424
Width: 280
Flags: MW
HStem: -40 58<121 247 121 247> 221 61<121.5 142>
VStem: 38 209<-40 16 16 16> 176 67<170 198>
LayerCount: 2
Back
Fore
SplineSet
247 -40 m 1xa0
 38 -40 l 1
 38 16 l 1xa0
 126 102 l 2
 157 132 176 155 176 185 c 0
 176 211 157 221 127 221 c 0
 98 221 43 211 43 211 c 1
 40 270 l 1
 40 270 100 282 143 282 c 0
 212 282 243 253 243 191 c 0
 243 145 221 114 181 78 c 2xd0
 121 18 l 1
 247 18 l 1
 247 -40 l 1xa0
EndSplineSet
Substitution2: "'frac' Diagonal Fractions in Latin lookup 1 subtable" twosuperior
EndChar
StartChar: threeinferior
Encoding: 8323 8323 425
Width: 280
Flags: MW
HStem: -50 59<118.5 151.5 112.5 176.5> 92 54<72 137 72 137> 223 59<114.5 146>
VStem: 175 67<177.5 201.5> 184 66<37.5 66>
LayerCount: 2
Back
Fore
SplineSet
34 272 m 1xe8
 34 272 93 282 136 282 c 0
 207 282 242 256 242 198 c 0xf0
 242 149 209 128 202 123 c 1
 232 113 250 99 250 47 c 0
 250 -19 210 -50 143 -50 c 0
 94 -50 30 -40 30 -40 c 1
 34 16 l 1
 34 16 91 9 134 9 c 0
 169 9 184 25 184 50 c 0
 184 82 165 92 137 92 c 2xe8
 72 92 l 1
 72 146 l 1
 137 146 l 2
 155 146 175 165 175 190 c 0
 175 213 162 223 130 223 c 0xf0
 87 223 38 216 38 216 c 1
 34 272 l 1xe8
EndSplineSet
Substitution2: "'frac' Diagonal Fractions in Latin lookup 1 subtable" threesuperior
EndChar
StartChar: fourinferior
Encoding: 8324 8324 426
Width: 280
Flags: MW
HStem: 8 59<97 172 97 172 235 262>
VStem: 174.5 60.5
LayerCount: 2
Back
Fore
SplineSet
172 -40 m 1
 172 8 l 1
 31 8 l 1
 31 63 l 1
 100 272 l 1
 170 272 l 1
 97 67 l 1
 172 67 l 1
 177 155 l 1
 235 155 l 1
 235 67 l 1
 262 67 l 1
 262 8 l 1
 235 8 l 1
 235 -40 l 1
 172 -40 l 1
EndSplineSet
Substitution2: "'frac' Diagonal Fractions in Latin lookup 1 subtable" foursuperior
EndChar
StartChar: fiveinferior
Encoding: 8325 8325 427
Width: 280
Flags: MW
HStem: -48 57<113 144 109.5 169> 103 56<133.5 148> 215 57<98 232 98 98>
VStem: 40 55.5 177 67<41.5 75>
LayerCount: 2
Back
Fore
SplineSet
45 272 m 1
 232 272 l 1
 232 215 l 1
 98 215 l 1
 93 144 l 1
 93 144 117 159 150 159 c 0
 205 159 244 134 244 58 c 0
 244 -12 201 -48 137 -48 c 0
 89 -48 30 -35 30 -35 c 1
 35 20 l 1
 35 20 89 9 130 9 c 0
 158 9 177 25 177 58 c 0
 177 92 159 103 137 103 c 0
 110 103 85 88 85 88 c 1
 35 94 l 1
 45 272 l 1
EndSplineSet
Substitution2: "'frac' Diagonal Fractions in Latin lookup 1 subtable" fivesuperior
EndChar
StartChar: sixinferior
Encoding: 8326 8326 428
Width: 280
Flags: MW
HStem: -50 57<122.5 157.5 122.5 175.5> 110 55<140 158> 224 58<131.5 168.5 106.5 169>
VStem: 24 66 187 66<46 79>
LayerCount: 2
Back
Fore
SplineSet
240 272 m 1
 236 218 l 1
 236 218 186 224 152 224 c 0
 111 224 92 203 91 151 c 1
 105 156 130 165 150 165 c 0
 221 165 253 128 253 62 c 0
 253 -8 209 -50 142 -50 c 0
 61 -50 24 0 24 112 c 0
 24 230 63 282 150 282 c 0
 187 282 240 272 240 272 c 1
142 110 m 0
 123 110 102 100 90 94 c 1
 91 40 105 7 140 7 c 0
 175 7 187 31 187 61 c 0
 187 97 174 110 142 110 c 0
EndSplineSet
Substitution2: "'frac' Diagonal Fractions in Latin lookup 1 subtable" sixsuperior
EndChar
StartChar: seveninferior
Encoding: 8327 8327 429
Width: 280
Flags: MW
HStem: 210 62<36 243 36 171>
VStem: 171 72<195 210 210 210>
LayerCount: 2
Back
Fore
SplineSet
36 210 m 1
 36 272 l 1
 243 272 l 1
 243 195 l 1
 138 -49 l 1
 67 -36 l 1
 171 189 l 1
 171 210 l 1
 36 210 l 1
EndSplineSet
Substitution2: "'frac' Diagonal Fractions in Latin lookup 1 subtable" sevensuperior
EndChar
StartChar: eightinferior
Encoding: 8328 8328 430
Width: 280
Flags: MW
HStem: -50 55<123.5 156.5 123.5 177> 95 52<126 154 126 154> 227 55<122.5 157.5>
VStem: 21 66<33.5 62.5 33.5 72> 26 65<179 203 179 225.5> 189 65<178.5 202.5> 193 66<33.5 61>
LayerCount: 2
Back
Fore
SplineSet
140 282 m 0xec
 215 282 254 255 254 197 c 0xf4
 254 153 236 131 211 123 c 1
 235 116 259 99 259 47 c 0
 259 -25 214 -50 140 -50 c 0
 65 -50 21 -25 21 47 c 0xf2
 21 97 47 114 70 124 c 1
 48 132 26 151 26 197 c 0
 26 254 64 282 140 282 c 0xec
140 5 m 0xf2
 173 5 193 19 193 48 c 0
 193 74 180 87 154 95 c 1
 126 95 l 1
 101 87 87 77 87 48 c 0
 87 19 107 5 140 5 c 0xf2
140 227 m 0xec
 105 227 91 215 91 191 c 0
 91 167 102 156 126 147 c 1
 154 147 l 1
 180 156 189 167 189 190 c 0
 189 215 175 227 140 227 c 0xec
EndSplineSet
Substitution2: "'frac' Diagonal Fractions in Latin lookup 1 subtable" eightsuperior
EndChar
StartChar: nineinferior
Encoding: 8329 8329 431
Width: 280
Flags: MW
HStem: -50 59<107 144.5 103 171> 68 53<119 138> 224 58<121.5 154.5>
VStem: 23 65<158 190 158 207.5> 187 65<135 135>
LayerCount: 2
Back
Fore
SplineSet
35 -38 m 1
 40 15 l 1
 40 15 84 9 122 9 c 0
 167 9 185 34 185 80 c 1
 185 80 152 68 124 68 c 0
 60 68 23 107 23 172 c 0
 23 243 70 282 134 282 c 0
 215 282 252 227 252 115 c 0
 252 -4 214 -50 128 -50 c 0
 86 -50 35 -38 35 -38 c 1
133 121 m 0
 156 121 187 135 187 135 c 1
 186 191 173 224 136 224 c 0
 107 224 88 207 88 173 c 0
 88 143 105 121 133 121 c 0
EndSplineSet
Substitution2: "'frac' Diagonal Fractions in Latin lookup 1 subtable" ninesuperior
EndChar
StartChar: Euro
Encoding: 8364 8364 246
Width: 560
Flags: MW
HStem: -10 65<285 361> 209 62<55 100 55 105 55 100 181 181 181 444> 376 61<55 100 55 104 179 444> 606 65<282.5 362.5 250.5 365>
VStem: 100 75<271 271>
LayerCount: 2
Back
Fore
SplineSet
487 72 m 1
 490 11 l 1
 490 11 399 -10 323 -10 c 0
 178 -10 122 70 105 209 c 1
 55 209 l 1
 55 271 l 1
 100 271 l 1
 99 290 99 309 99 330 c 0
 99 346 99 361 100 376 c 1
 55 376 l 1
 55 437 l 1
 104 437 l 1
 121 586 178 671 323 671 c 0
 402 671 491 651 491 651 c 1
 487 589 l 1
 487 589 397 606 333 606 c 0
 232 606 192 544 179 437 c 1
 444 437 l 1
 444 376 l 1
 175 376 l 1
 174 361 174 346 174 330 c 0
 174 309 174 289 175 271 c 1
 444 271 l 1
 444 209 l 1
 181 209 l 1
 195 113 236 55 334 55 c 0
 391 55 487 72 487 72 c 1
EndSplineSet
EndChar
StartChar: trademark
Encoding: 8482 8482 159
Width: 662
Flags: MW
HStem: 331 299<84 315 315 367 542 542 542 594> 580 50<84 284 84 162 217 217 217 284>
VStem: 162 55<332 580 332 580> 315 52<331 555 331 630> 542 52<331 555 555 555>
LayerCount: 2
Back
Fore
SplineSet
84 580 m 1x78
 84 630 l 1
 284 630 l 1
 284 580 l 1
 217 580 l 1
 217 332 l 1
 162 332 l 1
 162 580 l 1
 84 580 l 1x78
315 331 m 1
 315 630 l 1
 386 630 l 1x78
 453 422 l 1
 523 630 l 1
 594 630 l 1
 594 331 l 1
 542 331 l 1xb8
 542 555 l 1
 475 346 l 1
 432 346 l 1
 367 555 l 1
 367 331 l 1
 315 331 l 1
EndSplineSet
EndChar
StartChar: Omega
Encoding: 8486 8486 279
Width: 560
Flags: MW
HStem: -9 66<45 167 45 242 45 167 393 515> 602 69<217.5 341.5>
VStem: 59 79<305.5 439 300.5 474> 393 122<-9 57> 422 79<305.5 439>
LayerCount: 2
Back
Fore
SplineSet
45 57 m 1xe8
 167 57 l 1
 167 57 59 235 59 376 c 0
 59 572 107 671 280 671 c 0
 453 671 501 572 501 376 c 0xe8
 501 235 393 57 393 57 c 1
 515 57 l 1
 515 -9 l 1xf0
 318 -9 l 1
 318 48 l 1
 318 48 422 245 422 356 c 0
 422 522 403 602 280 602 c 0
 155 602 138 522 138 356 c 0
 138 245 242 48 242 48 c 1
 242 -9 l 1
 45 -9 l 1
 45 57 l 1xe8
EndSplineSet
EndChar
StartChar: Delta
Encoding: 8710 8710 278
Width: 560
Flags: MW
HStem: 0 66<131 429 131 507> 595 65<267 293 267 267>
VStem: 54 453<0 57 0 57>
LayerCount: 2
Back
Fore
SplineSet
54 57 m 1
 212 660 l 1
 348 660 l 1
 506 56 l 1
 507 0 l 1
 54 0 l 1
 54 57 l 1
293 595 m 1
 267 595 l 1
 131 66 l 1
 429 66 l 1
 293 595 l 1
EndSplineSet
EndChar
StartChar: product
Encoding: 8719 8719 409
Width: 560
Flags: MW
HStem: 686 68<30 100 30 530 176 382 176 176 459 459 459 530>
VStem: 100 76<-163 686 -163 686> 382 77<-163 686 -163 686>
LayerCount: 2
Back
Fore
SplineSet
382 -163 m 1
 382 686 l 1
 176 686 l 1
 176 -163 l 1
 100 -163 l 1
 100 686 l 1
 30 686 l 1
 30 754 l 1
 530 754 l 1
 530 686 l 1
 459 686 l 1
 459 -163 l 1
 382 -163 l 1
EndSplineSet
EndChar
StartChar: summation
Encoding: 8721 8721 146
Width: 560
Flags: MW
HStem: -163 69<125 515 125 515> 685 68<125 515 125 125>
VStem: 45 80<-94 -69 -94 -62 -94 -62 663 685>
LayerCount: 2
Back
Fore
SplineSet
312 308 m 1
 45 654 l 1
 45 753 l 1
 515 753 l 1
 515 685 l 1
 125 685 l 1
 125 663 l 1
 382 334 l 1
 382 279 l 1
 125 -69 l 1
 125 -94 l 1
 515 -94 l 1
 515 -163 l 1
 45 -163 l 1
 45 -62 l 1
 312 308 l 1
EndSplineSet
EndChar
StartChar: minus
Encoding: 8722 8722 182
Width: 560
Flags: MW
HStem: 217 68<66 494 66 494>
VStem: 66 428<217 285 217 285>
LayerCount: 2
Back
Fore
SplineSet
66 217 m 1
 66 285 l 1
 494 285 l 1
 494 217 l 1
 66 217 l 1
EndSplineSet
EndChar
StartChar: radical
Encoding: 8730 8730 408
Width: 560
Flags: MW
HStem: -136 65<254 264 254 318 197 264> 378 68<4 126 4 63>
VStem: 4 563<378 777 446 777>
LayerCount: 2
Back
Fore
SplineSet
4 378 m 1
 4 446 l 1
 126 446 l 1
 254 -71 l 1
 264 -71 l 1
 490 777 l 1
 567 777 l 1
 318 -136 l 1
 197 -136 l 1
 63 378 l 1
 4 378 l 1
EndSplineSet
EndChar
StartChar: infinity
Encoding: 8734 8734 362
Width: 560
Flags: MW
HStem: 121 67<140 186.5 374.5 420> 396 67<139.5 184 112 188 375.5 420.5>
VStem: 30 72<262 325 262 346.5> 458 72<259 325>
LayerCount: 2
Back
Fore
SplineSet
155 121 m 0
 71 121 30 183 30 292 c 0
 30 401 71 463 153 463 c 0
 215 463 251 426 280 357 c 1
 309 426 344 463 407 463 c 0
 489 463 530 401 530 292 c 0
 530 183 489 121 405 121 c 0
 344 121 309 157 280 225 c 1
 249 145 218 121 155 121 c 0
253 292 m 1
 230 343 214 396 162 396 c 0
 117 396 102 358 102 292 c 0
 102 232 118 188 162 188 c 0
 214 188 223 220 253 292 c 1
307 292 m 1
 330 241 346 188 398 188 c 0
 442 188 458 226 458 292 c 0
 458 358 443 396 398 396 c 0
 346 396 330 343 307 292 c 1
EndSplineSet
EndChar
StartChar: approxequal
Encoding: 8776 8776 363
Width: 560
Flags: MW
HStem: 85 69<359 400.5 359 409> 147 68<159.5 201> 270 69<359 400.5 359 409> 332 68<159.5 201>
VStem: 63 431<139 162 139 347>
LayerCount: 2
Back
Fore
SplineSet
484 385 m 1x68
 494 324 l 1
 494 324 436 270 382 270 c 0xa8
 325 270 222 332 180 332 c 0
 139 332 75 285 75 285 c 1
 63 347 l 1
 63 347 127 400 181 400 c 0x58
 238 400 336 339 382 339 c 0
 419 339 484 385 484 385 c 1x68
484 200 m 1
 494 139 l 1
 494 139 436 85 382 85 c 0x98
 325 85 222 147 180 147 c 0
 139 147 75 100 75 100 c 1
 63 162 l 1
 63 162 127 215 181 215 c 0x58
 238 215 336 154 382 154 c 0
 419 154 484 200 484 200 c 1
EndSplineSet
EndChar
StartChar: notequal
Encoding: 8800 8800 222
Width: 560
Flags: MW
HStem: -4 21G<124 124> 124 69<63 180 63 210 281 495 63 251> 309 69<63 291 63 261 63 332 362 495> 489 20G<420 420>
VStem: 63 432<124 193 124 193 309 378 124 378>
LayerCount: 2
Back
Fore
SplineSet
63 309 m 1
 63 378 l 1
 291 378 l 1
 359 533 l 1
 420 509 l 1
 362 378 l 1
 495 378 l 1
 495 309 l 1
 332 309 l 1
 281 193 l 1
 495 193 l 1
 495 124 l 1
 251 124 l 1
 185 -28 l 1
 124 -4 l 1
 180 124 l 1
 63 124 l 1
 63 193 l 1
 210 193 l 1
 261 309 l 1
 63 309 l 1
EndSplineSet
EndChar
StartChar: lessequal
Encoding: 8804 8804 275
Width: 560
Flags: MW
HStem: 22 68<65 488 65 488>
VStem: 65 423<22 90 22 90 22 352 22 352>
LayerCount: 2
Back
Fore
SplineSet
488 422 m 1
 153 320 l 1
 488 210 l 1
 488 134 l 1
 65 284 l 1
 65 352 l 1
 488 497 l 1
 488 422 l 1
65 22 m 1
 65 90 l 1
 488 90 l 1
 488 22 l 1
 65 22 l 1
EndSplineSet
EndChar
StartChar: greaterequal
Encoding: 8805 8805 276
Width: 560
Flags: MW
HStem: 22 68<71 494 71 494>
VStem: 71 423<22 90 22 90 22 210 22 210 22 497 22 497>
LayerCount: 2
Back
Fore
SplineSet
406 320 m 1
 71 422 l 1
 71 497 l 1
 494 352 l 1
 494 284 l 1
 71 134 l 1
 71 210 l 1
 406 320 l 1
494 90 m 1
 494 22 l 1
 71 22 l 1
 71 90 l 1
 494 90 l 1
EndSplineSet
EndChar
StartChar: lozenge
Encoding: 9674 9674 410
Width: 560
Flags: MW
HStem: 239 25<268 291 268 268> 264 132<222 230 222 231 230 231 231 328 328 329 329 329 329 338 329 329> 396 25<268 291 268 328>
VStem: 54 452<329 329>
LayerCount: 2
Back
Fore
SplineSet
428 329 m 1xb0
 328 396 l 1
 338 396 l 1
 506 329 l 1x50
 338 264 l 1
 329 264 l 1
 428 329 l 1xb0
54 329 m 1
 222 396 l 1
 231 396 l 1
 132 329 l 1xb0
 230 264 l 1
 222 264 l 1
 54 329 l 1
291 239 m 1
 268 239 l 1
 230 264 l 1
 329 264 l 1
 291 239 l 1
231 396 m 1
 268 421 l 1
 291 421 l 1
 328 396 l 1
 231 396 l 1
EndSplineSet
EndChar
StartChar: dotlessj
Encoding: 63166 63166 406
Width: 207
Flags: MW
HStem: -235 21G<-17 -17> 480 20G<66 141 141 141>
VStem: 66 75<0 500>
LayerCount: 2
Back
Fore
SplineSet
66 0 m 2
 66 500 l 1
 141 500 l 1
 141 0 l 2
 141 -132 128 -157 -17 -235 c 1
 -46 -177 l 1
 62 -111 66 -96 66 0 c 2
EndSplineSet
EndChar
StartChar: commaaccent
Encoding: 63171 63171 7
Width: 161
Flags: MW
HStem: -283 210<22 130 61 83>
VStem: 22 108
LayerCount: 2
Back
Fore
SplineSet
22 -283 m 1
 61 -73 l 1
 130 -73 l 1
 83 -283 l 1
 22 -283 l 1
EndSplineSet
EndChar
StartChar: acute.cap.001
Encoding: 65593 -1 452
Width: 505
Flags: MW
HStem: 785 151
VStem: 118 230<840 871>
LayerCount: 2
Back
Fore
SplineSet
140 785 m 1
 118 840 l 1
 324 936 l 1
 348 871 l 1
 140 785 l 1
EndSplineSet
EndChar
StartChar: at.cap
Encoding: 65581 -1 420
Width: 920
Flags: MW
HStem: -111 64<337 490 337 493.5> 87 64<398 464.5 684.5 735.5> 533 64<411 478.5> 743 64<349.5 610>
VStem: 45 71<219 494.5 219 517> 263 77<281.5 392.5 281.5 411.5> 569 75<256 523 523 523> 813 70<287 492>
LayerCount: 2
Back
Fore
SplineSet
475 807 m 0
 783 807 883 665 883 357 c 0
 883 217 846 87 707 87 c 0
 633 87 597 110 581 185 c 1
 566 159 504 87 425 87 c 0
 307 87 263 177 263 332 c 0
 263 491 302 597 463 597 c 0
 520 597 644 580 644 580 c 1
 644 223 l 2
 644 173 662 151 707 151 c 0
 764 151 813 190 813 357 c 0
 813 627 745 743 475 743 c 0
 224 743 116 636 116 353 c 0
 116 85 203 -47 471 -47 c 0
 509 -47 606 -37 606 -37 c 1
 608 -102 l 1
 608 -102 516 -111 471 -111 c 0
 159 -111 45 41 45 353 c 0
 45 681 181 807 475 807 c 0
438 151 m 0
 514 151 569 256 569 256 c 1
 569 523 l 2
 567 523 491 533 466 533 c 0
 356 533 340 446 340 339 c 0
 340 224 358 151 438 151 c 0
EndSplineSet
Position2: "'cpsp' Capital Spacing in Latin lookup 0 subtable" dx=5 dy=0 dh=10 dv=0
EndChar
StartChar: braceleft.cap
Encoding: 65559 -1 288
Width: 333
Flags: MW
HStem: -97 68<294 295> 715 68<294 295>
VStem: 112 75<32 83.5 32 83.5 602.5 645.5> 119 75<191.5 240.5 441.5 489>
LayerCount: 2
Back
Fore
SplineSet
194 207 m 0xe0
 194 176 187 101 187 66 c 0
 187 -2 234 -28 295 -29 c 1
 294 -97 l 1
 192 -95 112 -54 112 67 c 0xe0
 112 100 119 171 119 202 c 0
 119 279 60 296 25 309 c 1
 25 372 l 1
 63 380 119 408 119 475 c 0xd0
 119 512 112 572 112 606 c 0
 112 729 166 781 294 783 c 1
 295 715 l 1
 207 713 187 681 187 610 c 0xe0
 187 595 194 498 194 480 c 0
 194 395 167 365 105 342 c 1xd0
 165 320 194 278 194 207 c 0xe0
EndSplineSet
Position2: "'cpsp' Capital Spacing in Latin lookup 0 subtable" dx=5 dy=0 dh=10 dv=0
EndChar
StartChar: braceright.cap
Encoding: 65560 -1 289
Width: 332
Flags: MW
HStem: -99 68<38 39> 713 68<38 39>
VStem: 139 75<195 242.5 190.5 246.5 443.5 492.5> 146 75<38.5 81.5 600.5 652>
LayerCount: 2
Back
Fore
SplineSet
139 477 m 0xd0
 139 508 146 583 146 618 c 0
 146 686 99 712 38 713 c 1
 39 781 l 1
 141 779 221 738 221 617 c 0xd0
 221 584 214 513 214 482 c 0
 214 405 273 388 308 375 c 1
 308 312 l 1
 270 304 214 276 214 209 c 0xe0
 214 172 221 112 221 78 c 0
 221 -45 167 -97 39 -99 c 1
 38 -31 l 1
 126 -29 146 3 146 74 c 0xd0
 146 89 139 186 139 204 c 0
 139 289 166 319 228 342 c 1xe0
 168 364 139 406 139 477 c 0xd0
EndSplineSet
Position2: "'cpsp' Capital Spacing in Latin lookup 0 subtable" dx=5 dy=0 dh=10 dv=0
EndChar
StartChar: bracketleft.cap
Encoding: 65557 -1 286
Width: 308
Flags: MW
HStem: -92 65<144 270 144 270> 712 65<144 270 144 144>
VStem: 72 72<-27 712 -27 777 -27 777>
LayerCount: 2
Back
Fore
SplineSet
72 777 m 1
 270 777 l 1
 270 712 l 1
 144 712 l 1
 144 -27 l 1
 270 -27 l 1
 270 -92 l 1
 72 -92 l 1
 72 777 l 1
EndSplineSet
Position2: "'cpsp' Capital Spacing in Latin lookup 0 subtable" dx=5 dy=0 dh=10 dv=0
EndChar
StartChar: bracketright.cap
Encoding: 65558 -1 287
Width: 308
Flags: MW
HStem: -92 65<38 164 38 236 38 164> 712 65<38 164 38 236>
VStem: 164 72<-27 712 712 712>
LayerCount: 2
Back
Fore
SplineSet
236 -92 m 1
 38 -92 l 1
 38 -27 l 1
 164 -27 l 1
 164 712 l 1
 38 712 l 1
 38 777 l 1
 236 777 l 1
 236 -92 l 1
EndSplineSet
Position2: "'cpsp' Capital Spacing in Latin lookup 0 subtable" dx=5 dy=0 dh=10 dv=0
EndChar
StartChar: breve.cap
Encoding: 65566 -1 295
Width: 439
Flags: MW
HStem: 796 58<187 230 187 259>
VStem: 68 68<901 923 901 923> 283 67<901 923>
LayerCount: 2
Back
Fore
SplineSet
68 923 m 1
 136 923 l 1
 136 879 165 854 209 854 c 0
 251 854 283 879 283 923 c 1
 350 923 l 1
 350 861 309 796 209 796 c 0
 110 796 68 861 68 923 c 1
EndSplineSet
EndChar
StartChar: caron.cap
Encoding: 65562 -1 291
Width: 439
Flags: MW
HStem: 792 137<57 231 57 185>
VStem: 57 302<929 929>
LayerCount: 2
Back
Fore
SplineSet
359 929 m 1
 231 792 l 1
 185 792 l 1
 57 929 l 1
 134 929 l 1
 208 848 l 1
 282 929 l 1
 359 929 l 1
EndSplineSet
EndChar
StartChar: circumflex.cap.001
Encoding: 65594 -1 453
Width: 439
Flags: MW
HStem: 793 138<56 228 56 228 187 287 187 360>
VStem: 56 304<793 793>
LayerCount: 2
Back
Fore
SplineSet
56 793 m 1
 187 931 l 1
 228 931 l 1
 360 793 l 1
 287 793 l 1
 208 874 l 1
 129 793 l 1
 56 793 l 1
EndSplineSet
EndChar
StartChar: dieresis.cap
Encoding: 65564 -1 293
Width: 387
Flags: MW
HStem: 814 93<93 154 93 154 281 341>
VStem: 93 61<814 907 814 907> 281 60<814 907 814 907>
LayerCount: 2
Back
Fore
SplineSet
93 814 m 1
 93 907 l 1
 154 907 l 1
 154 814 l 1
 93 814 l 1
281 814 m 1
 281 907 l 1
 341 907 l 1
 341 814 l 1
 281 814 l 1
EndSplineSet
EndChar
StartChar: dotaccent.cap
Encoding: 65569 -1 298
Width: 224
Flags: MW
HStem: 793 90<79 143 79 143>
VStem: 79 64<793 883 793 883>
LayerCount: 2
Back
Fore
SplineSet
79 793 m 1
 79 883 l 1
 143 883 l 1
 143 793 l 1
 79 793 l 1
EndSplineSet
EndChar
StartChar: eight.dnom
Encoding: 65590 -1 440
Width: 280
Flags: MW
HStem: -110 55<123.5 156.5 123.5 177> 35 52<126 154 126 154> 167 55<122.5 157.5>
VStem: 21 66<-26.5 2.5 -26.5 12> 26 65<119 143 119 165.5> 189 65<118.5 142.5> 193 66<-26.5 1>
LayerCount: 2
Back
Fore
SplineSet
140 222 m 0xec
 215 222 254 195 254 137 c 0xf4
 254 93 236 71 211 63 c 1
 235 56 259 39 259 -13 c 0
 259 -85 214 -110 140 -110 c 0
 65 -110 21 -85 21 -13 c 0xf2
 21 37 47 54 70 64 c 1
 48 72 26 91 26 137 c 0
 26 194 64 222 140 222 c 0xec
140 -55 m 0xf2
 173 -55 193 -41 193 -12 c 0
 193 14 180 27 154 35 c 1
 126 35 l 1
 101 27 87 17 87 -12 c 0
 87 -41 107 -55 140 -55 c 0xf2
140 167 m 0xec
 105 167 91 155 91 131 c 0
 91 107 102 96 126 87 c 1
 154 87 l 1
 180 96 189 107 189 130 c 0
 189 155 175 167 140 167 c 0xec
EndSplineSet
Substitution2: "'frac' Diagonal Fractions in Latin lookup 1 subtable" eightsuperior
EndChar
StartChar: eight.numr
Encoding: 65578 -1 378
Width: 280
Flags: MW
HStem: 368 55<123.5 156.5 123.5 177> 513 52<126 154 126 154> 645 55<122.5 157.5>
VStem: 21 66<451.5 480.5 451.5 490> 26 65<597 621 597 643.5> 189 65<596.5 620.5> 193 66<451.5 479>
LayerCount: 2
Back
Fore
SplineSet
140 700 m 0xec
 215 700 254 673 254 615 c 0xf4
 254 571 236 549 211 541 c 1
 235 534 259 517 259 465 c 0
 259 393 214 368 140 368 c 0
 65 368 21 393 21 465 c 0xf2
 21 515 47 532 70 542 c 1
 48 550 26 569 26 615 c 0
 26 672 64 700 140 700 c 0xec
140 423 m 0xf2
 173 423 193 437 193 466 c 0
 193 492 180 505 154 513 c 1
 126 513 l 1
 101 505 87 495 87 466 c 0
 87 437 107 423 140 423 c 0xf2
140 645 m 0xec
 105 645 91 633 91 609 c 0
 91 585 102 574 126 565 c 1
 154 565 l 1
 180 574 189 585 189 608 c 0
 189 633 175 645 140 645 c 0xec
EndSplineSet
Substitution2: "'frac' Diagonal Fractions in Latin lookup 1 subtable" eightsuperior
EndChar
StartChar: eight.pnum
Encoding: 65548 -1 202
Width: 512
Flags: MW
HStem: -10 70<217.5 293 217.5 316.5> 228 66<210 301 210 301> 443 66<219 291.5>
VStem: 49 80<109 165.5 109 168> 58 80<350 398.5 350 421> 374 80<350 398.5> 382 80<109 165.5>
LayerCount: 2
Back
Fore
SplineSet
255 509 m 0xec
 375 509 454 468 454 375 c 0xf4
 454 319 432 287 367 264 c 1
 427 241 462 211 462 133 c 0
 462 27 378 -10 255 -10 c 0
 133 -10 49 32 49 133 c 0xf2
 49 203 88 239 146 264 c 1
 87 286 58 319 58 375 c 0
 58 467 135 509 255 509 c 0xec
255 60 m 0xf2
 331 60 382 78 382 140 c 0
 382 191 356 216 301 228 c 1
 210 228 l 1
 154 216 129 191 129 140 c 0
 129 78 180 60 255 60 c 0xf2
255 443 m 0xec
 183 443 138 426 138 371 c 0
 138 329 158 310 210 294 c 1
 301 294 l 1
 356 309 374 329 374 371 c 0
 374 426 328 443 255 443 c 0xec
EndSplineSet
Substitution2: "'frac' Diagonal Fractions in Latin lookup 1 subtable" eightsuperior
EndChar
StartChar: emdash.cap
Encoding: 65552 -1 270
Width: 1126
Flags: MW
HStem: 265 66<63 1063 63 1063>
VStem: 63 1000<265 331 265 331>
LayerCount: 2
Back
Fore
SplineSet
63 331 m 1
 1063 331 l 1
 1063 265 l 1
 63 265 l 1
 63 331 l 1
EndSplineSet
Position2: "'cpsp' Capital Spacing in Latin lookup 0 subtable" dx=5 dy=0 dh=10 dv=0
EndChar
StartChar: endash.cap
Encoding: 65551 -1 269
Width: 626
Flags: MW
HStem: 265 66<63 563 63 563>
VStem: 63 500<265 331 265 331>
LayerCount: 2
Back
Fore
SplineSet
63 331 m 1
 563 331 l 1
 563 265 l 1
 63 265 l 1
 63 331 l 1
EndSplineSet
Position2: "'cpsp' Capital Spacing in Latin lookup 0 subtable" dx=5 dy=0 dh=10 dv=0
EndChar
StartChar: exclamdown.cap
Encoding: 65554 -1 282
Width: 231
Flags: MW
HStem: -4 21G<77 153 77 77> 585 111<77 153 77 153>
VStem: 79 73
LayerCount: 2
Back
Fore
SplineSet
151 466 m 1
 153 -4 l 1
 77 -4 l 1
 81 466 l 1
 151 466 l 1
153 696 m 1
 153 585 l 1
 77 585 l 1
 77 696 l 1
 153 696 l 1
EndSplineSet
EndChar
StartChar: five.dnom
Encoding: 65587 -1 437
Width: 280
Flags: MW
HStem: -108 57<114 145 110.5 170> 43 56<134.5 149> 155 57<99 233 99 99>
VStem: 41 55.5 178 67<-18.5 15>
LayerCount: 2
Back
Fore
SplineSet
46 212 m 1
 233 212 l 1
 233 155 l 1
 99 155 l 1
 94 84 l 1
 94 84 118 99 151 99 c 0
 206 99 245 74 245 -2 c 0
 245 -72 202 -108 138 -108 c 0
 90 -108 31 -95 31 -95 c 1
 36 -40 l 1
 36 -40 90 -51 131 -51 c 0
 159 -51 178 -35 178 -2 c 0
 178 32 160 43 138 43 c 0
 111 43 86 28 86 28 c 1
 36 34 l 1
 46 212 l 1
EndSplineSet
Substitution2: "'frac' Diagonal Fractions in Latin lookup 1 subtable" fivesuperior
EndChar
StartChar: five.numr
Encoding: 65575 -1 375
Width: 280
Flags: MW
HStem: 370 57<120 151 116.5 176> 521 56<140.5 155> 633 57<105 239 105 105>
VStem: 47 55.5 184 67<459.5 493>
LayerCount: 2
Back
Fore
SplineSet
52 690 m 1
 239 690 l 1
 239 633 l 1
 105 633 l 1
 100 562 l 1
 100 562 124 577 157 577 c 0
 212 577 251 552 251 476 c 0
 251 406 208 370 144 370 c 0
 96 370 37 383 37 383 c 1
 42 438 l 1
 42 438 96 427 137 427 c 0
 165 427 184 443 184 476 c 0
 184 510 166 521 144 521 c 0
 117 521 92 506 92 506 c 1
 42 512 l 1
 52 690 l 1
EndSplineSet
Substitution2: "'frac' Diagonal Fractions in Latin lookup 1 subtable" fivesuperior
EndChar
StartChar: five.pnum
Encoding: 65545 -1 199
Width: 478
Flags: MW
HStem: -9 68<210.5 276.5 210.5 302> 251 65<222 276.5> 430 72<144 411 144 144>
VStem: 359 76<124.5 195>
LayerCount: 2
Back
Fore
SplineSet
76 502 m 1
 411 502 l 1
 411 430 l 1
 144 430 l 1
 129 285 l 1
 129 285 194 316 250 316 c 0
 358 316 435 271 435 164 c 0
 435 52 358 -9 246 -9 c 0
 171 -9 51 15 51 15 c 1
 59 83 l 1
 59 83 177 59 244 59 c 0
 309 59 359 89 359 160 c 0
 359 230 309 251 244 251 c 0
 182 251 114 215 114 215 c 1
 57 228 l 1
 76 502 l 1
EndSplineSet
Substitution2: "'frac' Diagonal Fractions in Latin lookup 1 subtable" fivesuperior
EndChar
StartChar: four.dnom
Encoding: 65586 -1 436
Width: 280
Flags: MW
HStem: -52 59<96 171 96 171 234 261>
VStem: 173.5 60.5
LayerCount: 2
Back
Fore
SplineSet
171 -100 m 1
 171 -52 l 1
 30 -52 l 1
 30 3 l 1
 99 212 l 1
 169 212 l 1
 96 7 l 1
 171 7 l 1
 176 95 l 1
 234 95 l 1
 234 7 l 1
 261 7 l 1
 261 -52 l 1
 234 -52 l 1
 234 -100 l 1
 171 -100 l 1
EndSplineSet
Substitution2: "'frac' Diagonal Fractions in Latin lookup 1 subtable" foursuperior
EndChar
StartChar: four.pnum
Encoding: 65544 -1 198
Width: 478
Flags: MW
HStem: 95 70<121 308 121 308 384 445> 480 20G<201 283 283 283>
VStem: 308 76<-20 95 -20 95 165 302>
LayerCount: 2
Back
Fore
SplineSet
308 -20 m 1
 308 95 l 1
 34 95 l 1
 34 157 l 1
 201 500 l 1
 283 500 l 1
 121 165 l 1
 308 165 l 1
 308 302 l 1
 384 302 l 1
 384 165 l 1
 445 165 l 1
 445 95 l 1
 384 95 l 1
 384 -20 l 1
 308 -20 l 1
EndSplineSet
Substitution2: "'frac' Diagonal Fractions in Latin lookup 1 subtable" foursuperior
EndChar
StartChar: grave.cap
Encoding: 65561 -1 290
Width: 490
Flags: MW
HStem: 780 151
VStem: 120 230<837 866>
LayerCount: 2
Back
Fore
SplineSet
144 931 m 1
 350 837 l 1
 328 780 l 1
 120 866 l 1
 144 931 l 1
EndSplineSet
EndChar
StartChar: hungarumlaut.cap
Encoding: 65568 -1 297
Width: 666
Flags: MW
HStem: 755 162<263 368>
VStem: 129 378<785 885>
LayerCount: 2
Back
Fore
SplineSet
368 755 m 1
 320 785 l 1
 453 916 l 1
 507 885 l 1
 368 755 l 1
178 756 m 1
 129 785 l 1
 263 917 l 1
 317 885 l 1
 178 756 l 1
EndSplineSet
EndChar
StartChar: hyphen.cap
Encoding: 65592 -1 449
Width: 376
Flags: MW
HStem: 263 69<63 314 63 314>
VStem: 63 251<263 332 263 332>
LayerCount: 2
Back
Fore
SplineSet
63 263 m 1
 63 332 l 1
 314 332 l 1
 314 263 l 1
 63 263 l 1
EndSplineSet
EndChar
StartChar: macron.cap
Encoding: 65565 -1 294
Width: 439
Flags: MW
HStem: 823 60<69 362 69 362>
VStem: 69 293<823 883 823 883>
LayerCount: 2
Back
Fore
SplineSet
69 823 m 1
 69 883 l 1
 362 883 l 1
 362 823 l 1
 69 823 l 1
EndSplineSet
EndChar
StartChar: nine.dnom
Encoding: 65591 -1 441
Width: 280
Flags: MW
HStem: -110 59<108 145.5 104 172> 8 53<120 139> 164 58<122.5 155.5>
VStem: 24 65<98 130 98 147.5> 188 65<75 75>
LayerCount: 2
Back
Fore
SplineSet
36 -98 m 1
 41 -45 l 1
 41 -45 85 -51 123 -51 c 0
 168 -51 186 -26 186 20 c 1
 186 20 153 8 125 8 c 0
 61 8 24 47 24 112 c 0
 24 183 71 222 135 222 c 0
 216 222 253 167 253 55 c 0
 253 -64 215 -110 129 -110 c 0
 87 -110 36 -98 36 -98 c 1
134 61 m 0
 157 61 188 75 188 75 c 1
 187 131 174 164 137 164 c 0
 108 164 89 147 89 113 c 0
 89 83 106 61 134 61 c 0
EndSplineSet
Substitution2: "'frac' Diagonal Fractions in Latin lookup 1 subtable" ninesuperior
EndChar
StartChar: nine.numr
Encoding: 65579 -1 379
Width: 280
Flags: MW
HStem: 368 59<111 148.5 107 175> 486 53<123 142> 642 58<125.5 158.5>
VStem: 27 65<576 608 576 625.5> 191 65<553 553>
LayerCount: 2
Back
Fore
SplineSet
39 380 m 1
 44 433 l 1
 44 433 88 427 126 427 c 0
 171 427 189 452 189 498 c 1
 189 498 156 486 128 486 c 0
 64 486 27 525 27 590 c 0
 27 661 74 700 138 700 c 0
 219 700 256 645 256 533 c 0
 256 414 218 368 132 368 c 0
 90 368 39 380 39 380 c 1
137 539 m 0
 160 539 191 553 191 553 c 1
 190 609 177 642 140 642 c 0
 111 642 92 625 92 591 c 0
 92 561 109 539 137 539 c 0
EndSplineSet
Substitution2: "'frac' Diagonal Fractions in Latin lookup 1 subtable" ninesuperior
EndChar
StartChar: nine.pnum
Encoding: 65549 -1 203
Width: 494
Flags: MW
HStem: -10 21G<190 311.5> -10 70<190 271 189 311.5> 188 63<193 254> 446 65<200.5 277.5>
VStem: 42 76<312 381 312 398> 369 76<180.5 224>
LayerCount: 2
Back
Fore
SplineSet
68 8 m 1xbc
 74 75 l 1
 74 75 154 60 224 60 c 0
 318 60 369 101 369 224 c 1
 330 206 280 188 228 188 c 0
 101 188 42 237 42 346 c 0
 42 450 112 511 242 511 c 0
 395 511 445 403 445 257 c 0
 445 104 399 -10 224 -10 c 0x7c
 156 -10 68 8 68 8 c 1xbc
234 251 m 0
 299 251 370 286 370 286 c 1
 370 302 369 316 367 329 c 0
 358 407 313 446 242 446 c 0
 159 446 118 416 118 346 c 0
 118 278 152 251 234 251 c 0
EndSplineSet
Substitution2: "'frac' Diagonal Fractions in Latin lookup 1 subtable" ninesuperior
EndChar
StartChar: one.dnom
Encoding: 65583 -1 433
Width: 280
Flags: MW
HStem: -100 312<148 208 148 208 144 208>
VStem: 144 64<-100 142 142 142>
LayerCount: 2
Back
Fore
SplineSet
47 142 m 1
 148 212 l 1
 208 212 l 1
 208 -100 l 1
 144 -100 l 1
 144 142 l 1
 76 95 l 1
 47 142 l 1
EndSplineSet
Substitution2: "'frac' Diagonal Fractions in Latin lookup 1 subtable" onesuperior
EndChar
StartChar: one.numr
Encoding: 65571 -1 371
Width: 280
Flags: MW
HStem: 378 312<142 202 142 202 138 202>
VStem: 138 64<378 620 620 620>
LayerCount: 2
Back
Fore
SplineSet
41 620 m 1
 142 690 l 1
 202 690 l 1
 202 378 l 1
 138 378 l 1
 138 620 l 1
 70 573 l 1
 41 620 l 1
EndSplineSet
Substitution2: "'frac' Diagonal Fractions in Latin lookup 1 subtable" onesuperior
EndChar
StartChar: one.pnum
Encoding: 65541 -1 195
Width: 347
Flags: MW
HStem: 0 21G<201 277 201 201> 480 20G<205 277 277 277>
VStem: 201 76<0 413 413 413>
LayerCount: 2
Back
Fore
SplineSet
23 383 m 1
 205 500 l 1
 277 500 l 1
 277 0 l 1
 201 0 l 1
 201 413 l 1
 59 323 l 1
 23 383 l 1
EndSplineSet
Substitution2: "'frac' Diagonal Fractions in Latin lookup 1 subtable" onesuperior
EndChar
StartChar: parenleft.cap
Encoding: 65555 -1 284
Width: 247
Flags: MW
HStem: -94 872<144 215 144 215>
VStem: 47 77<238 424 238 435>
LayerCount: 2
Back
Fore
SplineSet
144 778 m 1
 215 778 l 1
 215 778 124 517 124 331 c 0
 124 145 215 -94 215 -94 c 1
 144 -94 l 1
 144 -94 47 123 47 331 c 0
 47 539 144 778 144 778 c 1
EndSplineSet
Position2: "'cpsp' Capital Spacing in Latin lookup 0 subtable" dx=5 dy=0 dh=10 dv=0
EndChar
StartChar: parenright.cap
Encoding: 65556 -1 285
Width: 248
Flags: MW
HStem: -88 872<33 104 33 104>
VStem: 124 77<266 452>
LayerCount: 2
Back
Fore
SplineSet
104 -88 m 1
 33 -88 l 1
 33 -88 124 173 124 359 c 0
 124 545 33 784 33 784 c 1
 104 784 l 1
 104 784 201 567 201 359 c 0
 201 151 104 -88 104 -88 c 1
EndSplineSet
Position2: "'cpsp' Capital Spacing in Latin lookup 0 subtable" dx=5 dy=0 dh=10 dv=0
EndChar
StartChar: periodcentered.cap
Encoding: 65553 -1 272
Width: 202
Flags: MW
HStem: 279 117<63 140 63 140>
VStem: 63 77<279 396 279 396>
LayerCount: 2
Back
Fore
SplineSet
63 279 m 1
 63 396 l 1
 140 396 l 1
 140 279 l 1
 63 279 l 1
EndSplineSet
Position2: "'cpsp' Capital Spacing in Latin lookup 0 subtable" dx=5 dy=0 dh=10 dv=0
EndChar
StartChar: questiondown.cap
Encoding: 65550 -1 267
Width: 405
Flags: MW
HStem: -5 68<187 251> 481 20G<197 269 269 269> 580 116<197 275 197 275>
VStem: 33 79<123 184.5 123 194.5> 197 78<580 696 580 696>
LayerCount: 2
Back
Fore
SplineSet
33 163 m 0
 33 226 58 264 138 353 c 0
 175 394 197 425 197 461 c 2
 197 501 l 1
 269 501 l 1
 269 501 274 472 274 450 c 0
 274 395 248 365 191 300 c 0
 132 232 112 206 112 163 c 0
 112 83 147 63 227 63 c 0
 282 63 368 83 368 83 c 1
 377 22 l 1
 377 22 281 -5 221 -5 c 0
 94 -5 33 38 33 163 c 0
275 696 m 1
 275 580 l 1
 197 580 l 1
 197 696 l 1
 275 696 l 1
EndSplineSet
EndChar
StartChar: ring.cap
Encoding: 65567 -1 296
Width: 315
Flags: MW
HStem: 677 52<133 167 133 180.5> 825 52<133 167>
VStem: 45 50<761.5 792.5 761.5 811> 203 51<761.5 792.5>
LayerCount: 2
Back
Fore
SplineSet
254 777 m 0
 254 710 211 677 150 677 c 0
 86 677 45 710 45 777 c 0
 45 845 86 877 150 877 c 0
 211 877 254 844 254 777 c 0
95 777 m 0
 95 746 116 729 150 729 c 0
 184 729 203 746 203 777 c 0
 203 808 184 825 150 825 c 0
 116 825 95 808 95 777 c 0
EndSplineSet
EndChar
StartChar: seven.dnom
Encoding: 65589 -1 439
Width: 280
Flags: MW
HStem: 150 62<37 244 37 172>
VStem: 172 72<135 150 150 150>
LayerCount: 2
Back
Fore
SplineSet
37 150 m 1
 37 212 l 1
 244 212 l 1
 244 135 l 1
 139 -109 l 1
 68 -96 l 1
 172 129 l 1
 172 150 l 1
 37 150 l 1
EndSplineSet
Substitution2: "'frac' Diagonal Fractions in Latin lookup 1 subtable" sevensuperior
EndChar
StartChar: seven.numr
Encoding: 65577 -1 377
Width: 280
Flags: MW
HStem: 628 62<39 246 39 174>
VStem: 174 72<613 628 628 628>
LayerCount: 2
Back
Fore
SplineSet
39 628 m 1
 39 690 l 1
 246 690 l 1
 246 613 l 1
 141 369 l 1
 70 382 l 1
 174 607 l 1
 174 628 l 1
 39 628 l 1
EndSplineSet
Substitution2: "'frac' Diagonal Fractions in Latin lookup 1 subtable" sevensuperior
EndChar
StartChar: seven.pnum
Encoding: 65547 -1 201
Width: 416
Flags: MW
HStem: 430 71<33 385 33 307>
VStem: 307 78<408 430 430 430>
LayerCount: 2
Back
Fore
SplineSet
33 430 m 1
 33 501 l 1
 385 501 l 1
 385 406 l 1
 171 -15 l 1
 101 11 l 1
 307 408 l 1
 307 430 l 1
 33 430 l 1
EndSplineSet
Substitution2: "'frac' Diagonal Fractions in Latin lookup 1 subtable" sevensuperior
EndChar
StartChar: six.dnom
Encoding: 65588 -1 438
Width: 280
Flags: MW
HStem: -110 57<122.5 157.5 122.5 175.5> 50 55<140 158> 164 58<131.5 168.5 106.5 169>
VStem: 24 66 187 66<-14 19>
LayerCount: 2
Back
Fore
SplineSet
240 212 m 1
 236 158 l 1
 236 158 186 164 152 164 c 0
 111 164 92 143 91 91 c 1
 105 96 130 105 150 105 c 0
 221 105 253 68 253 2 c 0
 253 -68 209 -110 142 -110 c 0
 61 -110 24 -60 24 52 c 0
 24 170 63 222 150 222 c 0
 187 222 240 212 240 212 c 1
142 50 m 0
 123 50 102 40 90 34 c 1
 91 -20 105 -53 140 -53 c 0
 175 -53 187 -29 187 1 c 0
 187 37 174 50 142 50 c 0
EndSplineSet
Substitution2: "'frac' Diagonal Fractions in Latin lookup 1 subtable" sixsuperior
EndChar
StartChar: six.numr
Encoding: 65576 -1 376
Width: 280
Flags: MW
HStem: 368 57<124.5 159.5 124.5 177.5> 528 55<142 160> 642 58<133.5 170.5 108.5 171>
VStem: 26 66 189 66<464 497>
LayerCount: 2
Back
Fore
SplineSet
242 690 m 1
 238 636 l 1
 238 636 188 642 154 642 c 0
 113 642 94 621 93 569 c 1
 107 574 132 583 152 583 c 0
 223 583 255 546 255 480 c 0
 255 410 211 368 144 368 c 0
 63 368 26 418 26 530 c 0
 26 648 65 700 152 700 c 0
 189 700 242 690 242 690 c 1
144 528 m 0
 125 528 104 518 92 512 c 1
 93 458 107 425 142 425 c 0
 177 425 189 449 189 479 c 0
 189 515 176 528 144 528 c 0
EndSplineSet
Substitution2: "'frac' Diagonal Fractions in Latin lookup 1 subtable" sixsuperior
EndChar
StartChar: six.pnum
Encoding: 65546 -1 200
Width: 501
Flags: MW
HStem: -10 65<220.5 297 220.5 321.5> 252 63<241.5 304.5> 440 70<227 308 186.5 309> 490 20G<186.5 308>
VStem: 49 75<207 216 207 320.5> 384 76<121.5 190.5>
LayerCount: 2
Back
Fore
SplineSet
434 492 m 1xdc
 428 425 l 1
 428 425 344 440 274 440 c 0
 180 440 125 402 124 278 c 1
 161 296 213 315 270 315 c 0
 397 315 460 265 460 157 c 0
 460 53 387 -10 256 -10 c 0
 106 -10 49 98 49 244 c 0
 49 397 99 510 274 510 c 0xec
 342 510 434 492 434 492 c 1xdc
264 252 m 0
 198 252 124 216 124 216 c 1
 124 198 126 181 129 166 c 0
 142 94 185 55 256 55 c 0
 338 55 384 86 384 157 c 0
 384 224 345 252 264 252 c 0
EndSplineSet
Substitution2: "'frac' Diagonal Fractions in Latin lookup 1 subtable" sixsuperior
EndChar
StartChar: three.dnom
Encoding: 65585 -1 435
Width: 280
Flags: MW
HStem: -110 59<118.5 151.5 112.5 176.5> 32 54<72 137 72 137> 163 59<114.5 146>
VStem: 175 67<117.5 141.5> 184 66<-22.5 6>
LayerCount: 2
Back
Fore
SplineSet
34 212 m 1xe8
 34 212 93 222 136 222 c 0
 207 222 242 196 242 138 c 0xf0
 242 89 209 68 202 63 c 1
 232 53 250 39 250 -13 c 0
 250 -79 210 -110 143 -110 c 0
 94 -110 30 -100 30 -100 c 1
 34 -44 l 1
 34 -44 91 -51 134 -51 c 0
 169 -51 184 -35 184 -10 c 0
 184 22 165 32 137 32 c 2xe8
 72 32 l 1
 72 86 l 1
 137 86 l 2
 155 86 175 105 175 130 c 0
 175 153 162 163 130 163 c 0xf0
 87 163 38 156 38 156 c 1
 34 212 l 1xe8
EndSplineSet
Substitution2: "'frac' Diagonal Fractions in Latin lookup 1 subtable" threesuperior
EndChar
StartChar: three.numr
Encoding: 65573 -1 373
Width: 280
Flags: MW
HStem: 368 59<121.5 154.5 115.5 179.5> 510 54<75 140 75 140> 641 59<117.5 149>
VStem: 178 67<595.5 619.5> 187 66<455.5 484>
LayerCount: 2
Back
Fore
SplineSet
37 690 m 1xe8
 37 690 96 700 139 700 c 0
 210 700 245 674 245 616 c 0xf0
 245 567 212 546 205 541 c 1
 235 531 253 517 253 465 c 0
 253 399 213 368 146 368 c 0
 97 368 33 378 33 378 c 1
 37 434 l 1
 37 434 94 427 137 427 c 0
 172 427 187 443 187 468 c 0
 187 500 168 510 140 510 c 2xe8
 75 510 l 1
 75 564 l 1
 140 564 l 2
 158 564 178 583 178 608 c 0
 178 631 165 641 133 641 c 0xf0
 90 641 41 634 41 634 c 1
 37 690 l 1xe8
EndSplineSet
Substitution2: "'frac' Diagonal Fractions in Latin lookup 1 subtable" threesuperior
EndChar
StartChar: three.pnum
Encoding: 65543 -1 197
Width: 476
Flags: MW
HStem: -9 21G<198.5 304.5> -9 71<198.5 274.5 198.5 304.5> 226 67<118 241 118 242 118 241> 439 70<195 269.5>
VStem: 339 75<343.5 396.5> 353 75<114.5 176.5>
LayerCount: 2
Back
Fore
SplineSet
54 489 m 1x74
 54 489 155 509 232 509 c 0
 359 509 414 466 414 378 c 0x78
 414 309 361 275 328 268 c 1
 383 255 428 218 428 146 c 0
 428 47 367 -9 242 -9 c 0x74
 155 -9 46 11 46 11 c 1xb4
 55 77 l 1
 55 77 161 62 236 62 c 0
 313 62 353 85 353 144 c 0x74
 353 209 302 224 242 226 c 2
 118 226 l 1
 118 293 l 1
 241 293 l 2
 293 295 339 311 339 369 c 0x78
 339 424 306 439 233 439 c 0
 157 439 61 423 61 423 c 1
 54 489 l 1x74
EndSplineSet
Substitution2: "'frac' Diagonal Fractions in Latin lookup 1 subtable" threesuperior
EndChar
StartChar: tilde.cap
Encoding: 65563 -1 292
Width: 433
Flags: MW
HStem: 809 66<285 309 285 316> 865 65<133.5 161.5>
VStem: 55 331<869 869>
LayerCount: 2
Back
Fore
SplineSet
370 920 m 1xa0
 386 869 l 1
 386 869 333 809 299 809 c 0xa0
 255 809 178 865 145 865 c 0
 122 865 69 817 69 817 c 1
 55 869 l 1
 55 869 109 930 147 930 c 0x60
 195 930 271 875 299 875 c 0
 319 875 370 920 370 920 c 1xa0
EndSplineSet
EndChar
StartChar: two.dnom
Encoding: 65584 -1 434
Width: 280
Flags: MW
HStem: -100 58<122 248 122 248> 161 61<122.5 143>
VStem: 39 209<-100 -44 -44 -44> 177 67<110 138>
LayerCount: 2
Back
Fore
SplineSet
248 -100 m 1xa0
 39 -100 l 1
 39 -44 l 1xa0
 127 42 l 2
 158 72 177 95 177 125 c 0
 177 151 158 161 128 161 c 0
 99 161 44 151 44 151 c 1
 41 210 l 1
 41 210 101 222 144 222 c 0
 213 222 244 193 244 131 c 0
 244 85 222 54 182 18 c 2xd0
 122 -42 l 1
 248 -42 l 1
 248 -100 l 1xa0
EndSplineSet
Substitution2: "'frac' Diagonal Fractions in Latin lookup 1 subtable" twosuperior
EndChar
StartChar: two.numr
Encoding: 65572 -1 372
Width: 280
Flags: MW
HStem: 378 58<118 244 118 244> 639 61<118.5 139>
VStem: 35 209<378 434 434 434> 173 67<588 616>
LayerCount: 2
Back
Fore
SplineSet
244 378 m 1xa0
 35 378 l 1
 35 434 l 1xa0
 123 520 l 2
 154 550 173 573 173 603 c 0
 173 629 154 639 124 639 c 0
 95 639 40 629 40 629 c 1
 37 688 l 1
 37 688 97 700 140 700 c 0
 209 700 240 671 240 609 c 0
 240 563 218 532 178 496 c 2xd0
 118 436 l 1
 244 436 l 1
 244 378 l 1xa0
EndSplineSet
Substitution2: "'frac' Diagonal Fractions in Latin lookup 1 subtable" twosuperior
EndChar
StartChar: two.pnum
Encoding: 65542 -1 196
Width: 469
Flags: MW
HStem: 0 71<162 425 162 425> 437 72<188 254>
VStem: 323 84<334.5 387.5>
LayerCount: 2
Back
Fore
SplineSet
425 0 m 1
 49 0 l 1
 49 68 l 1
 205 203 l 2
 269 257 323 310 323 359 c 0
 323 416 295 437 213 437 c 0
 151 437 54 420 54 419 c 2
 49 486 l 1
 49 486 148 509 228 509 c 0
 360 509 407 449 407 363 c 0
 407 287 366 242 309 194 c 2
 162 71 l 1
 425 71 l 1
 425 0 l 1
EndSplineSet
Substitution2: "'frac' Diagonal Fractions in Latin lookup 1 subtable" twosuperior
EndChar
StartChar: zero.dnom
Encoding: 65582 -1 432
Width: 280
Flags: MW
HStem: -110 59<123 156> 163 59<123.5 158>
VStem: 21 66<13 91.5> 193 66<20 96>
LayerCount: 2
Back
Fore
SplineSet
139 222 m 0
 215 222 259 181 259 56 c 0
 259 -16 244 -59 218 -84 c 0
 198 -102 172 -110 140 -110 c 0
 66 -110 21 -71 21 56 c 0
 21 127 36 171 62 196 c 0
 82 214 108 222 139 222 c 0
139 163 m 0
 104 163 87 137 87 56 c 0
 87 -30 106 -51 140 -51 c 0
 174 -51 193 -30 193 56 c 0
 193 136 177 163 139 163 c 0
EndSplineSet
Substitution2: "'frac' Diagonal Fractions in Latin lookup 1 subtable" zerosuperior
EndChar
StartChar: zero.numr
Encoding: 65570 -1 370
Width: 280
Flags: MW
HStem: 368 59<123 156> 641 59<123.5 158>
VStem: 21 66<491 569.5> 193 66<498 574>
LayerCount: 2
Back
Fore
SplineSet
139 700 m 0
 215 700 259 659 259 534 c 0
 259 462 244 419 218 394 c 0
 198 376 172 368 140 368 c 0
 66 368 21 407 21 534 c 0
 21 605 36 649 62 674 c 0
 82 692 108 700 139 700 c 0
139 641 m 0
 104 641 87 615 87 534 c 0
 87 448 106 427 140 427 c 0
 174 427 193 448 193 534 c 0
 193 614 177 641 139 641 c 0
EndSplineSet
Substitution2: "'frac' Diagonal Fractions in Latin lookup 1 subtable" zerosuperior
EndChar
